%TF.GenerationSoftware,KiCad,Pcbnew,(5.1.10-1-10_14)*%
%TF.CreationDate,2021-09-16T13:02:04+08:00*%
%TF.ProjectId,AT90USB1287-Board,41543930-5553-4423-9132-38372d426f61,rev?*%
%TF.SameCoordinates,Original*%
%TF.FileFunction,Soldermask,Top*%
%TF.FilePolarity,Negative*%
%FSLAX46Y46*%
G04 Gerber Fmt 4.6, Leading zero omitted, Abs format (unit mm)*
G04 Created by KiCad (PCBNEW (5.1.10-1-10_14)) date 2021-09-16 13:02:04*
%MOMM*%
%LPD*%
G01*
G04 APERTURE LIST*
%ADD10C,0.100000*%
%ADD11O,1.350000X1.350000*%
%ADD12R,1.350000X1.350000*%
%ADD13R,1.200000X1.400000*%
%ADD14R,1.600000X2.000000*%
%ADD15R,2.500000X2.000000*%
%ADD16R,2.500000X0.500000*%
%ADD17C,0.900000*%
G04 APERTURE END LIST*
D10*
%TO.C,U1*%
G36*
X134323667Y-72287954D02*
G01*
X134334473Y-72282179D01*
X134346196Y-72278622D01*
X134358390Y-72277421D01*
X134448034Y-72277421D01*
X134460227Y-72278622D01*
X134471951Y-72282179D01*
X134482757Y-72287954D01*
X134492228Y-72295727D01*
X134535794Y-72339293D01*
X134543567Y-72348764D01*
X134549343Y-72359570D01*
X134552899Y-72371294D01*
X134554100Y-72383487D01*
X134552899Y-72395680D01*
X134549343Y-72407404D01*
X134543567Y-72418210D01*
X134535794Y-72427681D01*
X134005464Y-72958011D01*
X133995993Y-72965784D01*
X133985187Y-72971560D01*
X133973463Y-72975116D01*
X133961270Y-72976317D01*
X133949077Y-72975116D01*
X133937353Y-72971560D01*
X133926547Y-72965784D01*
X133917076Y-72958011D01*
X133828688Y-72869623D01*
X133820915Y-72860152D01*
X133815139Y-72849346D01*
X133811583Y-72837622D01*
X133810382Y-72825429D01*
X133811583Y-72813236D01*
X133815139Y-72801512D01*
X133820915Y-72790706D01*
X133828688Y-72781235D01*
X134314196Y-72295727D01*
X134323667Y-72287954D01*
G37*
G36*
G01*
X134270629Y-73311565D02*
X134182241Y-73223177D01*
G75*
G02*
X134182241Y-73134789I44194J44194D01*
G01*
X134712571Y-72604459D01*
G75*
G02*
X134800959Y-72604459I44194J-44194D01*
G01*
X134889347Y-72692847D01*
G75*
G02*
X134889347Y-72781235I-44194J-44194D01*
G01*
X134359017Y-73311565D01*
G75*
G02*
X134270629Y-73311565I-44194J44194D01*
G01*
G37*
G36*
G01*
X134624183Y-73665118D02*
X134535795Y-73576730D01*
G75*
G02*
X134535795Y-73488342I44194J44194D01*
G01*
X135066125Y-72958012D01*
G75*
G02*
X135154513Y-72958012I44194J-44194D01*
G01*
X135242901Y-73046400D01*
G75*
G02*
X135242901Y-73134788I-44194J-44194D01*
G01*
X134712571Y-73665118D01*
G75*
G02*
X134624183Y-73665118I-44194J44194D01*
G01*
G37*
G36*
G01*
X134977736Y-74018671D02*
X134889348Y-73930283D01*
G75*
G02*
X134889348Y-73841895I44194J44194D01*
G01*
X135419678Y-73311565D01*
G75*
G02*
X135508066Y-73311565I44194J-44194D01*
G01*
X135596454Y-73399953D01*
G75*
G02*
X135596454Y-73488341I-44194J-44194D01*
G01*
X135066124Y-74018671D01*
G75*
G02*
X134977736Y-74018671I-44194J44194D01*
G01*
G37*
G36*
G01*
X135331289Y-74372225D02*
X135242901Y-74283837D01*
G75*
G02*
X135242901Y-74195449I44194J44194D01*
G01*
X135773231Y-73665119D01*
G75*
G02*
X135861619Y-73665119I44194J-44194D01*
G01*
X135950007Y-73753507D01*
G75*
G02*
X135950007Y-73841895I-44194J-44194D01*
G01*
X135419677Y-74372225D01*
G75*
G02*
X135331289Y-74372225I-44194J44194D01*
G01*
G37*
G36*
G01*
X135684843Y-74725778D02*
X135596455Y-74637390D01*
G75*
G02*
X135596455Y-74549002I44194J44194D01*
G01*
X136126785Y-74018672D01*
G75*
G02*
X136215173Y-74018672I44194J-44194D01*
G01*
X136303561Y-74107060D01*
G75*
G02*
X136303561Y-74195448I-44194J-44194D01*
G01*
X135773231Y-74725778D01*
G75*
G02*
X135684843Y-74725778I-44194J44194D01*
G01*
G37*
G36*
G01*
X136038396Y-75079332D02*
X135950008Y-74990944D01*
G75*
G02*
X135950008Y-74902556I44194J44194D01*
G01*
X136480338Y-74372226D01*
G75*
G02*
X136568726Y-74372226I44194J-44194D01*
G01*
X136657114Y-74460614D01*
G75*
G02*
X136657114Y-74549002I-44194J-44194D01*
G01*
X136126784Y-75079332D01*
G75*
G02*
X136038396Y-75079332I-44194J44194D01*
G01*
G37*
G36*
G01*
X136391950Y-75432885D02*
X136303562Y-75344497D01*
G75*
G02*
X136303562Y-75256109I44194J44194D01*
G01*
X136833892Y-74725779D01*
G75*
G02*
X136922280Y-74725779I44194J-44194D01*
G01*
X137010668Y-74814167D01*
G75*
G02*
X137010668Y-74902555I-44194J-44194D01*
G01*
X136480338Y-75432885D01*
G75*
G02*
X136391950Y-75432885I-44194J44194D01*
G01*
G37*
G36*
G01*
X136745503Y-75786438D02*
X136657115Y-75698050D01*
G75*
G02*
X136657115Y-75609662I44194J44194D01*
G01*
X137187445Y-75079332D01*
G75*
G02*
X137275833Y-75079332I44194J-44194D01*
G01*
X137364221Y-75167720D01*
G75*
G02*
X137364221Y-75256108I-44194J-44194D01*
G01*
X136833891Y-75786438D01*
G75*
G02*
X136745503Y-75786438I-44194J44194D01*
G01*
G37*
G36*
G01*
X137099056Y-76139992D02*
X137010668Y-76051604D01*
G75*
G02*
X137010668Y-75963216I44194J44194D01*
G01*
X137540998Y-75432886D01*
G75*
G02*
X137629386Y-75432886I44194J-44194D01*
G01*
X137717774Y-75521274D01*
G75*
G02*
X137717774Y-75609662I-44194J-44194D01*
G01*
X137187444Y-76139992D01*
G75*
G02*
X137099056Y-76139992I-44194J44194D01*
G01*
G37*
G36*
G01*
X137452610Y-76493545D02*
X137364222Y-76405157D01*
G75*
G02*
X137364222Y-76316769I44194J44194D01*
G01*
X137894552Y-75786439D01*
G75*
G02*
X137982940Y-75786439I44194J-44194D01*
G01*
X138071328Y-75874827D01*
G75*
G02*
X138071328Y-75963215I-44194J-44194D01*
G01*
X137540998Y-76493545D01*
G75*
G02*
X137452610Y-76493545I-44194J44194D01*
G01*
G37*
G36*
G01*
X137806163Y-76847099D02*
X137717775Y-76758711D01*
G75*
G02*
X137717775Y-76670323I44194J44194D01*
G01*
X138248105Y-76139993D01*
G75*
G02*
X138336493Y-76139993I44194J-44194D01*
G01*
X138424881Y-76228381D01*
G75*
G02*
X138424881Y-76316769I-44194J-44194D01*
G01*
X137894551Y-76847099D01*
G75*
G02*
X137806163Y-76847099I-44194J44194D01*
G01*
G37*
G36*
G01*
X138159717Y-77200652D02*
X138071329Y-77112264D01*
G75*
G02*
X138071329Y-77023876I44194J44194D01*
G01*
X138601659Y-76493546D01*
G75*
G02*
X138690047Y-76493546I44194J-44194D01*
G01*
X138778435Y-76581934D01*
G75*
G02*
X138778435Y-76670322I-44194J-44194D01*
G01*
X138248105Y-77200652D01*
G75*
G02*
X138159717Y-77200652I-44194J44194D01*
G01*
G37*
G36*
G01*
X138513270Y-77554205D02*
X138424882Y-77465817D01*
G75*
G02*
X138424882Y-77377429I44194J44194D01*
G01*
X138955212Y-76847099D01*
G75*
G02*
X139043600Y-76847099I44194J-44194D01*
G01*
X139131988Y-76935487D01*
G75*
G02*
X139131988Y-77023875I-44194J-44194D01*
G01*
X138601658Y-77554205D01*
G75*
G02*
X138513270Y-77554205I-44194J44194D01*
G01*
G37*
G36*
G01*
X138866823Y-77907759D02*
X138778435Y-77819371D01*
G75*
G02*
X138778435Y-77730983I44194J44194D01*
G01*
X139308765Y-77200653D01*
G75*
G02*
X139397153Y-77200653I44194J-44194D01*
G01*
X139485541Y-77289041D01*
G75*
G02*
X139485541Y-77377429I-44194J-44194D01*
G01*
X138955211Y-77907759D01*
G75*
G02*
X138866823Y-77907759I-44194J44194D01*
G01*
G37*
G36*
X139671790Y-77546433D02*
G01*
X139682596Y-77540657D01*
X139694320Y-77537101D01*
X139706513Y-77535900D01*
X139718706Y-77537101D01*
X139730430Y-77540657D01*
X139741236Y-77546433D01*
X139750707Y-77554206D01*
X139794273Y-77597772D01*
X139802046Y-77607243D01*
X139807821Y-77618049D01*
X139811378Y-77629773D01*
X139812579Y-77641966D01*
X139812579Y-77731610D01*
X139811378Y-77743804D01*
X139807821Y-77755527D01*
X139802046Y-77766333D01*
X139794273Y-77775804D01*
X139308765Y-78261312D01*
X139299294Y-78269085D01*
X139288488Y-78274861D01*
X139276764Y-78278417D01*
X139264571Y-78279618D01*
X139252378Y-78278417D01*
X139240654Y-78274861D01*
X139229848Y-78269085D01*
X139220377Y-78261312D01*
X139131989Y-78172924D01*
X139124216Y-78163453D01*
X139118440Y-78152647D01*
X139114884Y-78140923D01*
X139113683Y-78128730D01*
X139114884Y-78116537D01*
X139118440Y-78104813D01*
X139124216Y-78094007D01*
X139131989Y-78084536D01*
X139662319Y-77554206D01*
X139671790Y-77546433D01*
G37*
G36*
X140166764Y-77546433D02*
G01*
X140177570Y-77540657D01*
X140189294Y-77537101D01*
X140201487Y-77535900D01*
X140213680Y-77537101D01*
X140225404Y-77540657D01*
X140236210Y-77546433D01*
X140245681Y-77554206D01*
X140776011Y-78084536D01*
X140783784Y-78094007D01*
X140789560Y-78104813D01*
X140793116Y-78116537D01*
X140794317Y-78128730D01*
X140793116Y-78140923D01*
X140789560Y-78152647D01*
X140783784Y-78163453D01*
X140776011Y-78172924D01*
X140687623Y-78261312D01*
X140678152Y-78269085D01*
X140667346Y-78274861D01*
X140655622Y-78278417D01*
X140643429Y-78279618D01*
X140631236Y-78278417D01*
X140619512Y-78274861D01*
X140608706Y-78269085D01*
X140599235Y-78261312D01*
X140113727Y-77775804D01*
X140105954Y-77766333D01*
X140100179Y-77755527D01*
X140096622Y-77743804D01*
X140095421Y-77731610D01*
X140095421Y-77641966D01*
X140096622Y-77629773D01*
X140100179Y-77618049D01*
X140105954Y-77607243D01*
X140113727Y-77597772D01*
X140157293Y-77554206D01*
X140166764Y-77546433D01*
G37*
G36*
G01*
X140952789Y-77907759D02*
X140422459Y-77377429D01*
G75*
G02*
X140422459Y-77289041I44194J44194D01*
G01*
X140510847Y-77200653D01*
G75*
G02*
X140599235Y-77200653I44194J-44194D01*
G01*
X141129565Y-77730983D01*
G75*
G02*
X141129565Y-77819371I-44194J-44194D01*
G01*
X141041177Y-77907759D01*
G75*
G02*
X140952789Y-77907759I-44194J44194D01*
G01*
G37*
G36*
G01*
X141306342Y-77554205D02*
X140776012Y-77023875D01*
G75*
G02*
X140776012Y-76935487I44194J44194D01*
G01*
X140864400Y-76847099D01*
G75*
G02*
X140952788Y-76847099I44194J-44194D01*
G01*
X141483118Y-77377429D01*
G75*
G02*
X141483118Y-77465817I-44194J-44194D01*
G01*
X141394730Y-77554205D01*
G75*
G02*
X141306342Y-77554205I-44194J44194D01*
G01*
G37*
G36*
G01*
X141659895Y-77200652D02*
X141129565Y-76670322D01*
G75*
G02*
X141129565Y-76581934I44194J44194D01*
G01*
X141217953Y-76493546D01*
G75*
G02*
X141306341Y-76493546I44194J-44194D01*
G01*
X141836671Y-77023876D01*
G75*
G02*
X141836671Y-77112264I-44194J-44194D01*
G01*
X141748283Y-77200652D01*
G75*
G02*
X141659895Y-77200652I-44194J44194D01*
G01*
G37*
G36*
G01*
X142013449Y-76847099D02*
X141483119Y-76316769D01*
G75*
G02*
X141483119Y-76228381I44194J44194D01*
G01*
X141571507Y-76139993D01*
G75*
G02*
X141659895Y-76139993I44194J-44194D01*
G01*
X142190225Y-76670323D01*
G75*
G02*
X142190225Y-76758711I-44194J-44194D01*
G01*
X142101837Y-76847099D01*
G75*
G02*
X142013449Y-76847099I-44194J44194D01*
G01*
G37*
G36*
G01*
X142367002Y-76493545D02*
X141836672Y-75963215D01*
G75*
G02*
X141836672Y-75874827I44194J44194D01*
G01*
X141925060Y-75786439D01*
G75*
G02*
X142013448Y-75786439I44194J-44194D01*
G01*
X142543778Y-76316769D01*
G75*
G02*
X142543778Y-76405157I-44194J-44194D01*
G01*
X142455390Y-76493545D01*
G75*
G02*
X142367002Y-76493545I-44194J44194D01*
G01*
G37*
G36*
G01*
X142720556Y-76139992D02*
X142190226Y-75609662D01*
G75*
G02*
X142190226Y-75521274I44194J44194D01*
G01*
X142278614Y-75432886D01*
G75*
G02*
X142367002Y-75432886I44194J-44194D01*
G01*
X142897332Y-75963216D01*
G75*
G02*
X142897332Y-76051604I-44194J-44194D01*
G01*
X142808944Y-76139992D01*
G75*
G02*
X142720556Y-76139992I-44194J44194D01*
G01*
G37*
G36*
G01*
X143074109Y-75786438D02*
X142543779Y-75256108D01*
G75*
G02*
X142543779Y-75167720I44194J44194D01*
G01*
X142632167Y-75079332D01*
G75*
G02*
X142720555Y-75079332I44194J-44194D01*
G01*
X143250885Y-75609662D01*
G75*
G02*
X143250885Y-75698050I-44194J-44194D01*
G01*
X143162497Y-75786438D01*
G75*
G02*
X143074109Y-75786438I-44194J44194D01*
G01*
G37*
G36*
G01*
X143427662Y-75432885D02*
X142897332Y-74902555D01*
G75*
G02*
X142897332Y-74814167I44194J44194D01*
G01*
X142985720Y-74725779D01*
G75*
G02*
X143074108Y-74725779I44194J-44194D01*
G01*
X143604438Y-75256109D01*
G75*
G02*
X143604438Y-75344497I-44194J-44194D01*
G01*
X143516050Y-75432885D01*
G75*
G02*
X143427662Y-75432885I-44194J44194D01*
G01*
G37*
G36*
G01*
X143781216Y-75079332D02*
X143250886Y-74549002D01*
G75*
G02*
X143250886Y-74460614I44194J44194D01*
G01*
X143339274Y-74372226D01*
G75*
G02*
X143427662Y-74372226I44194J-44194D01*
G01*
X143957992Y-74902556D01*
G75*
G02*
X143957992Y-74990944I-44194J-44194D01*
G01*
X143869604Y-75079332D01*
G75*
G02*
X143781216Y-75079332I-44194J44194D01*
G01*
G37*
G36*
G01*
X144134769Y-74725778D02*
X143604439Y-74195448D01*
G75*
G02*
X143604439Y-74107060I44194J44194D01*
G01*
X143692827Y-74018672D01*
G75*
G02*
X143781215Y-74018672I44194J-44194D01*
G01*
X144311545Y-74549002D01*
G75*
G02*
X144311545Y-74637390I-44194J-44194D01*
G01*
X144223157Y-74725778D01*
G75*
G02*
X144134769Y-74725778I-44194J44194D01*
G01*
G37*
G36*
G01*
X144488323Y-74372225D02*
X143957993Y-73841895D01*
G75*
G02*
X143957993Y-73753507I44194J44194D01*
G01*
X144046381Y-73665119D01*
G75*
G02*
X144134769Y-73665119I44194J-44194D01*
G01*
X144665099Y-74195449D01*
G75*
G02*
X144665099Y-74283837I-44194J-44194D01*
G01*
X144576711Y-74372225D01*
G75*
G02*
X144488323Y-74372225I-44194J44194D01*
G01*
G37*
G36*
G01*
X144841876Y-74018671D02*
X144311546Y-73488341D01*
G75*
G02*
X144311546Y-73399953I44194J44194D01*
G01*
X144399934Y-73311565D01*
G75*
G02*
X144488322Y-73311565I44194J-44194D01*
G01*
X145018652Y-73841895D01*
G75*
G02*
X145018652Y-73930283I-44194J-44194D01*
G01*
X144930264Y-74018671D01*
G75*
G02*
X144841876Y-74018671I-44194J44194D01*
G01*
G37*
G36*
G01*
X145195429Y-73665118D02*
X144665099Y-73134788D01*
G75*
G02*
X144665099Y-73046400I44194J44194D01*
G01*
X144753487Y-72958012D01*
G75*
G02*
X144841875Y-72958012I44194J-44194D01*
G01*
X145372205Y-73488342D01*
G75*
G02*
X145372205Y-73576730I-44194J-44194D01*
G01*
X145283817Y-73665118D01*
G75*
G02*
X145195429Y-73665118I-44194J44194D01*
G01*
G37*
G36*
G01*
X145548983Y-73311565D02*
X145018653Y-72781235D01*
G75*
G02*
X145018653Y-72692847I44194J44194D01*
G01*
X145107041Y-72604459D01*
G75*
G02*
X145195429Y-72604459I44194J-44194D01*
G01*
X145725759Y-73134789D01*
G75*
G02*
X145725759Y-73223177I-44194J-44194D01*
G01*
X145637371Y-73311565D01*
G75*
G02*
X145548983Y-73311565I-44194J44194D01*
G01*
G37*
G36*
X145425243Y-72287954D02*
G01*
X145436049Y-72282179D01*
X145447773Y-72278622D01*
X145459966Y-72277421D01*
X145549610Y-72277421D01*
X145561804Y-72278622D01*
X145573527Y-72282179D01*
X145584333Y-72287954D01*
X145593804Y-72295727D01*
X146079312Y-72781235D01*
X146087085Y-72790706D01*
X146092861Y-72801512D01*
X146096417Y-72813236D01*
X146097618Y-72825429D01*
X146096417Y-72837622D01*
X146092861Y-72849346D01*
X146087085Y-72860152D01*
X146079312Y-72869623D01*
X145990924Y-72958011D01*
X145981453Y-72965784D01*
X145970647Y-72971560D01*
X145958923Y-72975116D01*
X145946730Y-72976317D01*
X145934537Y-72975116D01*
X145922813Y-72971560D01*
X145912007Y-72965784D01*
X145902536Y-72958011D01*
X145372206Y-72427681D01*
X145364433Y-72418210D01*
X145358657Y-72407404D01*
X145355101Y-72395680D01*
X145353900Y-72383487D01*
X145355101Y-72371294D01*
X145358657Y-72359570D01*
X145364433Y-72348764D01*
X145372206Y-72339293D01*
X145415772Y-72295727D01*
X145425243Y-72287954D01*
G37*
G36*
X145912007Y-71306216D02*
G01*
X145922813Y-71300440D01*
X145934537Y-71296884D01*
X145946730Y-71295683D01*
X145958923Y-71296884D01*
X145970647Y-71300440D01*
X145981453Y-71306216D01*
X145990924Y-71313989D01*
X146079312Y-71402377D01*
X146087085Y-71411848D01*
X146092861Y-71422654D01*
X146096417Y-71434378D01*
X146097618Y-71446571D01*
X146096417Y-71458764D01*
X146092861Y-71470488D01*
X146087085Y-71481294D01*
X146079312Y-71490765D01*
X145593804Y-71976273D01*
X145584333Y-71984046D01*
X145573527Y-71989821D01*
X145561804Y-71993378D01*
X145549610Y-71994579D01*
X145459966Y-71994579D01*
X145447773Y-71993378D01*
X145436049Y-71989821D01*
X145425243Y-71984046D01*
X145415772Y-71976273D01*
X145372206Y-71932707D01*
X145364433Y-71923236D01*
X145358657Y-71912430D01*
X145355101Y-71900706D01*
X145353900Y-71888513D01*
X145355101Y-71876320D01*
X145358657Y-71864596D01*
X145364433Y-71853790D01*
X145372206Y-71844319D01*
X145902536Y-71313989D01*
X145912007Y-71306216D01*
G37*
G36*
G01*
X145107041Y-71667541D02*
X145018653Y-71579153D01*
G75*
G02*
X145018653Y-71490765I44194J44194D01*
G01*
X145548983Y-70960435D01*
G75*
G02*
X145637371Y-70960435I44194J-44194D01*
G01*
X145725759Y-71048823D01*
G75*
G02*
X145725759Y-71137211I-44194J-44194D01*
G01*
X145195429Y-71667541D01*
G75*
G02*
X145107041Y-71667541I-44194J44194D01*
G01*
G37*
G36*
G01*
X144753487Y-71313988D02*
X144665099Y-71225600D01*
G75*
G02*
X144665099Y-71137212I44194J44194D01*
G01*
X145195429Y-70606882D01*
G75*
G02*
X145283817Y-70606882I44194J-44194D01*
G01*
X145372205Y-70695270D01*
G75*
G02*
X145372205Y-70783658I-44194J-44194D01*
G01*
X144841875Y-71313988D01*
G75*
G02*
X144753487Y-71313988I-44194J44194D01*
G01*
G37*
G36*
G01*
X144399934Y-70960435D02*
X144311546Y-70872047D01*
G75*
G02*
X144311546Y-70783659I44194J44194D01*
G01*
X144841876Y-70253329D01*
G75*
G02*
X144930264Y-70253329I44194J-44194D01*
G01*
X145018652Y-70341717D01*
G75*
G02*
X145018652Y-70430105I-44194J-44194D01*
G01*
X144488322Y-70960435D01*
G75*
G02*
X144399934Y-70960435I-44194J44194D01*
G01*
G37*
G36*
G01*
X144046381Y-70606881D02*
X143957993Y-70518493D01*
G75*
G02*
X143957993Y-70430105I44194J44194D01*
G01*
X144488323Y-69899775D01*
G75*
G02*
X144576711Y-69899775I44194J-44194D01*
G01*
X144665099Y-69988163D01*
G75*
G02*
X144665099Y-70076551I-44194J-44194D01*
G01*
X144134769Y-70606881D01*
G75*
G02*
X144046381Y-70606881I-44194J44194D01*
G01*
G37*
G36*
G01*
X143692827Y-70253328D02*
X143604439Y-70164940D01*
G75*
G02*
X143604439Y-70076552I44194J44194D01*
G01*
X144134769Y-69546222D01*
G75*
G02*
X144223157Y-69546222I44194J-44194D01*
G01*
X144311545Y-69634610D01*
G75*
G02*
X144311545Y-69722998I-44194J-44194D01*
G01*
X143781215Y-70253328D01*
G75*
G02*
X143692827Y-70253328I-44194J44194D01*
G01*
G37*
G36*
G01*
X143339274Y-69899774D02*
X143250886Y-69811386D01*
G75*
G02*
X143250886Y-69722998I44194J44194D01*
G01*
X143781216Y-69192668D01*
G75*
G02*
X143869604Y-69192668I44194J-44194D01*
G01*
X143957992Y-69281056D01*
G75*
G02*
X143957992Y-69369444I-44194J-44194D01*
G01*
X143427662Y-69899774D01*
G75*
G02*
X143339274Y-69899774I-44194J44194D01*
G01*
G37*
G36*
G01*
X142985720Y-69546221D02*
X142897332Y-69457833D01*
G75*
G02*
X142897332Y-69369445I44194J44194D01*
G01*
X143427662Y-68839115D01*
G75*
G02*
X143516050Y-68839115I44194J-44194D01*
G01*
X143604438Y-68927503D01*
G75*
G02*
X143604438Y-69015891I-44194J-44194D01*
G01*
X143074108Y-69546221D01*
G75*
G02*
X142985720Y-69546221I-44194J44194D01*
G01*
G37*
G36*
G01*
X142632167Y-69192668D02*
X142543779Y-69104280D01*
G75*
G02*
X142543779Y-69015892I44194J44194D01*
G01*
X143074109Y-68485562D01*
G75*
G02*
X143162497Y-68485562I44194J-44194D01*
G01*
X143250885Y-68573950D01*
G75*
G02*
X143250885Y-68662338I-44194J-44194D01*
G01*
X142720555Y-69192668D01*
G75*
G02*
X142632167Y-69192668I-44194J44194D01*
G01*
G37*
G36*
G01*
X142278614Y-68839114D02*
X142190226Y-68750726D01*
G75*
G02*
X142190226Y-68662338I44194J44194D01*
G01*
X142720556Y-68132008D01*
G75*
G02*
X142808944Y-68132008I44194J-44194D01*
G01*
X142897332Y-68220396D01*
G75*
G02*
X142897332Y-68308784I-44194J-44194D01*
G01*
X142367002Y-68839114D01*
G75*
G02*
X142278614Y-68839114I-44194J44194D01*
G01*
G37*
G36*
G01*
X141925060Y-68485561D02*
X141836672Y-68397173D01*
G75*
G02*
X141836672Y-68308785I44194J44194D01*
G01*
X142367002Y-67778455D01*
G75*
G02*
X142455390Y-67778455I44194J-44194D01*
G01*
X142543778Y-67866843D01*
G75*
G02*
X142543778Y-67955231I-44194J-44194D01*
G01*
X142013448Y-68485561D01*
G75*
G02*
X141925060Y-68485561I-44194J44194D01*
G01*
G37*
G36*
G01*
X141571507Y-68132007D02*
X141483119Y-68043619D01*
G75*
G02*
X141483119Y-67955231I44194J44194D01*
G01*
X142013449Y-67424901D01*
G75*
G02*
X142101837Y-67424901I44194J-44194D01*
G01*
X142190225Y-67513289D01*
G75*
G02*
X142190225Y-67601677I-44194J-44194D01*
G01*
X141659895Y-68132007D01*
G75*
G02*
X141571507Y-68132007I-44194J44194D01*
G01*
G37*
G36*
G01*
X141217953Y-67778454D02*
X141129565Y-67690066D01*
G75*
G02*
X141129565Y-67601678I44194J44194D01*
G01*
X141659895Y-67071348D01*
G75*
G02*
X141748283Y-67071348I44194J-44194D01*
G01*
X141836671Y-67159736D01*
G75*
G02*
X141836671Y-67248124I-44194J-44194D01*
G01*
X141306341Y-67778454D01*
G75*
G02*
X141217953Y-67778454I-44194J44194D01*
G01*
G37*
G36*
G01*
X140864400Y-67424901D02*
X140776012Y-67336513D01*
G75*
G02*
X140776012Y-67248125I44194J44194D01*
G01*
X141306342Y-66717795D01*
G75*
G02*
X141394730Y-66717795I44194J-44194D01*
G01*
X141483118Y-66806183D01*
G75*
G02*
X141483118Y-66894571I-44194J-44194D01*
G01*
X140952788Y-67424901D01*
G75*
G02*
X140864400Y-67424901I-44194J44194D01*
G01*
G37*
G36*
G01*
X140510847Y-67071347D02*
X140422459Y-66982959D01*
G75*
G02*
X140422459Y-66894571I44194J44194D01*
G01*
X140952789Y-66364241D01*
G75*
G02*
X141041177Y-66364241I44194J-44194D01*
G01*
X141129565Y-66452629D01*
G75*
G02*
X141129565Y-66541017I-44194J-44194D01*
G01*
X140599235Y-67071347D01*
G75*
G02*
X140510847Y-67071347I-44194J44194D01*
G01*
G37*
G36*
X140608706Y-66002915D02*
G01*
X140619512Y-65997139D01*
X140631236Y-65993583D01*
X140643429Y-65992382D01*
X140655622Y-65993583D01*
X140667346Y-65997139D01*
X140678152Y-66002915D01*
X140687623Y-66010688D01*
X140776011Y-66099076D01*
X140783784Y-66108547D01*
X140789560Y-66119353D01*
X140793116Y-66131077D01*
X140794317Y-66143270D01*
X140793116Y-66155463D01*
X140789560Y-66167187D01*
X140783784Y-66177993D01*
X140776011Y-66187464D01*
X140245681Y-66717794D01*
X140236210Y-66725567D01*
X140225404Y-66731343D01*
X140213680Y-66734899D01*
X140201487Y-66736100D01*
X140189294Y-66734899D01*
X140177570Y-66731343D01*
X140166764Y-66725567D01*
X140157293Y-66717794D01*
X140113727Y-66674228D01*
X140105954Y-66664757D01*
X140100179Y-66653951D01*
X140096622Y-66642227D01*
X140095421Y-66630034D01*
X140095421Y-66540390D01*
X140096622Y-66528196D01*
X140100179Y-66516473D01*
X140105954Y-66505667D01*
X140113727Y-66496196D01*
X140599235Y-66010688D01*
X140608706Y-66002915D01*
G37*
G36*
X139229848Y-66002915D02*
G01*
X139240654Y-65997139D01*
X139252378Y-65993583D01*
X139264571Y-65992382D01*
X139276764Y-65993583D01*
X139288488Y-65997139D01*
X139299294Y-66002915D01*
X139308765Y-66010688D01*
X139794273Y-66496196D01*
X139802046Y-66505667D01*
X139807821Y-66516473D01*
X139811378Y-66528196D01*
X139812579Y-66540390D01*
X139812579Y-66630034D01*
X139811378Y-66642227D01*
X139807821Y-66653951D01*
X139802046Y-66664757D01*
X139794273Y-66674228D01*
X139750707Y-66717794D01*
X139741236Y-66725567D01*
X139730430Y-66731343D01*
X139718706Y-66734899D01*
X139706513Y-66736100D01*
X139694320Y-66734899D01*
X139682596Y-66731343D01*
X139671790Y-66725567D01*
X139662319Y-66717794D01*
X139131989Y-66187464D01*
X139124216Y-66177993D01*
X139118440Y-66167187D01*
X139114884Y-66155463D01*
X139113683Y-66143270D01*
X139114884Y-66131077D01*
X139118440Y-66119353D01*
X139124216Y-66108547D01*
X139131989Y-66099076D01*
X139220377Y-66010688D01*
X139229848Y-66002915D01*
G37*
G36*
G01*
X139308765Y-67071347D02*
X138778435Y-66541017D01*
G75*
G02*
X138778435Y-66452629I44194J44194D01*
G01*
X138866823Y-66364241D01*
G75*
G02*
X138955211Y-66364241I44194J-44194D01*
G01*
X139485541Y-66894571D01*
G75*
G02*
X139485541Y-66982959I-44194J-44194D01*
G01*
X139397153Y-67071347D01*
G75*
G02*
X139308765Y-67071347I-44194J44194D01*
G01*
G37*
G36*
G01*
X138955212Y-67424901D02*
X138424882Y-66894571D01*
G75*
G02*
X138424882Y-66806183I44194J44194D01*
G01*
X138513270Y-66717795D01*
G75*
G02*
X138601658Y-66717795I44194J-44194D01*
G01*
X139131988Y-67248125D01*
G75*
G02*
X139131988Y-67336513I-44194J-44194D01*
G01*
X139043600Y-67424901D01*
G75*
G02*
X138955212Y-67424901I-44194J44194D01*
G01*
G37*
G36*
G01*
X138601659Y-67778454D02*
X138071329Y-67248124D01*
G75*
G02*
X138071329Y-67159736I44194J44194D01*
G01*
X138159717Y-67071348D01*
G75*
G02*
X138248105Y-67071348I44194J-44194D01*
G01*
X138778435Y-67601678D01*
G75*
G02*
X138778435Y-67690066I-44194J-44194D01*
G01*
X138690047Y-67778454D01*
G75*
G02*
X138601659Y-67778454I-44194J44194D01*
G01*
G37*
G36*
G01*
X138248105Y-68132007D02*
X137717775Y-67601677D01*
G75*
G02*
X137717775Y-67513289I44194J44194D01*
G01*
X137806163Y-67424901D01*
G75*
G02*
X137894551Y-67424901I44194J-44194D01*
G01*
X138424881Y-67955231D01*
G75*
G02*
X138424881Y-68043619I-44194J-44194D01*
G01*
X138336493Y-68132007D01*
G75*
G02*
X138248105Y-68132007I-44194J44194D01*
G01*
G37*
G36*
G01*
X137894552Y-68485561D02*
X137364222Y-67955231D01*
G75*
G02*
X137364222Y-67866843I44194J44194D01*
G01*
X137452610Y-67778455D01*
G75*
G02*
X137540998Y-67778455I44194J-44194D01*
G01*
X138071328Y-68308785D01*
G75*
G02*
X138071328Y-68397173I-44194J-44194D01*
G01*
X137982940Y-68485561D01*
G75*
G02*
X137894552Y-68485561I-44194J44194D01*
G01*
G37*
G36*
G01*
X137540998Y-68839114D02*
X137010668Y-68308784D01*
G75*
G02*
X137010668Y-68220396I44194J44194D01*
G01*
X137099056Y-68132008D01*
G75*
G02*
X137187444Y-68132008I44194J-44194D01*
G01*
X137717774Y-68662338D01*
G75*
G02*
X137717774Y-68750726I-44194J-44194D01*
G01*
X137629386Y-68839114D01*
G75*
G02*
X137540998Y-68839114I-44194J44194D01*
G01*
G37*
G36*
G01*
X137187445Y-69192668D02*
X136657115Y-68662338D01*
G75*
G02*
X136657115Y-68573950I44194J44194D01*
G01*
X136745503Y-68485562D01*
G75*
G02*
X136833891Y-68485562I44194J-44194D01*
G01*
X137364221Y-69015892D01*
G75*
G02*
X137364221Y-69104280I-44194J-44194D01*
G01*
X137275833Y-69192668D01*
G75*
G02*
X137187445Y-69192668I-44194J44194D01*
G01*
G37*
G36*
G01*
X136833892Y-69546221D02*
X136303562Y-69015891D01*
G75*
G02*
X136303562Y-68927503I44194J44194D01*
G01*
X136391950Y-68839115D01*
G75*
G02*
X136480338Y-68839115I44194J-44194D01*
G01*
X137010668Y-69369445D01*
G75*
G02*
X137010668Y-69457833I-44194J-44194D01*
G01*
X136922280Y-69546221D01*
G75*
G02*
X136833892Y-69546221I-44194J44194D01*
G01*
G37*
G36*
G01*
X136480338Y-69899774D02*
X135950008Y-69369444D01*
G75*
G02*
X135950008Y-69281056I44194J44194D01*
G01*
X136038396Y-69192668D01*
G75*
G02*
X136126784Y-69192668I44194J-44194D01*
G01*
X136657114Y-69722998D01*
G75*
G02*
X136657114Y-69811386I-44194J-44194D01*
G01*
X136568726Y-69899774D01*
G75*
G02*
X136480338Y-69899774I-44194J44194D01*
G01*
G37*
G36*
G01*
X136126785Y-70253328D02*
X135596455Y-69722998D01*
G75*
G02*
X135596455Y-69634610I44194J44194D01*
G01*
X135684843Y-69546222D01*
G75*
G02*
X135773231Y-69546222I44194J-44194D01*
G01*
X136303561Y-70076552D01*
G75*
G02*
X136303561Y-70164940I-44194J-44194D01*
G01*
X136215173Y-70253328D01*
G75*
G02*
X136126785Y-70253328I-44194J44194D01*
G01*
G37*
G36*
G01*
X135773231Y-70606881D02*
X135242901Y-70076551D01*
G75*
G02*
X135242901Y-69988163I44194J44194D01*
G01*
X135331289Y-69899775D01*
G75*
G02*
X135419677Y-69899775I44194J-44194D01*
G01*
X135950007Y-70430105D01*
G75*
G02*
X135950007Y-70518493I-44194J-44194D01*
G01*
X135861619Y-70606881D01*
G75*
G02*
X135773231Y-70606881I-44194J44194D01*
G01*
G37*
G36*
G01*
X135419678Y-70960435D02*
X134889348Y-70430105D01*
G75*
G02*
X134889348Y-70341717I44194J44194D01*
G01*
X134977736Y-70253329D01*
G75*
G02*
X135066124Y-70253329I44194J-44194D01*
G01*
X135596454Y-70783659D01*
G75*
G02*
X135596454Y-70872047I-44194J-44194D01*
G01*
X135508066Y-70960435D01*
G75*
G02*
X135419678Y-70960435I-44194J44194D01*
G01*
G37*
G36*
G01*
X135066125Y-71313988D02*
X134535795Y-70783658D01*
G75*
G02*
X134535795Y-70695270I44194J44194D01*
G01*
X134624183Y-70606882D01*
G75*
G02*
X134712571Y-70606882I44194J-44194D01*
G01*
X135242901Y-71137212D01*
G75*
G02*
X135242901Y-71225600I-44194J-44194D01*
G01*
X135154513Y-71313988D01*
G75*
G02*
X135066125Y-71313988I-44194J44194D01*
G01*
G37*
G36*
G01*
X134712571Y-71667541D02*
X134182241Y-71137211D01*
G75*
G02*
X134182241Y-71048823I44194J44194D01*
G01*
X134270629Y-70960435D01*
G75*
G02*
X134359017Y-70960435I44194J-44194D01*
G01*
X134889347Y-71490765D01*
G75*
G02*
X134889347Y-71579153I-44194J-44194D01*
G01*
X134800959Y-71667541D01*
G75*
G02*
X134712571Y-71667541I-44194J44194D01*
G01*
G37*
G36*
X133926547Y-71306216D02*
G01*
X133937353Y-71300440D01*
X133949077Y-71296884D01*
X133961270Y-71295683D01*
X133973463Y-71296884D01*
X133985187Y-71300440D01*
X133995993Y-71306216D01*
X134005464Y-71313989D01*
X134535794Y-71844319D01*
X134543567Y-71853790D01*
X134549343Y-71864596D01*
X134552899Y-71876320D01*
X134554100Y-71888513D01*
X134552899Y-71900706D01*
X134549343Y-71912430D01*
X134543567Y-71923236D01*
X134535794Y-71932707D01*
X134492228Y-71976273D01*
X134482757Y-71984046D01*
X134471951Y-71989821D01*
X134460227Y-71993378D01*
X134448034Y-71994579D01*
X134358390Y-71994579D01*
X134346196Y-71993378D01*
X134334473Y-71989821D01*
X134323667Y-71984046D01*
X134314196Y-71976273D01*
X133828688Y-71490765D01*
X133820915Y-71481294D01*
X133815139Y-71470488D01*
X133811583Y-71458764D01*
X133810382Y-71446571D01*
X133811583Y-71434378D01*
X133815139Y-71422654D01*
X133820915Y-71411848D01*
X133828688Y-71402377D01*
X133917076Y-71313989D01*
X133926547Y-71306216D01*
G37*
G36*
X139954000Y-77439301D02*
G01*
X134650699Y-72136000D01*
X139954000Y-66832699D01*
X145257301Y-72136000D01*
X139954000Y-77439301D01*
G37*
%TD*%
%TO.C,R3*%
G36*
G01*
X142554104Y-77529267D02*
X142815733Y-77790896D01*
G75*
G02*
X142815733Y-77981814I-95459J-95459D01*
G01*
X142624814Y-78172733D01*
G75*
G02*
X142433896Y-78172733I-95459J95459D01*
G01*
X142172267Y-77911104D01*
G75*
G02*
X142172267Y-77720186I95459J95459D01*
G01*
X142363186Y-77529267D01*
G75*
G02*
X142554104Y-77529267I95459J-95459D01*
G01*
G37*
G36*
G01*
X143275352Y-76808019D02*
X143536981Y-77069648D01*
G75*
G02*
X143536981Y-77260566I-95459J-95459D01*
G01*
X143346062Y-77451485D01*
G75*
G02*
X143155144Y-77451485I-95459J95459D01*
G01*
X142893515Y-77189856D01*
G75*
G02*
X142893515Y-76998938I95459J95459D01*
G01*
X143084434Y-76808019D01*
G75*
G02*
X143275352Y-76808019I95459J-95459D01*
G01*
G37*
%TD*%
%TO.C,D2*%
G36*
G01*
X125496500Y-70052250D02*
X125496500Y-69139750D01*
G75*
G02*
X125740250Y-68896000I243750J0D01*
G01*
X126227750Y-68896000D01*
G75*
G02*
X126471500Y-69139750I0J-243750D01*
G01*
X126471500Y-70052250D01*
G75*
G02*
X126227750Y-70296000I-243750J0D01*
G01*
X125740250Y-70296000D01*
G75*
G02*
X125496500Y-70052250I0J243750D01*
G01*
G37*
G36*
G01*
X123621500Y-70052250D02*
X123621500Y-69139750D01*
G75*
G02*
X123865250Y-68896000I243750J0D01*
G01*
X124352750Y-68896000D01*
G75*
G02*
X124596500Y-69139750I0J-243750D01*
G01*
X124596500Y-70052250D01*
G75*
G02*
X124352750Y-70296000I-243750J0D01*
G01*
X123865250Y-70296000D01*
G75*
G02*
X123621500Y-70052250I0J243750D01*
G01*
G37*
%TD*%
D11*
%TO.C,J3*%
X171704000Y-64516000D03*
X169164000Y-64516000D03*
X166624000Y-64516000D03*
X164084000Y-64516000D03*
X161544000Y-64516000D03*
X159004000Y-64516000D03*
X156464000Y-64516000D03*
X153924000Y-64516000D03*
X151384000Y-64516000D03*
X148844000Y-64516000D03*
X146304000Y-64516000D03*
X143764000Y-64516000D03*
X141224000Y-64516000D03*
X138684000Y-64516000D03*
X136144000Y-64516000D03*
X133604000Y-64516000D03*
X131064000Y-64516000D03*
X128524000Y-64516000D03*
X125984000Y-64516000D03*
X123444000Y-64516000D03*
X120904000Y-64516000D03*
X118364000Y-64516000D03*
X115824000Y-64516000D03*
X113284000Y-64516000D03*
X110744000Y-64516000D03*
D12*
X108204000Y-64516000D03*
%TD*%
%TO.C,C4*%
G36*
G01*
X131783000Y-71376000D02*
X132123000Y-71376000D01*
G75*
G02*
X132263000Y-71516000I0J-140000D01*
G01*
X132263000Y-71796000D01*
G75*
G02*
X132123000Y-71936000I-140000J0D01*
G01*
X131783000Y-71936000D01*
G75*
G02*
X131643000Y-71796000I0J140000D01*
G01*
X131643000Y-71516000D01*
G75*
G02*
X131783000Y-71376000I140000J0D01*
G01*
G37*
G36*
G01*
X131783000Y-72336000D02*
X132123000Y-72336000D01*
G75*
G02*
X132263000Y-72476000I0J-140000D01*
G01*
X132263000Y-72756000D01*
G75*
G02*
X132123000Y-72896000I-140000J0D01*
G01*
X131783000Y-72896000D01*
G75*
G02*
X131643000Y-72756000I0J140000D01*
G01*
X131643000Y-72476000D01*
G75*
G02*
X131783000Y-72336000I140000J0D01*
G01*
G37*
%TD*%
%TO.C,C5*%
G36*
G01*
X118221999Y-72987000D02*
X119522001Y-72987000D01*
G75*
G02*
X119772000Y-73236999I0J-249999D01*
G01*
X119772000Y-73887001D01*
G75*
G02*
X119522001Y-74137000I-249999J0D01*
G01*
X118221999Y-74137000D01*
G75*
G02*
X117972000Y-73887001I0J249999D01*
G01*
X117972000Y-73236999D01*
G75*
G02*
X118221999Y-72987000I249999J0D01*
G01*
G37*
G36*
G01*
X118221999Y-70037000D02*
X119522001Y-70037000D01*
G75*
G02*
X119772000Y-70286999I0J-249999D01*
G01*
X119772000Y-70937001D01*
G75*
G02*
X119522001Y-71187000I-249999J0D01*
G01*
X118221999Y-71187000D01*
G75*
G02*
X117972000Y-70937001I0J249999D01*
G01*
X117972000Y-70286999D01*
G75*
G02*
X118221999Y-70037000I249999J0D01*
G01*
G37*
%TD*%
D13*
%TO.C,Y1*%
X149684000Y-73066000D03*
X149684000Y-70866000D03*
X151384000Y-70866000D03*
X151384000Y-73066000D03*
%TD*%
D14*
%TO.C,SW1*%
X170688000Y-69436000D03*
X170688000Y-74836000D03*
%TD*%
%TO.C,R5*%
G36*
G01*
X128286000Y-69411000D02*
X128286000Y-69781000D01*
G75*
G02*
X128151000Y-69916000I-135000J0D01*
G01*
X127881000Y-69916000D01*
G75*
G02*
X127746000Y-69781000I0J135000D01*
G01*
X127746000Y-69411000D01*
G75*
G02*
X127881000Y-69276000I135000J0D01*
G01*
X128151000Y-69276000D01*
G75*
G02*
X128286000Y-69411000I0J-135000D01*
G01*
G37*
G36*
G01*
X129306000Y-69411000D02*
X129306000Y-69781000D01*
G75*
G02*
X129171000Y-69916000I-135000J0D01*
G01*
X128901000Y-69916000D01*
G75*
G02*
X128766000Y-69781000I0J135000D01*
G01*
X128766000Y-69411000D01*
G75*
G02*
X128901000Y-69276000I135000J0D01*
G01*
X129171000Y-69276000D01*
G75*
G02*
X129306000Y-69411000I0J-135000D01*
G01*
G37*
%TD*%
%TO.C,R4*%
G36*
G01*
X128284000Y-74491000D02*
X128284000Y-74861000D01*
G75*
G02*
X128149000Y-74996000I-135000J0D01*
G01*
X127879000Y-74996000D01*
G75*
G02*
X127744000Y-74861000I0J135000D01*
G01*
X127744000Y-74491000D01*
G75*
G02*
X127879000Y-74356000I135000J0D01*
G01*
X128149000Y-74356000D01*
G75*
G02*
X128284000Y-74491000I0J-135000D01*
G01*
G37*
G36*
G01*
X129304000Y-74491000D02*
X129304000Y-74861000D01*
G75*
G02*
X129169000Y-74996000I-135000J0D01*
G01*
X128899000Y-74996000D01*
G75*
G02*
X128764000Y-74861000I0J135000D01*
G01*
X128764000Y-74491000D01*
G75*
G02*
X128899000Y-74356000I135000J0D01*
G01*
X129169000Y-74356000D01*
G75*
G02*
X129304000Y-74491000I0J-135000D01*
G01*
G37*
%TD*%
%TO.C,R2*%
G36*
G01*
X121654000Y-71813000D02*
X121654000Y-71443000D01*
G75*
G02*
X121789000Y-71308000I135000J0D01*
G01*
X122059000Y-71308000D01*
G75*
G02*
X122194000Y-71443000I0J-135000D01*
G01*
X122194000Y-71813000D01*
G75*
G02*
X122059000Y-71948000I-135000J0D01*
G01*
X121789000Y-71948000D01*
G75*
G02*
X121654000Y-71813000I0J135000D01*
G01*
G37*
G36*
G01*
X120634000Y-71813000D02*
X120634000Y-71443000D01*
G75*
G02*
X120769000Y-71308000I135000J0D01*
G01*
X121039000Y-71308000D01*
G75*
G02*
X121174000Y-71443000I0J-135000D01*
G01*
X121174000Y-71813000D01*
G75*
G02*
X121039000Y-71948000I-135000J0D01*
G01*
X120769000Y-71948000D01*
G75*
G02*
X120634000Y-71813000I0J135000D01*
G01*
G37*
%TD*%
%TO.C,R1*%
G36*
G01*
X121174000Y-72459000D02*
X121174000Y-72829000D01*
G75*
G02*
X121039000Y-72964000I-135000J0D01*
G01*
X120769000Y-72964000D01*
G75*
G02*
X120634000Y-72829000I0J135000D01*
G01*
X120634000Y-72459000D01*
G75*
G02*
X120769000Y-72324000I135000J0D01*
G01*
X121039000Y-72324000D01*
G75*
G02*
X121174000Y-72459000I0J-135000D01*
G01*
G37*
G36*
G01*
X122194000Y-72459000D02*
X122194000Y-72829000D01*
G75*
G02*
X122059000Y-72964000I-135000J0D01*
G01*
X121789000Y-72964000D01*
G75*
G02*
X121654000Y-72829000I0J135000D01*
G01*
X121654000Y-72459000D01*
G75*
G02*
X121789000Y-72324000I135000J0D01*
G01*
X122059000Y-72324000D01*
G75*
G02*
X122194000Y-72459000I0J-135000D01*
G01*
G37*
%TD*%
D11*
%TO.C,J2*%
X171704000Y-79756000D03*
X169164000Y-79756000D03*
X166624000Y-79756000D03*
X164084000Y-79756000D03*
X161544000Y-79756000D03*
X159004000Y-79756000D03*
X156464000Y-79756000D03*
X153924000Y-79756000D03*
X151384000Y-79756000D03*
X148844000Y-79756000D03*
X146304000Y-79756000D03*
X143764000Y-79756000D03*
X141224000Y-79756000D03*
X138684000Y-79756000D03*
X136144000Y-79756000D03*
X133604000Y-79756000D03*
X131064000Y-79756000D03*
X128524000Y-79756000D03*
X125984000Y-79756000D03*
X123444000Y-79756000D03*
X120904000Y-79756000D03*
X118364000Y-79756000D03*
X115824000Y-79756000D03*
X113284000Y-79756000D03*
X110744000Y-79756000D03*
D12*
X108204000Y-79756000D03*
%TD*%
D15*
%TO.C,J1*%
X109114000Y-67736000D03*
X109114000Y-76536000D03*
X114614000Y-67736000D03*
X114614000Y-76536000D03*
D16*
X114614000Y-70536000D03*
X114614000Y-71336000D03*
X114614000Y-72136000D03*
X114614000Y-72936000D03*
X114614000Y-73736000D03*
D17*
X112014000Y-69936000D03*
X112014000Y-74336000D03*
%TD*%
%TO.C,D1*%
G36*
G01*
X123621500Y-75132250D02*
X123621500Y-74219750D01*
G75*
G02*
X123865250Y-73976000I243750J0D01*
G01*
X124352750Y-73976000D01*
G75*
G02*
X124596500Y-74219750I0J-243750D01*
G01*
X124596500Y-75132250D01*
G75*
G02*
X124352750Y-75376000I-243750J0D01*
G01*
X123865250Y-75376000D01*
G75*
G02*
X123621500Y-75132250I0J243750D01*
G01*
G37*
G36*
G01*
X125496500Y-75132250D02*
X125496500Y-74219750D01*
G75*
G02*
X125740250Y-73976000I243750J0D01*
G01*
X126227750Y-73976000D01*
G75*
G02*
X126471500Y-74219750I0J-243750D01*
G01*
X126471500Y-75132250D01*
G75*
G02*
X126227750Y-75376000I-243750J0D01*
G01*
X125740250Y-75376000D01*
G75*
G02*
X125496500Y-75132250I0J243750D01*
G01*
G37*
%TD*%
%TO.C,C3*%
G36*
G01*
X135199600Y-75166400D02*
X135199600Y-75506400D01*
G75*
G02*
X135059600Y-75646400I-140000J0D01*
G01*
X134779600Y-75646400D01*
G75*
G02*
X134639600Y-75506400I0J140000D01*
G01*
X134639600Y-75166400D01*
G75*
G02*
X134779600Y-75026400I140000J0D01*
G01*
X135059600Y-75026400D01*
G75*
G02*
X135199600Y-75166400I0J-140000D01*
G01*
G37*
G36*
G01*
X134239600Y-75166400D02*
X134239600Y-75506400D01*
G75*
G02*
X134099600Y-75646400I-140000J0D01*
G01*
X133819600Y-75646400D01*
G75*
G02*
X133679600Y-75506400I0J140000D01*
G01*
X133679600Y-75166400D01*
G75*
G02*
X133819600Y-75026400I140000J0D01*
G01*
X134099600Y-75026400D01*
G75*
G02*
X134239600Y-75166400I0J-140000D01*
G01*
G37*
%TD*%
%TO.C,C2*%
G36*
G01*
X147912000Y-71546000D02*
X148252000Y-71546000D01*
G75*
G02*
X148392000Y-71686000I0J-140000D01*
G01*
X148392000Y-71966000D01*
G75*
G02*
X148252000Y-72106000I-140000J0D01*
G01*
X147912000Y-72106000D01*
G75*
G02*
X147772000Y-71966000I0J140000D01*
G01*
X147772000Y-71686000D01*
G75*
G02*
X147912000Y-71546000I140000J0D01*
G01*
G37*
G36*
G01*
X147912000Y-70586000D02*
X148252000Y-70586000D01*
G75*
G02*
X148392000Y-70726000I0J-140000D01*
G01*
X148392000Y-71006000D01*
G75*
G02*
X148252000Y-71146000I-140000J0D01*
G01*
X147912000Y-71146000D01*
G75*
G02*
X147772000Y-71006000I0J140000D01*
G01*
X147772000Y-70726000D01*
G75*
G02*
X147912000Y-70586000I140000J0D01*
G01*
G37*
%TD*%
%TO.C,C1*%
G36*
G01*
X153078000Y-72472000D02*
X152738000Y-72472000D01*
G75*
G02*
X152598000Y-72332000I0J140000D01*
G01*
X152598000Y-72052000D01*
G75*
G02*
X152738000Y-71912000I140000J0D01*
G01*
X153078000Y-71912000D01*
G75*
G02*
X153218000Y-72052000I0J-140000D01*
G01*
X153218000Y-72332000D01*
G75*
G02*
X153078000Y-72472000I-140000J0D01*
G01*
G37*
G36*
G01*
X153078000Y-73432000D02*
X152738000Y-73432000D01*
G75*
G02*
X152598000Y-73292000I0J140000D01*
G01*
X152598000Y-73012000D01*
G75*
G02*
X152738000Y-72872000I140000J0D01*
G01*
X153078000Y-72872000D01*
G75*
G02*
X153218000Y-73012000I0J-140000D01*
G01*
X153218000Y-73292000D01*
G75*
G02*
X153078000Y-73432000I-140000J0D01*
G01*
G37*
%TD*%
M02*
