M48
; DRILL file {KiCad (5.1.10-1-10_14)} date Thursday, September 16, 2021 at 01:02:13 PM
; FORMAT={-:-/ absolute / inch / decimal}
; #@! TF.CreationDate,2021-09-16T13:02:13+08:00
; #@! TF.GenerationSoftware,Kicad,Pcbnew,(5.1.10-1-10_14)
; #@! TF.FileFunction,Plated,1,2,PTH
FMAT,2
INCH
T1C0.0118
T2C0.0157
T3C0.0256
%
G90
G05
T1
X4.775Y-2.915
X4.84Y-2.825
X4.84Y-2.855
X4.8771Y-3.0229
X4.8961Y-2.8904
X5.1905Y-2.931
X5.2125Y-2.9535
X5.215Y-2.635
X5.228Y-2.846
X5.2307Y-2.8757
X5.5646Y-2.6017
X5.6384Y-3.0366
X5.6951Y-3.0599
X5.7647Y-3.0347
X5.81Y-2.71
X5.86Y-2.685
X5.87Y-2.79
X5.96Y-2.67
X5.98Y-2.88
X6.06Y-2.655
X6.16Y-2.64
X6.26Y-2.63
X6.36Y-2.615
X6.46Y-2.6
X6.72Y-2.9463
T2
X4.28Y-2.8
X4.28Y-2.84
X4.28Y-2.88
X4.32Y-2.8
X4.32Y-2.84
X4.32Y-2.88
X4.325Y-2.645
X4.325Y-3.035
X4.36Y-2.8
X4.36Y-2.84
X4.36Y-2.88
X4.41Y-2.825
X4.41Y-2.86
X4.49Y-2.65
X4.49Y-3.03
X4.535Y-2.65
X4.535Y-3.03
X4.61Y-2.71
X4.61Y-2.7385
X4.61Y-2.767
X4.61Y-2.98
X4.61Y-3.02
X4.65Y-2.98
X4.65Y-3.02
X4.69Y-2.62
X4.76Y-2.73
X4.79Y-2.73
X4.8Y-2.995
X4.82Y-2.73
X4.83Y-3.025
X4.92Y-2.81
X4.935Y-2.99
X4.96Y-2.81
X4.985Y-2.99
X5.0Y-2.81
X5.04Y-2.81
X5.04Y-2.9
X5.08Y-2.81
X5.08Y-2.9
X5.12Y-2.77
X5.12Y-2.935
X5.175Y-2.875
X5.2462Y-2.9663
X5.25Y-2.805
X5.43Y-2.8
X5.43Y-2.84
X5.43Y-2.88
X5.43Y-2.92
X5.47Y-2.76
X5.47Y-2.84
X5.47Y-2.88
X5.47Y-2.92
X5.51Y-2.76
X5.51Y-2.8
X5.51Y-2.88
X5.51Y-2.92
X5.55Y-2.76
X5.55Y-2.8
X5.55Y-2.84
X5.55Y-2.92
X5.59Y-2.76
X5.59Y-2.8
X5.59Y-2.84
X5.59Y-2.88
X5.77Y-2.84
X5.81Y-3.04
X5.83Y-2.88
X5.91Y-3.04
X6.01Y-3.04
X6.02Y-2.79
X6.11Y-3.04
X6.12Y-2.81
X6.12Y-2.85
X6.16Y-2.81
X6.16Y-2.85
X6.2Y-2.81
X6.2Y-2.85
X6.21Y-3.04
X6.31Y-3.04
X6.36Y-2.68
X6.4Y-2.68
X6.41Y-3.04
X6.44Y-2.68
X6.51Y-3.04
X6.57Y-2.68
X6.68Y-3.03
X6.68Y-3.07
X6.7Y-2.82
X6.7Y-2.87
X6.72Y-2.655
X6.72Y-3.03
X6.72Y-3.07
X6.74Y-2.82
X6.74Y-2.87
X6.76Y-2.615
X6.76Y-2.655
X6.76Y-3.03
X6.76Y-3.07
T3
X4.26Y-2.54
X4.26Y-3.14
X4.36Y-2.54
X4.36Y-3.14
X4.46Y-2.54
X4.46Y-3.14
X4.56Y-2.54
X4.56Y-3.14
X4.66Y-2.54
X4.66Y-3.14
X4.76Y-2.54
X4.76Y-3.14
X4.86Y-2.54
X4.86Y-3.14
X4.96Y-2.54
X4.96Y-3.14
X5.06Y-2.54
X5.06Y-3.14
X5.16Y-2.54
X5.16Y-3.14
X5.26Y-2.54
X5.26Y-3.14
X5.36Y-2.54
X5.36Y-3.14
X5.46Y-2.54
X5.46Y-3.14
X5.56Y-2.54
X5.56Y-3.14
X5.66Y-2.54
X5.66Y-3.14
X5.76Y-2.54
X5.76Y-3.14
X5.86Y-2.54
X5.86Y-3.14
X5.96Y-2.54
X5.96Y-3.14
X6.06Y-2.54
X6.06Y-3.14
X6.16Y-2.54
X6.16Y-3.14
X6.26Y-2.54
X6.26Y-3.14
X6.36Y-2.54
X6.36Y-3.14
X6.46Y-2.54
X6.46Y-3.14
X6.56Y-2.54
X6.56Y-3.14
X6.66Y-2.54
X6.66Y-3.14
X6.76Y-2.54
X6.76Y-3.14
T0
M30
