%TF.GenerationSoftware,KiCad,Pcbnew,(5.1.10-1-10_14)*%
%TF.CreationDate,2021-09-16T13:02:04+08:00*%
%TF.ProjectId,AT90USB1287-Board,41543930-5553-4423-9132-38372d426f61,rev?*%
%TF.SameCoordinates,Original*%
%TF.FileFunction,Soldermask,Bot*%
%TF.FilePolarity,Negative*%
%FSLAX46Y46*%
G04 Gerber Fmt 4.6, Leading zero omitted, Abs format (unit mm)*
G04 Created by KiCad (PCBNEW (5.1.10-1-10_14)) date 2021-09-16 13:02:04*
%MOMM*%
%LPD*%
G01*
G04 APERTURE LIST*
%ADD10O,1.350000X1.350000*%
%ADD11R,1.350000X1.350000*%
%ADD12C,0.900000*%
G04 APERTURE END LIST*
D10*
%TO.C,J3*%
X171704000Y-64516000D03*
X169164000Y-64516000D03*
X166624000Y-64516000D03*
X164084000Y-64516000D03*
X161544000Y-64516000D03*
X159004000Y-64516000D03*
X156464000Y-64516000D03*
X153924000Y-64516000D03*
X151384000Y-64516000D03*
X148844000Y-64516000D03*
X146304000Y-64516000D03*
X143764000Y-64516000D03*
X141224000Y-64516000D03*
X138684000Y-64516000D03*
X136144000Y-64516000D03*
X133604000Y-64516000D03*
X131064000Y-64516000D03*
X128524000Y-64516000D03*
X125984000Y-64516000D03*
X123444000Y-64516000D03*
X120904000Y-64516000D03*
X118364000Y-64516000D03*
X115824000Y-64516000D03*
X113284000Y-64516000D03*
X110744000Y-64516000D03*
D11*
X108204000Y-64516000D03*
%TD*%
D10*
%TO.C,J2*%
X171704000Y-79756000D03*
X169164000Y-79756000D03*
X166624000Y-79756000D03*
X164084000Y-79756000D03*
X161544000Y-79756000D03*
X159004000Y-79756000D03*
X156464000Y-79756000D03*
X153924000Y-79756000D03*
X151384000Y-79756000D03*
X148844000Y-79756000D03*
X146304000Y-79756000D03*
X143764000Y-79756000D03*
X141224000Y-79756000D03*
X138684000Y-79756000D03*
X136144000Y-79756000D03*
X133604000Y-79756000D03*
X131064000Y-79756000D03*
X128524000Y-79756000D03*
X125984000Y-79756000D03*
X123444000Y-79756000D03*
X120904000Y-79756000D03*
X118364000Y-79756000D03*
X115824000Y-79756000D03*
X113284000Y-79756000D03*
X110744000Y-79756000D03*
D11*
X108204000Y-79756000D03*
%TD*%
D12*
%TO.C,J1*%
X112014000Y-69936000D03*
X112014000Y-74336000D03*
%TD*%
M02*
