%TF.GenerationSoftware,KiCad,Pcbnew,(5.1.10-1-10_14)*%
%TF.CreationDate,2021-09-16T13:02:04+08:00*%
%TF.ProjectId,AT90USB1287-Board,41543930-5553-4423-9132-38372d426f61,rev?*%
%TF.SameCoordinates,Original*%
%TF.FileFunction,Legend,Top*%
%TF.FilePolarity,Positive*%
%FSLAX46Y46*%
G04 Gerber Fmt 4.6, Leading zero omitted, Abs format (unit mm)*
G04 Created by KiCad (PCBNEW (5.1.10-1-10_14)) date 2021-09-16 13:02:04*
%MOMM*%
%LPD*%
G01*
G04 APERTURE LIST*
%ADD10C,0.120000*%
%ADD11C,0.150000*%
%ADD12C,0.250000*%
G04 APERTURE END LIST*
D10*
X114554000Y-65532000D02*
X114554000Y-66548000D01*
D11*
X122829714Y-66727428D02*
X123172571Y-66727428D01*
X123001142Y-67327428D02*
X123001142Y-66727428D01*
X123372571Y-67327428D02*
X123372571Y-66727428D01*
X123515428Y-66727428D01*
X123601142Y-66756000D01*
X123658285Y-66813142D01*
X123686857Y-66870285D01*
X123715428Y-66984571D01*
X123715428Y-67070285D01*
X123686857Y-67184571D01*
X123658285Y-67241714D01*
X123601142Y-67298857D01*
X123515428Y-67327428D01*
X123372571Y-67327428D01*
X123972571Y-67327428D02*
X123972571Y-66727428D01*
X116068571Y-66727428D02*
X116411428Y-66727428D01*
X116240000Y-67327428D02*
X116240000Y-66727428D01*
X116954285Y-67270285D02*
X116925714Y-67298857D01*
X116840000Y-67327428D01*
X116782857Y-67327428D01*
X116697142Y-67298857D01*
X116640000Y-67241714D01*
X116611428Y-67184571D01*
X116582857Y-67070285D01*
X116582857Y-66984571D01*
X116611428Y-66870285D01*
X116640000Y-66813142D01*
X116697142Y-66756000D01*
X116782857Y-66727428D01*
X116840000Y-66727428D01*
X116925714Y-66756000D01*
X116954285Y-66784571D01*
X117211428Y-67327428D02*
X117211428Y-66727428D01*
X117554285Y-67327428D02*
X117297142Y-66984571D01*
X117554285Y-66727428D02*
X117211428Y-67070285D01*
X120576000Y-66727428D02*
X120918857Y-66727428D01*
X120747429Y-67327428D02*
X120747429Y-66727428D01*
X121118857Y-67327428D02*
X121118857Y-66727428D01*
X121261715Y-66727428D01*
X121347429Y-66756000D01*
X121404572Y-66813142D01*
X121433143Y-66870285D01*
X121461715Y-66984571D01*
X121461715Y-67070285D01*
X121433143Y-67184571D01*
X121404572Y-67241714D01*
X121347429Y-67298857D01*
X121261715Y-67327428D01*
X121118857Y-67327428D01*
X121833143Y-66727428D02*
X121947429Y-66727428D01*
X122004572Y-66756000D01*
X122061715Y-66813142D01*
X122090286Y-66927428D01*
X122090286Y-67127428D01*
X122061715Y-67241714D01*
X122004572Y-67298857D01*
X121947429Y-67327428D01*
X121833143Y-67327428D01*
X121776000Y-67298857D01*
X121718857Y-67241714D01*
X121690286Y-67127428D01*
X121690286Y-66927428D01*
X121718857Y-66813142D01*
X121776000Y-66756000D01*
X121833143Y-66727428D01*
X118293715Y-66727428D02*
X118636572Y-66727428D01*
X118465143Y-67327428D02*
X118465143Y-66727428D01*
X118836572Y-67327428D02*
X118836572Y-66727428D01*
X119036572Y-67156000D01*
X119236572Y-66727428D01*
X119236572Y-67327428D01*
X119493715Y-67298857D02*
X119579429Y-67327428D01*
X119722286Y-67327428D01*
X119779429Y-67298857D01*
X119808000Y-67270285D01*
X119836572Y-67213142D01*
X119836572Y-67156000D01*
X119808000Y-67098857D01*
X119779429Y-67070285D01*
X119722286Y-67041714D01*
X119608000Y-67013142D01*
X119550857Y-66984571D01*
X119522286Y-66956000D01*
X119493715Y-66898857D01*
X119493715Y-66841714D01*
X119522286Y-66784571D01*
X119550857Y-66756000D01*
X119608000Y-66727428D01*
X119750857Y-66727428D01*
X119836572Y-66756000D01*
X153195428Y-77458857D02*
X153281142Y-77487428D01*
X153424000Y-77487428D01*
X153481142Y-77458857D01*
X153509714Y-77430285D01*
X153538285Y-77373142D01*
X153538285Y-77316000D01*
X153509714Y-77258857D01*
X153481142Y-77230285D01*
X153424000Y-77201714D01*
X153309714Y-77173142D01*
X153252571Y-77144571D01*
X153224000Y-77116000D01*
X153195428Y-77058857D01*
X153195428Y-77001714D01*
X153224000Y-76944571D01*
X153252571Y-76916000D01*
X153309714Y-76887428D01*
X153452571Y-76887428D01*
X153538285Y-76916000D01*
X153795428Y-77487428D02*
X153795428Y-76887428D01*
X153938285Y-76887428D01*
X154024000Y-76916000D01*
X154081142Y-76973142D01*
X154109714Y-77030285D01*
X154138285Y-77144571D01*
X154138285Y-77230285D01*
X154109714Y-77344571D01*
X154081142Y-77401714D01*
X154024000Y-77458857D01*
X153938285Y-77487428D01*
X153795428Y-77487428D01*
X154366857Y-77316000D02*
X154652571Y-77316000D01*
X154309714Y-77487428D02*
X154509714Y-76887428D01*
X154709714Y-77487428D01*
X150669714Y-77458857D02*
X150755428Y-77487428D01*
X150898285Y-77487428D01*
X150955428Y-77458857D01*
X150984000Y-77430285D01*
X151012571Y-77373142D01*
X151012571Y-77316000D01*
X150984000Y-77258857D01*
X150955428Y-77230285D01*
X150898285Y-77201714D01*
X150784000Y-77173142D01*
X150726857Y-77144571D01*
X150698285Y-77116000D01*
X150669714Y-77058857D01*
X150669714Y-77001714D01*
X150698285Y-76944571D01*
X150726857Y-76916000D01*
X150784000Y-76887428D01*
X150926857Y-76887428D01*
X151012571Y-76916000D01*
X151612571Y-77430285D02*
X151584000Y-77458857D01*
X151498285Y-77487428D01*
X151441142Y-77487428D01*
X151355428Y-77458857D01*
X151298285Y-77401714D01*
X151269714Y-77344571D01*
X151241142Y-77230285D01*
X151241142Y-77144571D01*
X151269714Y-77030285D01*
X151298285Y-76973142D01*
X151355428Y-76916000D01*
X151441142Y-76887428D01*
X151498285Y-76887428D01*
X151584000Y-76916000D01*
X151612571Y-76944571D01*
X152155428Y-77487428D02*
X151869714Y-77487428D01*
X151869714Y-76887428D01*
D10*
X150114000Y-78740000D02*
X150114000Y-76962000D01*
D11*
X122986857Y-77458857D02*
X123072571Y-77487428D01*
X123215428Y-77487428D01*
X123272571Y-77458857D01*
X123301142Y-77430285D01*
X123329714Y-77373142D01*
X123329714Y-77316000D01*
X123301142Y-77258857D01*
X123272571Y-77230285D01*
X123215428Y-77201714D01*
X123101142Y-77173142D01*
X123044000Y-77144571D01*
X123015428Y-77116000D01*
X122986857Y-77058857D01*
X122986857Y-77001714D01*
X123015428Y-76944571D01*
X123044000Y-76916000D01*
X123101142Y-76887428D01*
X123244000Y-76887428D01*
X123329714Y-76916000D01*
X123558285Y-77458857D02*
X123644000Y-77487428D01*
X123786857Y-77487428D01*
X123844000Y-77458857D01*
X123872571Y-77430285D01*
X123901142Y-77373142D01*
X123901142Y-77316000D01*
X123872571Y-77258857D01*
X123844000Y-77230285D01*
X123786857Y-77201714D01*
X123672571Y-77173142D01*
X123615428Y-77144571D01*
X123586857Y-77116000D01*
X123558285Y-77058857D01*
X123558285Y-77001714D01*
X123586857Y-76944571D01*
X123615428Y-76916000D01*
X123672571Y-76887428D01*
X123815428Y-76887428D01*
X123901142Y-76916000D01*
D10*
X160274000Y-78740000D02*
X160274000Y-76962000D01*
X155194000Y-78740000D02*
X155194000Y-76962000D01*
D11*
X158246857Y-76887428D02*
X158589714Y-76887428D01*
X158418285Y-77487428D02*
X158418285Y-76887428D01*
X158732571Y-76887428D02*
X159132571Y-77487428D01*
X159132571Y-76887428D02*
X158732571Y-77487428D01*
X159361142Y-77487428D02*
X159361142Y-76887428D01*
X159504000Y-76887428D01*
X159589714Y-76916000D01*
X159646857Y-76973142D01*
X159675428Y-77030285D01*
X159704000Y-77144571D01*
X159704000Y-77230285D01*
X159675428Y-77344571D01*
X159646857Y-77401714D01*
X159589714Y-77458857D01*
X159504000Y-77487428D01*
X159361142Y-77487428D01*
X156064000Y-77487428D02*
X155864000Y-77201714D01*
X155721142Y-77487428D02*
X155721142Y-76887428D01*
X155949714Y-76887428D01*
X156006857Y-76916000D01*
X156035428Y-76944571D01*
X156064000Y-77001714D01*
X156064000Y-77087428D01*
X156035428Y-77144571D01*
X156006857Y-77173142D01*
X155949714Y-77201714D01*
X155721142Y-77201714D01*
X156264000Y-76887428D02*
X156664000Y-77487428D01*
X156664000Y-76887428D02*
X156264000Y-77487428D01*
X156892571Y-77487428D02*
X156892571Y-76887428D01*
X157035428Y-76887428D01*
X157121142Y-76916000D01*
X157178285Y-76973142D01*
X157206857Y-77030285D01*
X157235428Y-77144571D01*
X157235428Y-77230285D01*
X157206857Y-77344571D01*
X157178285Y-77401714D01*
X157121142Y-77458857D01*
X157035428Y-77487428D01*
X156892571Y-77487428D01*
D12*
X133985000Y-72263000D02*
G75*
G03*
X133985000Y-72263000I-127000J0D01*
G01*
D10*
X132334000Y-78740000D02*
X132334000Y-76962000D01*
X122174000Y-78740000D02*
X122174000Y-76962000D01*
D11*
X130121142Y-77487428D02*
X130121142Y-76887428D01*
X130321142Y-77316000D01*
X130521142Y-76887428D01*
X130521142Y-77487428D01*
X130806857Y-77487428D02*
X130806857Y-76887428D01*
X131064000Y-77458857D02*
X131149714Y-77487428D01*
X131292571Y-77487428D01*
X131349714Y-77458857D01*
X131378285Y-77430285D01*
X131406857Y-77373142D01*
X131406857Y-77316000D01*
X131378285Y-77258857D01*
X131349714Y-77230285D01*
X131292571Y-77201714D01*
X131178285Y-77173142D01*
X131121142Y-77144571D01*
X131092571Y-77116000D01*
X131064000Y-77058857D01*
X131064000Y-77001714D01*
X131092571Y-76944571D01*
X131121142Y-76916000D01*
X131178285Y-76887428D01*
X131321142Y-76887428D01*
X131406857Y-76916000D01*
X131778285Y-76887428D02*
X131892571Y-76887428D01*
X131949714Y-76916000D01*
X132006857Y-76973142D01*
X132035428Y-77087428D01*
X132035428Y-77287428D01*
X132006857Y-77401714D01*
X131949714Y-77458857D01*
X131892571Y-77487428D01*
X131778285Y-77487428D01*
X131721142Y-77458857D01*
X131664000Y-77401714D01*
X131635428Y-77287428D01*
X131635428Y-77087428D01*
X131664000Y-76973142D01*
X131721142Y-76916000D01*
X131778285Y-76887428D01*
X127581142Y-77487428D02*
X127581142Y-76887428D01*
X127781142Y-77316000D01*
X127981142Y-76887428D01*
X127981142Y-77487428D01*
X128381142Y-76887428D02*
X128495428Y-76887428D01*
X128552571Y-76916000D01*
X128609714Y-76973142D01*
X128638285Y-77087428D01*
X128638285Y-77287428D01*
X128609714Y-77401714D01*
X128552571Y-77458857D01*
X128495428Y-77487428D01*
X128381142Y-77487428D01*
X128324000Y-77458857D01*
X128266857Y-77401714D01*
X128238285Y-77287428D01*
X128238285Y-77087428D01*
X128266857Y-76973142D01*
X128324000Y-76916000D01*
X128381142Y-76887428D01*
X128866857Y-77458857D02*
X128952571Y-77487428D01*
X129095428Y-77487428D01*
X129152571Y-77458857D01*
X129181142Y-77430285D01*
X129209714Y-77373142D01*
X129209714Y-77316000D01*
X129181142Y-77258857D01*
X129152571Y-77230285D01*
X129095428Y-77201714D01*
X128981142Y-77173142D01*
X128924000Y-77144571D01*
X128895428Y-77116000D01*
X128866857Y-77058857D01*
X128866857Y-77001714D01*
X128895428Y-76944571D01*
X128924000Y-76916000D01*
X128981142Y-76887428D01*
X129124000Y-76887428D01*
X129209714Y-76916000D01*
X129466857Y-77487428D02*
X129466857Y-76887428D01*
X125212571Y-77458857D02*
X125298285Y-77487428D01*
X125441142Y-77487428D01*
X125498285Y-77458857D01*
X125526857Y-77430285D01*
X125555428Y-77373142D01*
X125555428Y-77316000D01*
X125526857Y-77258857D01*
X125498285Y-77230285D01*
X125441142Y-77201714D01*
X125326857Y-77173142D01*
X125269714Y-77144571D01*
X125241142Y-77116000D01*
X125212571Y-77058857D01*
X125212571Y-77001714D01*
X125241142Y-76944571D01*
X125269714Y-76916000D01*
X125326857Y-76887428D01*
X125469714Y-76887428D01*
X125555428Y-76916000D01*
X126155428Y-77430285D02*
X126126857Y-77458857D01*
X126041142Y-77487428D01*
X125984000Y-77487428D01*
X125898285Y-77458857D01*
X125841142Y-77401714D01*
X125812571Y-77344571D01*
X125784000Y-77230285D01*
X125784000Y-77144571D01*
X125812571Y-77030285D01*
X125841142Y-76973142D01*
X125898285Y-76916000D01*
X125984000Y-76887428D01*
X126041142Y-76887428D01*
X126126857Y-76916000D01*
X126155428Y-76944571D01*
X126412571Y-77487428D02*
X126412571Y-76887428D01*
X126755428Y-77487428D02*
X126498285Y-77144571D01*
X126755428Y-76887428D02*
X126412571Y-77230285D01*
X168210666Y-73152666D02*
X167877333Y-73386000D01*
X168210666Y-73552666D02*
X167510666Y-73552666D01*
X167510666Y-73286000D01*
X167544000Y-73219333D01*
X167577333Y-73186000D01*
X167644000Y-73152666D01*
X167744000Y-73152666D01*
X167810666Y-73186000D01*
X167844000Y-73219333D01*
X167877333Y-73286000D01*
X167877333Y-73552666D01*
X167844000Y-72852666D02*
X167844000Y-72619333D01*
X168210666Y-72519333D02*
X168210666Y-72852666D01*
X167510666Y-72852666D01*
X167510666Y-72519333D01*
X168177333Y-72252666D02*
X168210666Y-72152666D01*
X168210666Y-71986000D01*
X168177333Y-71919333D01*
X168144000Y-71886000D01*
X168077333Y-71852666D01*
X168010666Y-71852666D01*
X167944000Y-71886000D01*
X167910666Y-71919333D01*
X167877333Y-71986000D01*
X167844000Y-72119333D01*
X167810666Y-72186000D01*
X167777333Y-72219333D01*
X167710666Y-72252666D01*
X167644000Y-72252666D01*
X167577333Y-72219333D01*
X167544000Y-72186000D01*
X167510666Y-72119333D01*
X167510666Y-71952666D01*
X167544000Y-71852666D01*
X167844000Y-71552666D02*
X167844000Y-71319333D01*
X168210666Y-71219333D02*
X168210666Y-71552666D01*
X167510666Y-71552666D01*
X167510666Y-71219333D01*
X167510666Y-71019333D02*
X167510666Y-70619333D01*
X168210666Y-70819333D02*
X167510666Y-70819333D01*
D10*
X123190000Y-75692000D02*
X122936000Y-75692000D01*
X123190000Y-75692000D02*
X123190000Y-75946000D01*
X121920000Y-76708000D02*
X123190000Y-75692000D01*
D11*
X120518285Y-77487428D02*
X120232571Y-77487428D01*
X120232571Y-76887428D01*
X120718285Y-77173142D02*
X120918285Y-77173142D01*
X121004000Y-77487428D02*
X120718285Y-77487428D01*
X120718285Y-76887428D01*
X121004000Y-76887428D01*
X121261142Y-77487428D02*
X121261142Y-76887428D01*
X121404000Y-76887428D01*
X121489714Y-76916000D01*
X121546857Y-76973142D01*
X121575428Y-77030285D01*
X121604000Y-77144571D01*
X121604000Y-77230285D01*
X121575428Y-77344571D01*
X121546857Y-77401714D01*
X121489714Y-77458857D01*
X121404000Y-77487428D01*
X121261142Y-77487428D01*
D10*
X165354000Y-67056000D02*
X165354000Y-65532000D01*
X157226000Y-67056000D02*
X165354000Y-67056000D01*
X145034000Y-67056000D02*
X153162000Y-67056000D01*
X145034000Y-67056000D02*
X145034000Y-65532000D01*
X141986000Y-67056000D02*
X145034000Y-67056000D01*
X137160000Y-67056000D02*
X137922000Y-67056000D01*
X124714000Y-67056000D02*
X132588000Y-67056000D01*
X124714000Y-65532000D02*
X124714000Y-67056000D01*
D11*
X153822571Y-67156000D02*
X154108285Y-67156000D01*
X153765428Y-67327428D02*
X153965428Y-66727428D01*
X154165428Y-67327428D01*
X154451142Y-66984571D02*
X154394000Y-66956000D01*
X154365428Y-66927428D01*
X154336857Y-66870285D01*
X154336857Y-66841714D01*
X154365428Y-66784571D01*
X154394000Y-66756000D01*
X154451142Y-66727428D01*
X154565428Y-66727428D01*
X154622571Y-66756000D01*
X154651142Y-66784571D01*
X154679714Y-66841714D01*
X154679714Y-66870285D01*
X154651142Y-66927428D01*
X154622571Y-66956000D01*
X154565428Y-66984571D01*
X154451142Y-66984571D01*
X154394000Y-67013142D01*
X154365428Y-67041714D01*
X154336857Y-67098857D01*
X154336857Y-67213142D01*
X154365428Y-67270285D01*
X154394000Y-67298857D01*
X154451142Y-67327428D01*
X154565428Y-67327428D01*
X154622571Y-67298857D01*
X154651142Y-67270285D01*
X154679714Y-67213142D01*
X154679714Y-67098857D01*
X154651142Y-67041714D01*
X154622571Y-67013142D01*
X154565428Y-66984571D01*
X154936857Y-67098857D02*
X155394000Y-67098857D01*
X155994000Y-67327428D02*
X155651142Y-67327428D01*
X155822571Y-67327428D02*
X155822571Y-66727428D01*
X155765428Y-66813142D01*
X155708285Y-66870285D01*
X155651142Y-66898857D01*
X156536857Y-66727428D02*
X156251142Y-66727428D01*
X156222571Y-67013142D01*
X156251142Y-66984571D01*
X156308285Y-66956000D01*
X156451142Y-66956000D01*
X156508285Y-66984571D01*
X156536857Y-67013142D01*
X156565428Y-67070285D01*
X156565428Y-67213142D01*
X156536857Y-67270285D01*
X156508285Y-67298857D01*
X156451142Y-67327428D01*
X156308285Y-67327428D01*
X156251142Y-67298857D01*
X156222571Y-67270285D01*
X133488285Y-67156000D02*
X133774000Y-67156000D01*
X133431142Y-67327428D02*
X133631142Y-66727428D01*
X133831142Y-67327428D01*
X134031142Y-67327428D02*
X134031142Y-66727428D01*
X134174000Y-66727428D01*
X134259714Y-66756000D01*
X134316857Y-66813142D01*
X134345428Y-66870285D01*
X134374000Y-66984571D01*
X134374000Y-67070285D01*
X134345428Y-67184571D01*
X134316857Y-67241714D01*
X134259714Y-67298857D01*
X134174000Y-67327428D01*
X134031142Y-67327428D01*
X134745428Y-66727428D02*
X134802571Y-66727428D01*
X134859714Y-66756000D01*
X134888285Y-66784571D01*
X134916857Y-66841714D01*
X134945428Y-66956000D01*
X134945428Y-67098857D01*
X134916857Y-67213142D01*
X134888285Y-67270285D01*
X134859714Y-67298857D01*
X134802571Y-67327428D01*
X134745428Y-67327428D01*
X134688285Y-67298857D01*
X134659714Y-67270285D01*
X134631142Y-67213142D01*
X134602571Y-67098857D01*
X134602571Y-66956000D01*
X134631142Y-66841714D01*
X134659714Y-66784571D01*
X134688285Y-66756000D01*
X134745428Y-66727428D01*
X135202571Y-67098857D02*
X135659714Y-67098857D01*
X135888285Y-66727428D02*
X136288285Y-66727428D01*
X136031142Y-67327428D01*
X171061142Y-66562500D02*
X171746857Y-66562500D01*
X171146857Y-66860928D02*
X171289714Y-67460928D01*
X171404000Y-67032357D01*
X171518285Y-67460928D01*
X171661142Y-66860928D01*
X171746857Y-66562500D02*
X172346857Y-66562500D01*
X172232571Y-67460928D02*
X172032571Y-67175214D01*
X171889714Y-67460928D02*
X171889714Y-66860928D01*
X172118285Y-66860928D01*
X172175428Y-66889500D01*
X172204000Y-66918071D01*
X172232571Y-66975214D01*
X172232571Y-67060928D01*
X172204000Y-67118071D01*
X172175428Y-67146642D01*
X172118285Y-67175214D01*
X171889714Y-67175214D01*
X168564000Y-66562500D02*
X169164000Y-66562500D01*
X169049714Y-67460928D02*
X168849714Y-67175214D01*
X168706857Y-67460928D02*
X168706857Y-66860928D01*
X168935428Y-66860928D01*
X168992571Y-66889500D01*
X169021142Y-66918071D01*
X169049714Y-66975214D01*
X169049714Y-67060928D01*
X169021142Y-67118071D01*
X168992571Y-67146642D01*
X168935428Y-67175214D01*
X168706857Y-67175214D01*
X169164000Y-66562500D02*
X169764000Y-66562500D01*
X169306857Y-67460928D02*
X169306857Y-66860928D01*
X169449714Y-66860928D01*
X169535428Y-66889500D01*
X169592571Y-66946642D01*
X169621142Y-67003785D01*
X169649714Y-67118071D01*
X169649714Y-67203785D01*
X169621142Y-67318071D01*
X169592571Y-67375214D01*
X169535428Y-67432357D01*
X169449714Y-67460928D01*
X169306857Y-67460928D01*
X165966857Y-67156000D02*
X166252571Y-67156000D01*
X165909714Y-67327428D02*
X166109714Y-66727428D01*
X166309714Y-67327428D01*
X166795428Y-67327428D02*
X166509714Y-67327428D01*
X166509714Y-66727428D01*
X166995428Y-67013142D02*
X167195428Y-67013142D01*
X167281142Y-67327428D02*
X166995428Y-67327428D01*
X166995428Y-66727428D01*
X167281142Y-66727428D01*
X168647333Y-78802666D02*
X168647333Y-78102666D01*
X168814000Y-78102666D01*
X168914000Y-78136000D01*
X168980666Y-78202666D01*
X169014000Y-78269333D01*
X169047333Y-78402666D01*
X169047333Y-78502666D01*
X169014000Y-78636000D01*
X168980666Y-78702666D01*
X168914000Y-78769333D01*
X168814000Y-78802666D01*
X168647333Y-78802666D01*
X169280666Y-78102666D02*
X169747333Y-78102666D01*
X169447333Y-78802666D01*
X171170666Y-78136000D02*
X171104000Y-78102666D01*
X171004000Y-78102666D01*
X170904000Y-78136000D01*
X170837333Y-78202666D01*
X170804000Y-78269333D01*
X170770666Y-78402666D01*
X170770666Y-78502666D01*
X170804000Y-78636000D01*
X170837333Y-78702666D01*
X170904000Y-78769333D01*
X171004000Y-78802666D01*
X171070666Y-78802666D01*
X171170666Y-78769333D01*
X171204000Y-78736000D01*
X171204000Y-78502666D01*
X171070666Y-78502666D01*
X171504000Y-78802666D02*
X171504000Y-78102666D01*
X171904000Y-78802666D01*
X171904000Y-78102666D01*
X172237333Y-78802666D02*
X172237333Y-78102666D01*
X172404000Y-78102666D01*
X172504000Y-78136000D01*
X172570666Y-78202666D01*
X172604000Y-78269333D01*
X172637333Y-78402666D01*
X172637333Y-78502666D01*
X172604000Y-78636000D01*
X172570666Y-78702666D01*
X172504000Y-78769333D01*
X172404000Y-78802666D01*
X172237333Y-78802666D01*
X158487333Y-78802666D02*
X158487333Y-78102666D01*
X158654000Y-78102666D01*
X158754000Y-78136000D01*
X158820666Y-78202666D01*
X158854000Y-78269333D01*
X158887333Y-78402666D01*
X158887333Y-78502666D01*
X158854000Y-78636000D01*
X158820666Y-78702666D01*
X158754000Y-78769333D01*
X158654000Y-78802666D01*
X158487333Y-78802666D01*
X159120666Y-78102666D02*
X159554000Y-78102666D01*
X159320666Y-78369333D01*
X159420666Y-78369333D01*
X159487333Y-78402666D01*
X159520666Y-78436000D01*
X159554000Y-78502666D01*
X159554000Y-78669333D01*
X159520666Y-78736000D01*
X159487333Y-78769333D01*
X159420666Y-78802666D01*
X159220666Y-78802666D01*
X159154000Y-78769333D01*
X159120666Y-78736000D01*
X163567333Y-78802666D02*
X163567333Y-78102666D01*
X163734000Y-78102666D01*
X163834000Y-78136000D01*
X163900666Y-78202666D01*
X163934000Y-78269333D01*
X163967333Y-78402666D01*
X163967333Y-78502666D01*
X163934000Y-78636000D01*
X163900666Y-78702666D01*
X163834000Y-78769333D01*
X163734000Y-78802666D01*
X163567333Y-78802666D01*
X164600666Y-78102666D02*
X164267333Y-78102666D01*
X164234000Y-78436000D01*
X164267333Y-78402666D01*
X164334000Y-78369333D01*
X164500666Y-78369333D01*
X164567333Y-78402666D01*
X164600666Y-78436000D01*
X164634000Y-78502666D01*
X164634000Y-78669333D01*
X164600666Y-78736000D01*
X164567333Y-78769333D01*
X164500666Y-78802666D01*
X164334000Y-78802666D01*
X164267333Y-78769333D01*
X164234000Y-78736000D01*
X161027333Y-78802666D02*
X161027333Y-78102666D01*
X161194000Y-78102666D01*
X161294000Y-78136000D01*
X161360666Y-78202666D01*
X161394000Y-78269333D01*
X161427333Y-78402666D01*
X161427333Y-78502666D01*
X161394000Y-78636000D01*
X161360666Y-78702666D01*
X161294000Y-78769333D01*
X161194000Y-78802666D01*
X161027333Y-78802666D01*
X162027333Y-78336000D02*
X162027333Y-78802666D01*
X161860666Y-78069333D02*
X161694000Y-78569333D01*
X162127333Y-78569333D01*
X166107333Y-78802666D02*
X166107333Y-78102666D01*
X166274000Y-78102666D01*
X166374000Y-78136000D01*
X166440666Y-78202666D01*
X166474000Y-78269333D01*
X166507333Y-78402666D01*
X166507333Y-78502666D01*
X166474000Y-78636000D01*
X166440666Y-78702666D01*
X166374000Y-78769333D01*
X166274000Y-78802666D01*
X166107333Y-78802666D01*
X167107333Y-78102666D02*
X166974000Y-78102666D01*
X166907333Y-78136000D01*
X166874000Y-78169333D01*
X166807333Y-78269333D01*
X166774000Y-78402666D01*
X166774000Y-78669333D01*
X166807333Y-78736000D01*
X166840666Y-78769333D01*
X166907333Y-78802666D01*
X167040666Y-78802666D01*
X167107333Y-78769333D01*
X167140666Y-78736000D01*
X167174000Y-78669333D01*
X167174000Y-78502666D01*
X167140666Y-78436000D01*
X167107333Y-78402666D01*
X167040666Y-78369333D01*
X166907333Y-78369333D01*
X166840666Y-78402666D01*
X166807333Y-78436000D01*
X166774000Y-78502666D01*
X147894000Y-77787000D02*
X148594000Y-77787000D01*
X148460666Y-78802666D02*
X148227333Y-78469333D01*
X148060666Y-78802666D02*
X148060666Y-78102666D01*
X148327333Y-78102666D01*
X148394000Y-78136000D01*
X148427333Y-78169333D01*
X148460666Y-78236000D01*
X148460666Y-78336000D01*
X148427333Y-78402666D01*
X148394000Y-78436000D01*
X148327333Y-78469333D01*
X148060666Y-78469333D01*
X148594000Y-77787000D02*
X149260666Y-77787000D01*
X148727333Y-78769333D02*
X148827333Y-78802666D01*
X148994000Y-78802666D01*
X149060666Y-78769333D01*
X149094000Y-78736000D01*
X149127333Y-78669333D01*
X149127333Y-78602666D01*
X149094000Y-78536000D01*
X149060666Y-78502666D01*
X148994000Y-78469333D01*
X148860666Y-78436000D01*
X148794000Y-78402666D01*
X148760666Y-78369333D01*
X148727333Y-78302666D01*
X148727333Y-78236000D01*
X148760666Y-78169333D01*
X148794000Y-78136000D01*
X148860666Y-78102666D01*
X149027333Y-78102666D01*
X149127333Y-78136000D01*
X149260666Y-77787000D02*
X149794000Y-77787000D01*
X149327333Y-78102666D02*
X149727333Y-78102666D01*
X149527333Y-78802666D02*
X149527333Y-78102666D01*
X153407333Y-78802666D02*
X153407333Y-78102666D01*
X153574000Y-78102666D01*
X153674000Y-78136000D01*
X153740666Y-78202666D01*
X153774000Y-78269333D01*
X153807333Y-78402666D01*
X153807333Y-78502666D01*
X153774000Y-78636000D01*
X153740666Y-78702666D01*
X153674000Y-78769333D01*
X153574000Y-78802666D01*
X153407333Y-78802666D01*
X154474000Y-78802666D02*
X154074000Y-78802666D01*
X154274000Y-78802666D02*
X154274000Y-78102666D01*
X154207333Y-78202666D01*
X154140666Y-78269333D01*
X154074000Y-78302666D01*
X150867333Y-78802666D02*
X150867333Y-78102666D01*
X151034000Y-78102666D01*
X151134000Y-78136000D01*
X151200666Y-78202666D01*
X151234000Y-78269333D01*
X151267333Y-78402666D01*
X151267333Y-78502666D01*
X151234000Y-78636000D01*
X151200666Y-78702666D01*
X151134000Y-78769333D01*
X151034000Y-78802666D01*
X150867333Y-78802666D01*
X151700666Y-78102666D02*
X151767333Y-78102666D01*
X151834000Y-78136000D01*
X151867333Y-78169333D01*
X151900666Y-78236000D01*
X151934000Y-78369333D01*
X151934000Y-78536000D01*
X151900666Y-78669333D01*
X151867333Y-78736000D01*
X151834000Y-78769333D01*
X151767333Y-78802666D01*
X151700666Y-78802666D01*
X151634000Y-78769333D01*
X151600666Y-78736000D01*
X151567333Y-78669333D01*
X151534000Y-78536000D01*
X151534000Y-78369333D01*
X151567333Y-78236000D01*
X151600666Y-78169333D01*
X151634000Y-78136000D01*
X151700666Y-78102666D01*
X155947333Y-78802666D02*
X155947333Y-78102666D01*
X156114000Y-78102666D01*
X156214000Y-78136000D01*
X156280666Y-78202666D01*
X156314000Y-78269333D01*
X156347333Y-78402666D01*
X156347333Y-78502666D01*
X156314000Y-78636000D01*
X156280666Y-78702666D01*
X156214000Y-78769333D01*
X156114000Y-78802666D01*
X155947333Y-78802666D01*
X156614000Y-78169333D02*
X156647333Y-78136000D01*
X156714000Y-78102666D01*
X156880666Y-78102666D01*
X156947333Y-78136000D01*
X156980666Y-78169333D01*
X157014000Y-78236000D01*
X157014000Y-78302666D01*
X156980666Y-78402666D01*
X156580666Y-78802666D01*
X157014000Y-78802666D01*
X138146666Y-78436000D02*
X138246666Y-78469333D01*
X138280000Y-78502666D01*
X138313333Y-78569333D01*
X138313333Y-78669333D01*
X138280000Y-78736000D01*
X138246666Y-78769333D01*
X138180000Y-78802666D01*
X137913333Y-78802666D01*
X137913333Y-78102666D01*
X138146666Y-78102666D01*
X138213333Y-78136000D01*
X138246666Y-78169333D01*
X138280000Y-78236000D01*
X138280000Y-78302666D01*
X138246666Y-78369333D01*
X138213333Y-78402666D01*
X138146666Y-78436000D01*
X137913333Y-78436000D01*
X138913333Y-78102666D02*
X138780000Y-78102666D01*
X138713333Y-78136000D01*
X138680000Y-78169333D01*
X138613333Y-78269333D01*
X138580000Y-78402666D01*
X138580000Y-78669333D01*
X138613333Y-78736000D01*
X138646666Y-78769333D01*
X138713333Y-78802666D01*
X138846666Y-78802666D01*
X138913333Y-78769333D01*
X138946666Y-78736000D01*
X138980000Y-78669333D01*
X138980000Y-78502666D01*
X138946666Y-78436000D01*
X138913333Y-78402666D01*
X138846666Y-78369333D01*
X138713333Y-78369333D01*
X138646666Y-78402666D01*
X138613333Y-78436000D01*
X138580000Y-78502666D01*
X143280666Y-78436000D02*
X143514000Y-78436000D01*
X143614000Y-78802666D02*
X143280666Y-78802666D01*
X143280666Y-78102666D01*
X143614000Y-78102666D01*
X144214000Y-78336000D02*
X144214000Y-78802666D01*
X144047333Y-78069333D02*
X143880666Y-78569333D01*
X144314000Y-78569333D01*
X141194666Y-78436000D02*
X141294666Y-78469333D01*
X141328000Y-78502666D01*
X141361333Y-78569333D01*
X141361333Y-78669333D01*
X141328000Y-78736000D01*
X141294666Y-78769333D01*
X141228000Y-78802666D01*
X140961333Y-78802666D01*
X140961333Y-78102666D01*
X141194666Y-78102666D01*
X141261333Y-78136000D01*
X141294666Y-78169333D01*
X141328000Y-78236000D01*
X141328000Y-78302666D01*
X141294666Y-78369333D01*
X141261333Y-78402666D01*
X141194666Y-78436000D01*
X140961333Y-78436000D01*
X141594666Y-78102666D02*
X142061333Y-78102666D01*
X141761333Y-78802666D01*
X145820666Y-78436000D02*
X146054000Y-78436000D01*
X146154000Y-78802666D02*
X145820666Y-78802666D01*
X145820666Y-78102666D01*
X146154000Y-78102666D01*
X146787333Y-78102666D02*
X146454000Y-78102666D01*
X146420666Y-78436000D01*
X146454000Y-78402666D01*
X146520666Y-78369333D01*
X146687333Y-78369333D01*
X146754000Y-78402666D01*
X146787333Y-78436000D01*
X146820666Y-78502666D01*
X146820666Y-78669333D01*
X146787333Y-78736000D01*
X146754000Y-78769333D01*
X146687333Y-78802666D01*
X146520666Y-78802666D01*
X146454000Y-78769333D01*
X146420666Y-78736000D01*
X128240666Y-78436000D02*
X128340666Y-78469333D01*
X128374000Y-78502666D01*
X128407333Y-78569333D01*
X128407333Y-78669333D01*
X128374000Y-78736000D01*
X128340666Y-78769333D01*
X128274000Y-78802666D01*
X128007333Y-78802666D01*
X128007333Y-78102666D01*
X128240666Y-78102666D01*
X128307333Y-78136000D01*
X128340666Y-78169333D01*
X128374000Y-78236000D01*
X128374000Y-78302666D01*
X128340666Y-78369333D01*
X128307333Y-78402666D01*
X128240666Y-78436000D01*
X128007333Y-78436000D01*
X128674000Y-78169333D02*
X128707333Y-78136000D01*
X128774000Y-78102666D01*
X128940666Y-78102666D01*
X129007333Y-78136000D01*
X129040666Y-78169333D01*
X129074000Y-78236000D01*
X129074000Y-78302666D01*
X129040666Y-78402666D01*
X128640666Y-78802666D01*
X129074000Y-78802666D01*
X133320666Y-78436000D02*
X133420666Y-78469333D01*
X133454000Y-78502666D01*
X133487333Y-78569333D01*
X133487333Y-78669333D01*
X133454000Y-78736000D01*
X133420666Y-78769333D01*
X133354000Y-78802666D01*
X133087333Y-78802666D01*
X133087333Y-78102666D01*
X133320666Y-78102666D01*
X133387333Y-78136000D01*
X133420666Y-78169333D01*
X133454000Y-78236000D01*
X133454000Y-78302666D01*
X133420666Y-78369333D01*
X133387333Y-78402666D01*
X133320666Y-78436000D01*
X133087333Y-78436000D01*
X134087333Y-78336000D02*
X134087333Y-78802666D01*
X133920666Y-78069333D02*
X133754000Y-78569333D01*
X134187333Y-78569333D01*
X130780666Y-78436000D02*
X130880666Y-78469333D01*
X130914000Y-78502666D01*
X130947333Y-78569333D01*
X130947333Y-78669333D01*
X130914000Y-78736000D01*
X130880666Y-78769333D01*
X130814000Y-78802666D01*
X130547333Y-78802666D01*
X130547333Y-78102666D01*
X130780666Y-78102666D01*
X130847333Y-78136000D01*
X130880666Y-78169333D01*
X130914000Y-78236000D01*
X130914000Y-78302666D01*
X130880666Y-78369333D01*
X130847333Y-78402666D01*
X130780666Y-78436000D01*
X130547333Y-78436000D01*
X131180666Y-78102666D02*
X131614000Y-78102666D01*
X131380666Y-78369333D01*
X131480666Y-78369333D01*
X131547333Y-78402666D01*
X131580666Y-78436000D01*
X131614000Y-78502666D01*
X131614000Y-78669333D01*
X131580666Y-78736000D01*
X131547333Y-78769333D01*
X131480666Y-78802666D01*
X131280666Y-78802666D01*
X131214000Y-78769333D01*
X131180666Y-78736000D01*
X135860666Y-78436000D02*
X135960666Y-78469333D01*
X135994000Y-78502666D01*
X136027333Y-78569333D01*
X136027333Y-78669333D01*
X135994000Y-78736000D01*
X135960666Y-78769333D01*
X135894000Y-78802666D01*
X135627333Y-78802666D01*
X135627333Y-78102666D01*
X135860666Y-78102666D01*
X135927333Y-78136000D01*
X135960666Y-78169333D01*
X135994000Y-78236000D01*
X135994000Y-78302666D01*
X135960666Y-78369333D01*
X135927333Y-78402666D01*
X135860666Y-78436000D01*
X135627333Y-78436000D01*
X136660666Y-78102666D02*
X136327333Y-78102666D01*
X136294000Y-78436000D01*
X136327333Y-78402666D01*
X136394000Y-78369333D01*
X136560666Y-78369333D01*
X136627333Y-78402666D01*
X136660666Y-78436000D01*
X136694000Y-78502666D01*
X136694000Y-78669333D01*
X136660666Y-78736000D01*
X136627333Y-78769333D01*
X136560666Y-78802666D01*
X136394000Y-78802666D01*
X136327333Y-78769333D01*
X136294000Y-78736000D01*
X117880666Y-78436000D02*
X118114000Y-78436000D01*
X118214000Y-78802666D02*
X117880666Y-78802666D01*
X117880666Y-78102666D01*
X118214000Y-78102666D01*
X118447333Y-78102666D02*
X118914000Y-78102666D01*
X118614000Y-78802666D01*
X123160666Y-78436000D02*
X123260666Y-78469333D01*
X123294000Y-78502666D01*
X123327333Y-78569333D01*
X123327333Y-78669333D01*
X123294000Y-78736000D01*
X123260666Y-78769333D01*
X123194000Y-78802666D01*
X122927333Y-78802666D01*
X122927333Y-78102666D01*
X123160666Y-78102666D01*
X123227333Y-78136000D01*
X123260666Y-78169333D01*
X123294000Y-78236000D01*
X123294000Y-78302666D01*
X123260666Y-78369333D01*
X123227333Y-78402666D01*
X123160666Y-78436000D01*
X122927333Y-78436000D01*
X123760666Y-78102666D02*
X123827333Y-78102666D01*
X123894000Y-78136000D01*
X123927333Y-78169333D01*
X123960666Y-78236000D01*
X123994000Y-78369333D01*
X123994000Y-78536000D01*
X123960666Y-78669333D01*
X123927333Y-78736000D01*
X123894000Y-78769333D01*
X123827333Y-78802666D01*
X123760666Y-78802666D01*
X123694000Y-78769333D01*
X123660666Y-78736000D01*
X123627333Y-78669333D01*
X123594000Y-78536000D01*
X123594000Y-78369333D01*
X123627333Y-78236000D01*
X123660666Y-78169333D01*
X123694000Y-78136000D01*
X123760666Y-78102666D01*
X120420666Y-78436000D02*
X120654000Y-78436000D01*
X120754000Y-78802666D02*
X120420666Y-78802666D01*
X120420666Y-78102666D01*
X120754000Y-78102666D01*
X120987333Y-78102666D02*
X121420666Y-78102666D01*
X121187333Y-78369333D01*
X121287333Y-78369333D01*
X121354000Y-78402666D01*
X121387333Y-78436000D01*
X121420666Y-78502666D01*
X121420666Y-78669333D01*
X121387333Y-78736000D01*
X121354000Y-78769333D01*
X121287333Y-78802666D01*
X121087333Y-78802666D01*
X121020666Y-78769333D01*
X120987333Y-78736000D01*
X125700666Y-78436000D02*
X125800666Y-78469333D01*
X125834000Y-78502666D01*
X125867333Y-78569333D01*
X125867333Y-78669333D01*
X125834000Y-78736000D01*
X125800666Y-78769333D01*
X125734000Y-78802666D01*
X125467333Y-78802666D01*
X125467333Y-78102666D01*
X125700666Y-78102666D01*
X125767333Y-78136000D01*
X125800666Y-78169333D01*
X125834000Y-78236000D01*
X125834000Y-78302666D01*
X125800666Y-78369333D01*
X125767333Y-78402666D01*
X125700666Y-78436000D01*
X125467333Y-78436000D01*
X126534000Y-78802666D02*
X126134000Y-78802666D01*
X126334000Y-78802666D02*
X126334000Y-78102666D01*
X126267333Y-78202666D01*
X126200666Y-78269333D01*
X126134000Y-78302666D01*
X107324666Y-78602666D02*
X107658000Y-78602666D01*
X107258000Y-78802666D02*
X107491333Y-78102666D01*
X107724666Y-78802666D01*
X108358000Y-78802666D02*
X108124666Y-78469333D01*
X107958000Y-78802666D02*
X107958000Y-78102666D01*
X108224666Y-78102666D01*
X108291333Y-78136000D01*
X108324666Y-78169333D01*
X108358000Y-78236000D01*
X108358000Y-78336000D01*
X108324666Y-78402666D01*
X108291333Y-78436000D01*
X108224666Y-78469333D01*
X107958000Y-78469333D01*
X108658000Y-78436000D02*
X108891333Y-78436000D01*
X108991333Y-78802666D02*
X108658000Y-78802666D01*
X108658000Y-78102666D01*
X108991333Y-78102666D01*
X109524666Y-78436000D02*
X109291333Y-78436000D01*
X109291333Y-78802666D02*
X109291333Y-78102666D01*
X109624666Y-78102666D01*
X113050666Y-78436000D02*
X112817333Y-78436000D01*
X112817333Y-78802666D02*
X112817333Y-78102666D01*
X113150666Y-78102666D01*
X113550666Y-78102666D02*
X113617333Y-78102666D01*
X113684000Y-78136000D01*
X113717333Y-78169333D01*
X113750666Y-78236000D01*
X113784000Y-78369333D01*
X113784000Y-78536000D01*
X113750666Y-78669333D01*
X113717333Y-78736000D01*
X113684000Y-78769333D01*
X113617333Y-78802666D01*
X113550666Y-78802666D01*
X113484000Y-78769333D01*
X113450666Y-78736000D01*
X113417333Y-78669333D01*
X113384000Y-78536000D01*
X113384000Y-78369333D01*
X113417333Y-78236000D01*
X113450666Y-78169333D01*
X113484000Y-78136000D01*
X113550666Y-78102666D01*
X110510666Y-78436000D02*
X110277333Y-78436000D01*
X110277333Y-78802666D02*
X110277333Y-78102666D01*
X110610666Y-78102666D01*
X111244000Y-78802666D02*
X110844000Y-78802666D01*
X111044000Y-78802666D02*
X111044000Y-78102666D01*
X110977333Y-78202666D01*
X110910666Y-78269333D01*
X110844000Y-78302666D01*
X115340666Y-78436000D02*
X115574000Y-78436000D01*
X115674000Y-78802666D02*
X115340666Y-78802666D01*
X115340666Y-78102666D01*
X115674000Y-78102666D01*
X116274000Y-78102666D02*
X116140666Y-78102666D01*
X116074000Y-78136000D01*
X116040666Y-78169333D01*
X115974000Y-78269333D01*
X115940666Y-78402666D01*
X115940666Y-78669333D01*
X115974000Y-78736000D01*
X116007333Y-78769333D01*
X116074000Y-78802666D01*
X116207333Y-78802666D01*
X116274000Y-78769333D01*
X116307333Y-78736000D01*
X116340666Y-78669333D01*
X116340666Y-78502666D01*
X116307333Y-78436000D01*
X116274000Y-78402666D01*
X116207333Y-78369333D01*
X116074000Y-78369333D01*
X116007333Y-78402666D01*
X115974000Y-78436000D01*
X115940666Y-78502666D01*
X166140666Y-65736000D02*
X166374000Y-65736000D01*
X166474000Y-66102666D02*
X166140666Y-66102666D01*
X166140666Y-65402666D01*
X166474000Y-65402666D01*
X166740666Y-65469333D02*
X166774000Y-65436000D01*
X166840666Y-65402666D01*
X167007333Y-65402666D01*
X167074000Y-65436000D01*
X167107333Y-65469333D01*
X167140666Y-65536000D01*
X167140666Y-65602666D01*
X167107333Y-65702666D01*
X166707333Y-66102666D01*
X167140666Y-66102666D01*
X171220666Y-65736000D02*
X171454000Y-65736000D01*
X171554000Y-66102666D02*
X171220666Y-66102666D01*
X171220666Y-65402666D01*
X171554000Y-65402666D01*
X171987333Y-65402666D02*
X172054000Y-65402666D01*
X172120666Y-65436000D01*
X172154000Y-65469333D01*
X172187333Y-65536000D01*
X172220666Y-65669333D01*
X172220666Y-65836000D01*
X172187333Y-65969333D01*
X172154000Y-66036000D01*
X172120666Y-66069333D01*
X172054000Y-66102666D01*
X171987333Y-66102666D01*
X171920666Y-66069333D01*
X171887333Y-66036000D01*
X171854000Y-65969333D01*
X171820666Y-65836000D01*
X171820666Y-65669333D01*
X171854000Y-65536000D01*
X171887333Y-65469333D01*
X171920666Y-65436000D01*
X171987333Y-65402666D01*
X168680666Y-65736000D02*
X168914000Y-65736000D01*
X169014000Y-66102666D02*
X168680666Y-66102666D01*
X168680666Y-65402666D01*
X169014000Y-65402666D01*
X169680666Y-66102666D02*
X169280666Y-66102666D01*
X169480666Y-66102666D02*
X169480666Y-65402666D01*
X169414000Y-65502666D01*
X169347333Y-65569333D01*
X169280666Y-65602666D01*
X156347333Y-66036000D02*
X156314000Y-66069333D01*
X156214000Y-66102666D01*
X156147333Y-66102666D01*
X156047333Y-66069333D01*
X155980666Y-66002666D01*
X155947333Y-65936000D01*
X155914000Y-65802666D01*
X155914000Y-65702666D01*
X155947333Y-65569333D01*
X155980666Y-65502666D01*
X156047333Y-65436000D01*
X156147333Y-65402666D01*
X156214000Y-65402666D01*
X156314000Y-65436000D01*
X156347333Y-65469333D01*
X156947333Y-65636000D02*
X156947333Y-66102666D01*
X156780666Y-65369333D02*
X156614000Y-65869333D01*
X157047333Y-65869333D01*
X161427333Y-66036000D02*
X161394000Y-66069333D01*
X161294000Y-66102666D01*
X161227333Y-66102666D01*
X161127333Y-66069333D01*
X161060666Y-66002666D01*
X161027333Y-65936000D01*
X160994000Y-65802666D01*
X160994000Y-65702666D01*
X161027333Y-65569333D01*
X161060666Y-65502666D01*
X161127333Y-65436000D01*
X161227333Y-65402666D01*
X161294000Y-65402666D01*
X161394000Y-65436000D01*
X161427333Y-65469333D01*
X162027333Y-65402666D02*
X161894000Y-65402666D01*
X161827333Y-65436000D01*
X161794000Y-65469333D01*
X161727333Y-65569333D01*
X161694000Y-65702666D01*
X161694000Y-65969333D01*
X161727333Y-66036000D01*
X161760666Y-66069333D01*
X161827333Y-66102666D01*
X161960666Y-66102666D01*
X162027333Y-66069333D01*
X162060666Y-66036000D01*
X162094000Y-65969333D01*
X162094000Y-65802666D01*
X162060666Y-65736000D01*
X162027333Y-65702666D01*
X161960666Y-65669333D01*
X161827333Y-65669333D01*
X161760666Y-65702666D01*
X161727333Y-65736000D01*
X161694000Y-65802666D01*
X158887333Y-66036000D02*
X158854000Y-66069333D01*
X158754000Y-66102666D01*
X158687333Y-66102666D01*
X158587333Y-66069333D01*
X158520666Y-66002666D01*
X158487333Y-65936000D01*
X158454000Y-65802666D01*
X158454000Y-65702666D01*
X158487333Y-65569333D01*
X158520666Y-65502666D01*
X158587333Y-65436000D01*
X158687333Y-65402666D01*
X158754000Y-65402666D01*
X158854000Y-65436000D01*
X158887333Y-65469333D01*
X159520666Y-65402666D02*
X159187333Y-65402666D01*
X159154000Y-65736000D01*
X159187333Y-65702666D01*
X159254000Y-65669333D01*
X159420666Y-65669333D01*
X159487333Y-65702666D01*
X159520666Y-65736000D01*
X159554000Y-65802666D01*
X159554000Y-65969333D01*
X159520666Y-66036000D01*
X159487333Y-66069333D01*
X159420666Y-66102666D01*
X159254000Y-66102666D01*
X159187333Y-66069333D01*
X159154000Y-66036000D01*
X163967333Y-66036000D02*
X163934000Y-66069333D01*
X163834000Y-66102666D01*
X163767333Y-66102666D01*
X163667333Y-66069333D01*
X163600666Y-66002666D01*
X163567333Y-65936000D01*
X163534000Y-65802666D01*
X163534000Y-65702666D01*
X163567333Y-65569333D01*
X163600666Y-65502666D01*
X163667333Y-65436000D01*
X163767333Y-65402666D01*
X163834000Y-65402666D01*
X163934000Y-65436000D01*
X163967333Y-65469333D01*
X164200666Y-65402666D02*
X164667333Y-65402666D01*
X164367333Y-66102666D01*
X146187333Y-66036000D02*
X146154000Y-66069333D01*
X146054000Y-66102666D01*
X145987333Y-66102666D01*
X145887333Y-66069333D01*
X145820666Y-66002666D01*
X145787333Y-65936000D01*
X145754000Y-65802666D01*
X145754000Y-65702666D01*
X145787333Y-65569333D01*
X145820666Y-65502666D01*
X145887333Y-65436000D01*
X145987333Y-65402666D01*
X146054000Y-65402666D01*
X146154000Y-65436000D01*
X146187333Y-65469333D01*
X146620666Y-65402666D02*
X146687333Y-65402666D01*
X146754000Y-65436000D01*
X146787333Y-65469333D01*
X146820666Y-65536000D01*
X146854000Y-65669333D01*
X146854000Y-65836000D01*
X146820666Y-65969333D01*
X146787333Y-66036000D01*
X146754000Y-66069333D01*
X146687333Y-66102666D01*
X146620666Y-66102666D01*
X146554000Y-66069333D01*
X146520666Y-66036000D01*
X146487333Y-65969333D01*
X146454000Y-65836000D01*
X146454000Y-65669333D01*
X146487333Y-65536000D01*
X146520666Y-65469333D01*
X146554000Y-65436000D01*
X146620666Y-65402666D01*
X151267333Y-66036000D02*
X151234000Y-66069333D01*
X151134000Y-66102666D01*
X151067333Y-66102666D01*
X150967333Y-66069333D01*
X150900666Y-66002666D01*
X150867333Y-65936000D01*
X150834000Y-65802666D01*
X150834000Y-65702666D01*
X150867333Y-65569333D01*
X150900666Y-65502666D01*
X150967333Y-65436000D01*
X151067333Y-65402666D01*
X151134000Y-65402666D01*
X151234000Y-65436000D01*
X151267333Y-65469333D01*
X151534000Y-65469333D02*
X151567333Y-65436000D01*
X151634000Y-65402666D01*
X151800666Y-65402666D01*
X151867333Y-65436000D01*
X151900666Y-65469333D01*
X151934000Y-65536000D01*
X151934000Y-65602666D01*
X151900666Y-65702666D01*
X151500666Y-66102666D01*
X151934000Y-66102666D01*
X148727333Y-66036000D02*
X148694000Y-66069333D01*
X148594000Y-66102666D01*
X148527333Y-66102666D01*
X148427333Y-66069333D01*
X148360666Y-66002666D01*
X148327333Y-65936000D01*
X148294000Y-65802666D01*
X148294000Y-65702666D01*
X148327333Y-65569333D01*
X148360666Y-65502666D01*
X148427333Y-65436000D01*
X148527333Y-65402666D01*
X148594000Y-65402666D01*
X148694000Y-65436000D01*
X148727333Y-65469333D01*
X149394000Y-66102666D02*
X148994000Y-66102666D01*
X149194000Y-66102666D02*
X149194000Y-65402666D01*
X149127333Y-65502666D01*
X149060666Y-65569333D01*
X148994000Y-65602666D01*
X153807333Y-66036000D02*
X153774000Y-66069333D01*
X153674000Y-66102666D01*
X153607333Y-66102666D01*
X153507333Y-66069333D01*
X153440666Y-66002666D01*
X153407333Y-65936000D01*
X153374000Y-65802666D01*
X153374000Y-65702666D01*
X153407333Y-65569333D01*
X153440666Y-65502666D01*
X153507333Y-65436000D01*
X153607333Y-65402666D01*
X153674000Y-65402666D01*
X153774000Y-65436000D01*
X153807333Y-65469333D01*
X154040666Y-65402666D02*
X154474000Y-65402666D01*
X154240666Y-65669333D01*
X154340666Y-65669333D01*
X154407333Y-65702666D01*
X154440666Y-65736000D01*
X154474000Y-65802666D01*
X154474000Y-65969333D01*
X154440666Y-66036000D01*
X154407333Y-66069333D01*
X154340666Y-66102666D01*
X154140666Y-66102666D01*
X154074000Y-66069333D01*
X154040666Y-66036000D01*
X135644000Y-65902666D02*
X135977333Y-65902666D01*
X135577333Y-66102666D02*
X135810666Y-65402666D01*
X136044000Y-66102666D01*
X136577333Y-65636000D02*
X136577333Y-66102666D01*
X136410666Y-65369333D02*
X136244000Y-65869333D01*
X136677333Y-65869333D01*
X140978000Y-65902666D02*
X141311333Y-65902666D01*
X140911333Y-66102666D02*
X141144666Y-65402666D01*
X141378000Y-66102666D01*
X141911333Y-65402666D02*
X141778000Y-65402666D01*
X141711333Y-65436000D01*
X141678000Y-65469333D01*
X141611333Y-65569333D01*
X141578000Y-65702666D01*
X141578000Y-65969333D01*
X141611333Y-66036000D01*
X141644666Y-66069333D01*
X141711333Y-66102666D01*
X141844666Y-66102666D01*
X141911333Y-66069333D01*
X141944666Y-66036000D01*
X141978000Y-65969333D01*
X141978000Y-65802666D01*
X141944666Y-65736000D01*
X141911333Y-65702666D01*
X141844666Y-65669333D01*
X141711333Y-65669333D01*
X141644666Y-65702666D01*
X141611333Y-65736000D01*
X141578000Y-65802666D01*
X137930000Y-65902666D02*
X138263333Y-65902666D01*
X137863333Y-66102666D02*
X138096666Y-65402666D01*
X138330000Y-66102666D01*
X138896666Y-65402666D02*
X138563333Y-65402666D01*
X138530000Y-65736000D01*
X138563333Y-65702666D01*
X138630000Y-65669333D01*
X138796666Y-65669333D01*
X138863333Y-65702666D01*
X138896666Y-65736000D01*
X138930000Y-65802666D01*
X138930000Y-65969333D01*
X138896666Y-66036000D01*
X138863333Y-66069333D01*
X138796666Y-66102666D01*
X138630000Y-66102666D01*
X138563333Y-66069333D01*
X138530000Y-66036000D01*
X143264000Y-65902666D02*
X143597333Y-65902666D01*
X143197333Y-66102666D02*
X143430666Y-65402666D01*
X143664000Y-66102666D01*
X143830666Y-65402666D02*
X144297333Y-65402666D01*
X143997333Y-66102666D01*
X125484000Y-65902666D02*
X125817333Y-65902666D01*
X125417333Y-66102666D02*
X125650666Y-65402666D01*
X125884000Y-66102666D01*
X126250666Y-65402666D02*
X126317333Y-65402666D01*
X126384000Y-65436000D01*
X126417333Y-65469333D01*
X126450666Y-65536000D01*
X126484000Y-65669333D01*
X126484000Y-65836000D01*
X126450666Y-65969333D01*
X126417333Y-66036000D01*
X126384000Y-66069333D01*
X126317333Y-66102666D01*
X126250666Y-66102666D01*
X126184000Y-66069333D01*
X126150666Y-66036000D01*
X126117333Y-65969333D01*
X126084000Y-65836000D01*
X126084000Y-65669333D01*
X126117333Y-65536000D01*
X126150666Y-65469333D01*
X126184000Y-65436000D01*
X126250666Y-65402666D01*
X130564000Y-65902666D02*
X130897333Y-65902666D01*
X130497333Y-66102666D02*
X130730666Y-65402666D01*
X130964000Y-66102666D01*
X131164000Y-65469333D02*
X131197333Y-65436000D01*
X131264000Y-65402666D01*
X131430666Y-65402666D01*
X131497333Y-65436000D01*
X131530666Y-65469333D01*
X131564000Y-65536000D01*
X131564000Y-65602666D01*
X131530666Y-65702666D01*
X131130666Y-66102666D01*
X131564000Y-66102666D01*
X128024000Y-65902666D02*
X128357333Y-65902666D01*
X127957333Y-66102666D02*
X128190666Y-65402666D01*
X128424000Y-66102666D01*
X129024000Y-66102666D02*
X128624000Y-66102666D01*
X128824000Y-66102666D02*
X128824000Y-65402666D01*
X128757333Y-65502666D01*
X128690666Y-65569333D01*
X128624000Y-65602666D01*
X133104000Y-65902666D02*
X133437333Y-65902666D01*
X133037333Y-66102666D02*
X133270666Y-65402666D01*
X133504000Y-66102666D01*
X133670666Y-65402666D02*
X134104000Y-65402666D01*
X133870666Y-65669333D01*
X133970666Y-65669333D01*
X134037333Y-65702666D01*
X134070666Y-65736000D01*
X134104000Y-65802666D01*
X134104000Y-65969333D01*
X134070666Y-66036000D01*
X134037333Y-66069333D01*
X133970666Y-66102666D01*
X133770666Y-66102666D01*
X133704000Y-66069333D01*
X133670666Y-66036000D01*
X123210666Y-65736000D02*
X122977333Y-65736000D01*
X122977333Y-66102666D02*
X122977333Y-65402666D01*
X123310666Y-65402666D01*
X123510666Y-65402666D02*
X123977333Y-65402666D01*
X123677333Y-66102666D01*
X120670666Y-65736000D02*
X120437333Y-65736000D01*
X120437333Y-66102666D02*
X120437333Y-65402666D01*
X120770666Y-65402666D01*
X121337333Y-65402666D02*
X121204000Y-65402666D01*
X121137333Y-65436000D01*
X121104000Y-65469333D01*
X121037333Y-65569333D01*
X121004000Y-65702666D01*
X121004000Y-65969333D01*
X121037333Y-66036000D01*
X121070666Y-66069333D01*
X121137333Y-66102666D01*
X121270666Y-66102666D01*
X121337333Y-66069333D01*
X121370666Y-66036000D01*
X121404000Y-65969333D01*
X121404000Y-65802666D01*
X121370666Y-65736000D01*
X121337333Y-65702666D01*
X121270666Y-65669333D01*
X121137333Y-65669333D01*
X121070666Y-65702666D01*
X121037333Y-65736000D01*
X121004000Y-65802666D01*
X118130666Y-65736000D02*
X117897333Y-65736000D01*
X117897333Y-66102666D02*
X117897333Y-65402666D01*
X118230666Y-65402666D01*
X118830666Y-65402666D02*
X118497333Y-65402666D01*
X118464000Y-65736000D01*
X118497333Y-65702666D01*
X118564000Y-65669333D01*
X118730666Y-65669333D01*
X118797333Y-65702666D01*
X118830666Y-65736000D01*
X118864000Y-65802666D01*
X118864000Y-65969333D01*
X118830666Y-66036000D01*
X118797333Y-66069333D01*
X118730666Y-66102666D01*
X118564000Y-66102666D01*
X118497333Y-66069333D01*
X118464000Y-66036000D01*
X115590666Y-65736000D02*
X115357333Y-65736000D01*
X115357333Y-66102666D02*
X115357333Y-65402666D01*
X115690666Y-65402666D01*
X116257333Y-65636000D02*
X116257333Y-66102666D01*
X116090666Y-65369333D02*
X115924000Y-65869333D01*
X116357333Y-65869333D01*
X113050666Y-65736000D02*
X112817333Y-65736000D01*
X112817333Y-66102666D02*
X112817333Y-65402666D01*
X113150666Y-65402666D01*
X113350666Y-65402666D02*
X113784000Y-65402666D01*
X113550666Y-65669333D01*
X113650666Y-65669333D01*
X113717333Y-65702666D01*
X113750666Y-65736000D01*
X113784000Y-65802666D01*
X113784000Y-65969333D01*
X113750666Y-66036000D01*
X113717333Y-66069333D01*
X113650666Y-66102666D01*
X113450666Y-66102666D01*
X113384000Y-66069333D01*
X113350666Y-66036000D01*
X110510666Y-65736000D02*
X110277333Y-65736000D01*
X110277333Y-66102666D02*
X110277333Y-65402666D01*
X110610666Y-65402666D01*
X110844000Y-65469333D02*
X110877333Y-65436000D01*
X110944000Y-65402666D01*
X111110666Y-65402666D01*
X111177333Y-65436000D01*
X111210666Y-65469333D01*
X111244000Y-65536000D01*
X111244000Y-65602666D01*
X111210666Y-65702666D01*
X110810666Y-66102666D01*
X111244000Y-66102666D01*
X107304000Y-65836000D02*
X107837333Y-65836000D01*
X107570666Y-66102666D02*
X107570666Y-65569333D01*
X108504000Y-65402666D02*
X108170666Y-65402666D01*
X108137333Y-65736000D01*
X108170666Y-65702666D01*
X108237333Y-65669333D01*
X108404000Y-65669333D01*
X108470666Y-65702666D01*
X108504000Y-65736000D01*
X108537333Y-65802666D01*
X108537333Y-65969333D01*
X108504000Y-66036000D01*
X108470666Y-66069333D01*
X108404000Y-66102666D01*
X108237333Y-66102666D01*
X108170666Y-66069333D01*
X108137333Y-66036000D01*
X108737333Y-65402666D02*
X108970666Y-66102666D01*
X109204000Y-65402666D01*
D10*
%TO.C,U1*%
X133770351Y-71800124D02*
X133434475Y-72136000D01*
X146473525Y-72136000D02*
X146137649Y-71800124D01*
X146137649Y-72471876D02*
X146473525Y-72136000D01*
X139954000Y-78655525D02*
X139618124Y-78319649D01*
X140289876Y-78319649D02*
X139954000Y-78655525D01*
X139954000Y-65616475D02*
X140289876Y-65952351D01*
X139618124Y-65952351D02*
X139954000Y-65616475D01*
%TO.C,R3*%
X143231965Y-77650436D02*
X143014684Y-77867717D01*
X142694564Y-77113035D02*
X142477283Y-77330316D01*
%TO.C,D2*%
X126046500Y-68636000D02*
X123361500Y-68636000D01*
X123361500Y-68636000D02*
X123361500Y-70556000D01*
X123361500Y-70556000D02*
X126046500Y-70556000D01*
%TO.C,C4*%
X131593000Y-72028164D02*
X131593000Y-72243836D01*
X132313000Y-72028164D02*
X132313000Y-72243836D01*
%TO.C,C5*%
X117962000Y-71375748D02*
X117962000Y-72798252D01*
X119782000Y-71375748D02*
X119782000Y-72798252D01*
%TO.C,Y1*%
X148884000Y-73966000D02*
X152184000Y-73966000D01*
X152184000Y-73966000D02*
X152184000Y-69966000D01*
%TO.C,SW1*%
X172538000Y-75236000D02*
X171888000Y-75236000D01*
X168838000Y-75236000D02*
X169488000Y-75236000D01*
X169488000Y-69036000D02*
X168838000Y-69036000D01*
X172538000Y-69036000D02*
X171888000Y-69036000D01*
X172538000Y-75236000D02*
X172538000Y-69036000D01*
X168838000Y-69036000D02*
X168838000Y-75236000D01*
%TO.C,R5*%
X128679641Y-69976000D02*
X128372359Y-69976000D01*
X128679641Y-69216000D02*
X128372359Y-69216000D01*
%TO.C,R4*%
X128677641Y-75056000D02*
X128370359Y-75056000D01*
X128677641Y-74296000D02*
X128370359Y-74296000D01*
%TO.C,R2*%
X121260359Y-71248000D02*
X121567641Y-71248000D01*
X121260359Y-72008000D02*
X121567641Y-72008000D01*
%TO.C,R1*%
X121567641Y-73024000D02*
X121260359Y-73024000D01*
X121567641Y-72264000D02*
X121260359Y-72264000D01*
%TO.C,J1*%
X106004000Y-76096000D02*
X107664000Y-76096000D01*
X106004000Y-68176000D02*
X106004000Y-76096000D01*
X107664000Y-68176000D02*
X106004000Y-68176000D01*
X115474000Y-74186000D02*
X115474000Y-75336000D01*
X116064000Y-70086000D02*
X116064000Y-70786000D01*
X115474000Y-70086000D02*
X116064000Y-70086000D01*
X115474000Y-68936000D02*
X115474000Y-70086000D01*
X113164000Y-76096000D02*
X110564000Y-76096000D01*
X110564000Y-68176000D02*
X113164000Y-68176000D01*
%TO.C,D1*%
X123361500Y-75636000D02*
X126046500Y-75636000D01*
X123361500Y-73716000D02*
X123361500Y-75636000D01*
X126046500Y-73716000D02*
X123361500Y-73716000D01*
%TO.C,C3*%
X134547436Y-74976400D02*
X134331764Y-74976400D01*
X134547436Y-75696400D02*
X134331764Y-75696400D01*
%TO.C,C2*%
X148442000Y-71238164D02*
X148442000Y-71453836D01*
X147722000Y-71238164D02*
X147722000Y-71453836D01*
%TO.C,C1*%
X152548000Y-72779836D02*
X152548000Y-72564164D01*
X153268000Y-72779836D02*
X153268000Y-72564164D01*
%TD*%
M02*
