%TF.GenerationSoftware,KiCad,Pcbnew,(5.1.10-1-10_14)*%
%TF.CreationDate,2021-09-16T13:02:04+08:00*%
%TF.ProjectId,AT90USB1287-Board,41543930-5553-4423-9132-38372d426f61,rev?*%
%TF.SameCoordinates,Original*%
%TF.FileFunction,Copper,L2,Bot*%
%TF.FilePolarity,Positive*%
%FSLAX46Y46*%
G04 Gerber Fmt 4.6, Leading zero omitted, Abs format (unit mm)*
G04 Created by KiCad (PCBNEW (5.1.10-1-10_14)) date 2021-09-16 13:02:04*
%MOMM*%
%LPD*%
G01*
G04 APERTURE LIST*
%TA.AperFunction,ComponentPad*%
%ADD10O,1.350000X1.350000*%
%TD*%
%TA.AperFunction,ComponentPad*%
%ADD11R,1.350000X1.350000*%
%TD*%
%TA.AperFunction,ViaPad*%
%ADD12C,0.800000*%
%TD*%
%TA.AperFunction,ViaPad*%
%ADD13C,0.600000*%
%TD*%
%TA.AperFunction,Conductor*%
%ADD14C,0.200000*%
%TD*%
%TA.AperFunction,Conductor*%
%ADD15C,0.300000*%
%TD*%
%TA.AperFunction,Conductor*%
%ADD16C,1.000000*%
%TD*%
%TA.AperFunction,Conductor*%
%ADD17C,0.254000*%
%TD*%
%TA.AperFunction,Conductor*%
%ADD18C,0.100000*%
%TD*%
G04 APERTURE END LIST*
D10*
%TO.P,J3,26*%
%TO.N,/PE0*%
X171704000Y-64516000D03*
%TO.P,J3,25*%
%TO.N,/PE1*%
X169164000Y-64516000D03*
%TO.P,J3,24*%
%TO.N,/PE2*%
X166624000Y-64516000D03*
%TO.P,J3,23*%
%TO.N,/PC7*%
X164084000Y-64516000D03*
%TO.P,J3,22*%
%TO.N,/PC6*%
X161544000Y-64516000D03*
%TO.P,J3,21*%
%TO.N,/PC5*%
X159004000Y-64516000D03*
%TO.P,J3,20*%
%TO.N,/PC4*%
X156464000Y-64516000D03*
%TO.P,J3,19*%
%TO.N,/PC3*%
X153924000Y-64516000D03*
%TO.P,J3,18*%
%TO.N,/PC2*%
X151384000Y-64516000D03*
%TO.P,J3,17*%
%TO.N,/PC1*%
X148844000Y-64516000D03*
%TO.P,J3,16*%
%TO.N,/PC0*%
X146304000Y-64516000D03*
%TO.P,J3,15*%
%TO.N,/PA7*%
X143764000Y-64516000D03*
%TO.P,J3,14*%
%TO.N,/PA6*%
X141224000Y-64516000D03*
%TO.P,J3,13*%
%TO.N,/PA5*%
X138684000Y-64516000D03*
%TO.P,J3,12*%
%TO.N,/PA4*%
X136144000Y-64516000D03*
%TO.P,J3,11*%
%TO.N,/PA3*%
X133604000Y-64516000D03*
%TO.P,J3,10*%
%TO.N,/PA2*%
X131064000Y-64516000D03*
%TO.P,J3,9*%
%TO.N,/PA1*%
X128524000Y-64516000D03*
%TO.P,J3,8*%
%TO.N,/PA0*%
X125984000Y-64516000D03*
%TO.P,J3,7*%
%TO.N,/PF7*%
X123444000Y-64516000D03*
%TO.P,J3,6*%
%TO.N,/PF6*%
X120904000Y-64516000D03*
%TO.P,J3,5*%
%TO.N,/PF5*%
X118364000Y-64516000D03*
%TO.P,J3,4*%
%TO.N,/PF4*%
X115824000Y-64516000D03*
%TO.P,J3,3*%
%TO.N,/PF3*%
X113284000Y-64516000D03*
%TO.P,J3,2*%
%TO.N,/PF2*%
X110744000Y-64516000D03*
D11*
%TO.P,J3,1*%
%TO.N,+5V*%
X108204000Y-64516000D03*
%TD*%
D10*
%TO.P,J2,26*%
%TO.N,GND*%
X171704000Y-79756000D03*
%TO.P,J2,25*%
%TO.N,/PD7*%
X169164000Y-79756000D03*
%TO.P,J2,24*%
%TO.N,/PD6*%
X166624000Y-79756000D03*
%TO.P,J2,23*%
%TO.N,/PD5*%
X164084000Y-79756000D03*
%TO.P,J2,22*%
%TO.N,/PD4*%
X161544000Y-79756000D03*
%TO.P,J2,21*%
%TO.N,/PD3*%
X159004000Y-79756000D03*
%TO.P,J2,20*%
%TO.N,/PD2*%
X156464000Y-79756000D03*
%TO.P,J2,19*%
%TO.N,/PD1*%
X153924000Y-79756000D03*
%TO.P,J2,18*%
%TO.N,/PD0*%
X151384000Y-79756000D03*
%TO.P,J2,17*%
%TO.N,/RST*%
X148844000Y-79756000D03*
%TO.P,J2,16*%
%TO.N,/PE5*%
X146304000Y-79756000D03*
%TO.P,J2,15*%
%TO.N,/PE4*%
X143764000Y-79756000D03*
%TO.P,J2,14*%
%TO.N,/PB7*%
X141224000Y-79756000D03*
%TO.P,J2,13*%
%TO.N,/PB6*%
X138684000Y-79756000D03*
%TO.P,J2,12*%
%TO.N,/PB5*%
X136144000Y-79756000D03*
%TO.P,J2,11*%
%TO.N,/PB4*%
X133604000Y-79756000D03*
%TO.P,J2,10*%
%TO.N,/PB3*%
X131064000Y-79756000D03*
%TO.P,J2,9*%
%TO.N,/PB2*%
X128524000Y-79756000D03*
%TO.P,J2,8*%
%TO.N,/PB1*%
X125984000Y-79756000D03*
%TO.P,J2,7*%
%TO.N,/PB0*%
X123444000Y-79756000D03*
%TO.P,J2,6*%
%TO.N,/PE3*%
X120904000Y-79756000D03*
%TO.P,J2,5*%
%TO.N,/PE7*%
X118364000Y-79756000D03*
%TO.P,J2,4*%
%TO.N,/PE6*%
X115824000Y-79756000D03*
%TO.P,J2,3*%
%TO.N,/PF0*%
X113284000Y-79756000D03*
%TO.P,J2,2*%
%TO.N,/PF1*%
X110744000Y-79756000D03*
D11*
%TO.P,J2,1*%
%TO.N,/AREF*%
X108204000Y-79756000D03*
%TD*%
D12*
%TO.N,GND*%
X117094000Y-75692000D03*
X118110000Y-75692000D03*
X117094000Y-76708000D03*
X118110000Y-76708000D03*
X169672000Y-76962000D03*
X170688000Y-77978000D03*
X170688000Y-76962000D03*
X171704000Y-77978000D03*
X171704000Y-76962000D03*
X169672000Y-77978000D03*
X109855000Y-77089000D03*
X115189000Y-76962000D03*
X114046000Y-76962000D03*
X115189000Y-67310000D03*
X114046000Y-67310000D03*
X109855000Y-67183000D03*
X139954000Y-74168000D03*
X138938000Y-74168000D03*
X137922000Y-74168000D03*
X137922000Y-73152000D03*
X137922000Y-72136000D03*
X137922000Y-71120000D03*
X138938000Y-70104000D03*
X139954000Y-70104000D03*
X141986000Y-70104000D03*
X141986000Y-71120000D03*
X141986000Y-72136000D03*
X141986000Y-73152000D03*
X140970000Y-74168000D03*
X140970000Y-70104000D03*
X140970000Y-71120000D03*
X140970000Y-72136000D03*
X138938000Y-72136000D03*
X138938000Y-73152000D03*
X139954000Y-71120000D03*
X139954000Y-73152000D03*
D13*
%TO.N,/PE6*%
X132791200Y-72288400D03*
D12*
%TO.N,GND*%
X121920000Y-76073000D03*
X152908000Y-70866000D03*
X129032000Y-71374000D03*
X122428000Y-69342000D03*
X121666000Y-69342000D03*
X120904000Y-69342000D03*
X108712000Y-72136000D03*
X108712000Y-73152000D03*
X108712000Y-71120000D03*
X109728000Y-73152000D03*
X109728000Y-72136000D03*
X109728000Y-71120000D03*
X110744000Y-73152000D03*
X110744000Y-72136000D03*
X110744000Y-71120000D03*
X170180000Y-72898000D03*
X170180000Y-71628000D03*
X171196000Y-72898000D03*
X171196000Y-71628000D03*
X155448000Y-72390000D03*
X155448000Y-71374000D03*
X156464000Y-72390000D03*
X156464000Y-71374000D03*
X157480000Y-72390000D03*
X157480000Y-71374000D03*
X163576000Y-68072000D03*
X146558000Y-72136000D03*
X122682000Y-76835000D03*
X128016000Y-71374000D03*
X127000000Y-71374000D03*
X133253956Y-75344779D03*
X147574000Y-77216000D03*
X150114000Y-77216000D03*
X152654000Y-77216000D03*
X155194000Y-77216000D03*
X157734000Y-77216000D03*
X160274000Y-77216000D03*
X162814000Y-77216000D03*
X165354000Y-77216000D03*
X166878000Y-68072000D03*
X119126000Y-66548000D03*
X126619000Y-75946000D03*
X125349000Y-75946000D03*
X128016000Y-73660000D03*
X129032000Y-73660000D03*
X112014000Y-71755000D03*
X112014000Y-72644000D03*
X125984000Y-71374000D03*
X124968000Y-71374000D03*
X131445000Y-73025000D03*
X148082000Y-73152000D03*
X171704000Y-66421000D03*
X171704000Y-67437000D03*
X170688000Y-67437000D03*
X162560000Y-68072000D03*
X161544000Y-68072000D03*
D13*
%TO.N,Net-(C1-Pad1)*%
X151892000Y-73152000D03*
X146423084Y-77081084D03*
%TO.N,Net-(C2-Pad1)*%
X149098000Y-70866000D03*
X144655558Y-77721442D03*
%TO.N,/AREF*%
X124361995Y-73417021D03*
D12*
%TO.N,+5V*%
X117094000Y-70281800D03*
X117094000Y-69557900D03*
X117094000Y-68834000D03*
X130048000Y-74549000D03*
X130048000Y-70358006D03*
X133350000Y-71247000D03*
D13*
X143215265Y-77129769D03*
X132461000Y-66928992D03*
%TO.N,/RST*%
X170687862Y-74836000D03*
%TO.N,/PE7*%
X132858610Y-73042484D03*
%TO.N,/PE3*%
X123879051Y-76780949D03*
X121285000Y-74041000D03*
%TO.N,/PC7*%
X164084000Y-66040000D03*
%TO.N,/PC6*%
X161544000Y-66421000D03*
%TO.N,/PC5*%
X159003996Y-66801964D03*
%TO.N,/PC4*%
X156463996Y-67056000D03*
%TO.N,/PC3*%
X153923999Y-67437000D03*
%TO.N,/PC2*%
X151384000Y-67818000D03*
%TO.N,/PC1*%
X148844000Y-68199000D03*
%TO.N,/PC0*%
X147574006Y-68834000D03*
%TO.N,/PA4*%
X141341079Y-66082010D03*
%TO.N,/DO+*%
X122936000Y-72517000D03*
X132398043Y-75019768D03*
%TO.N,/DO-*%
X122936000Y-71755000D03*
X131838866Y-74447632D03*
%TD*%
D14*
%TO.N,Net-(C1-Pad1)*%
X146423084Y-76448904D02*
X146423084Y-77081084D01*
X150100988Y-72771000D02*
X146423084Y-76448904D01*
X151511000Y-72771000D02*
X150100988Y-72771000D01*
X151892000Y-73152000D02*
X151511000Y-72771000D01*
%TO.N,Net-(C2-Pad1)*%
X149860000Y-72517000D02*
X144655558Y-77721442D01*
X149860000Y-71628000D02*
X149860000Y-72517000D01*
X149098000Y-70866000D02*
X149860000Y-71628000D01*
%TO.N,/AREF*%
X111647379Y-73417021D02*
X124361995Y-73417021D01*
X108204000Y-76860400D02*
X111647379Y-73417021D01*
X108204000Y-79756000D02*
X108204000Y-76860400D01*
D15*
%TO.N,+5V*%
X130047994Y-70358000D02*
X130048000Y-70358006D01*
X117170200Y-70358000D02*
X130047994Y-70358000D01*
X117094000Y-70281800D02*
X117170200Y-70358000D01*
X130048000Y-74549000D02*
X130048000Y-70358006D01*
X133350000Y-71247000D02*
X133350000Y-71221612D01*
X130048006Y-70358012D02*
X130048000Y-70358006D01*
X132486400Y-70358012D02*
X130048006Y-70358012D01*
X133350000Y-70358024D02*
X133350012Y-70358012D01*
X133350000Y-71247000D02*
X133350000Y-70358024D01*
X133350012Y-70358012D02*
X132486400Y-70358012D01*
D16*
X117094000Y-68834000D02*
X117094000Y-70281800D01*
X108204000Y-67086002D02*
X108204000Y-64516000D01*
X109824998Y-68707000D02*
X108204000Y-67086002D01*
X116967000Y-68707000D02*
X109824998Y-68707000D01*
X117094000Y-68834000D02*
X116967000Y-68707000D01*
D15*
X143215265Y-75377263D02*
X143215265Y-77129769D01*
X133350012Y-70358012D02*
X138196014Y-70358012D01*
X138196014Y-70358012D02*
X143215265Y-75377263D01*
X130048000Y-70358006D02*
X130048000Y-69341992D01*
X130048000Y-69341992D02*
X132461000Y-66928992D01*
D14*
%TO.N,/RST*%
X148844000Y-79756000D02*
X153764000Y-74836000D01*
X153764000Y-74836000D02*
X170687862Y-74836000D01*
%TO.N,/PE7*%
X134284211Y-76129389D02*
X134284211Y-74772011D01*
X132339591Y-78074009D02*
X134284211Y-76129389D01*
X120045990Y-78074010D02*
X132339591Y-78074009D01*
X132858610Y-73346410D02*
X132858610Y-73042484D01*
X134284211Y-74772011D02*
X132858610Y-73346410D01*
X118364000Y-79756000D02*
X120045990Y-78074010D01*
%TO.N,/PE6*%
X133934200Y-74916990D02*
X132308600Y-73291390D01*
X115824000Y-79756000D02*
X117856001Y-77723999D01*
X132308600Y-73291390D02*
X132308600Y-72771000D01*
X133934200Y-75984410D02*
X133934200Y-74916990D01*
X132308600Y-72771000D02*
X132791200Y-72288400D01*
X117856001Y-77723999D02*
X132194611Y-77723999D01*
X132194611Y-77723999D02*
X133934200Y-75984410D01*
%TO.N,/PE3*%
X123879051Y-76635051D02*
X121285000Y-74041000D01*
X123879051Y-76780949D02*
X123879051Y-76635051D01*
%TO.N,/PC7*%
X164084000Y-64516000D02*
X164084000Y-66040000D01*
%TO.N,/PC6*%
X161544000Y-64516000D02*
X161544000Y-66421000D01*
%TO.N,/PC5*%
X159004000Y-64516000D02*
X159004000Y-66801960D01*
X159004000Y-66801960D02*
X159003996Y-66801964D01*
%TO.N,/PC4*%
X156464000Y-67055996D02*
X156463996Y-67056000D01*
X156464000Y-64516000D02*
X156464000Y-67055996D01*
%TO.N,/PC3*%
X153923999Y-67012736D02*
X153923999Y-67437000D01*
X153924000Y-64516000D02*
X153923999Y-67012736D01*
%TO.N,/PC2*%
X151384000Y-64516000D02*
X151384000Y-67818000D01*
%TO.N,/PC1*%
X148844000Y-64516000D02*
X148844000Y-68363762D01*
%TO.N,/PC0*%
X147574006Y-65786006D02*
X147574006Y-68834000D01*
X146304000Y-64516000D02*
X147574006Y-65786006D01*
%TO.N,/PA4*%
X140791069Y-65532000D02*
X141341079Y-66082010D01*
X137160000Y-64516000D02*
X138176000Y-65532000D01*
X138176000Y-65532000D02*
X140791069Y-65532000D01*
X136144000Y-64516000D02*
X137160000Y-64516000D01*
%TO.N,/DO+*%
X132157065Y-75019768D02*
X132398043Y-75019768D01*
X130624833Y-76552000D02*
X132157065Y-75019768D01*
X128303800Y-76552000D02*
X130624833Y-76552000D01*
X123092000Y-72361000D02*
X124112800Y-72361000D01*
X124112800Y-72361000D02*
X128303800Y-76552000D01*
X122936000Y-72517000D02*
X123092000Y-72361000D01*
%TO.N,/DO-*%
X131838866Y-74701569D02*
X131838866Y-74447632D01*
X123092000Y-71911000D02*
X124299200Y-71911000D01*
X130438435Y-76102000D02*
X131838866Y-74701569D01*
X128490200Y-76102000D02*
X130438435Y-76102000D01*
X124299200Y-71911000D02*
X128490200Y-76102000D01*
X122936000Y-71755000D02*
X123092000Y-71911000D01*
%TD*%
D17*
%TO.N,GND*%
X110073389Y-63698858D02*
X109926858Y-63845389D01*
X109811730Y-64017691D01*
X109732428Y-64209143D01*
X109692000Y-64412387D01*
X109692000Y-64619613D01*
X109732428Y-64822857D01*
X109811730Y-65014309D01*
X109926858Y-65186611D01*
X110073389Y-65333142D01*
X110245691Y-65448270D01*
X110437143Y-65527572D01*
X110640387Y-65568000D01*
X110847613Y-65568000D01*
X111050857Y-65527572D01*
X111242309Y-65448270D01*
X111414611Y-65333142D01*
X111561142Y-65186611D01*
X111676270Y-65014309D01*
X111755572Y-64822857D01*
X111796000Y-64619613D01*
X111796000Y-64412387D01*
X111755572Y-64209143D01*
X111676270Y-64017691D01*
X111561142Y-63845389D01*
X111414611Y-63698858D01*
X111375912Y-63673000D01*
X112652088Y-63673000D01*
X112613389Y-63698858D01*
X112466858Y-63845389D01*
X112351730Y-64017691D01*
X112272428Y-64209143D01*
X112232000Y-64412387D01*
X112232000Y-64619613D01*
X112272428Y-64822857D01*
X112351730Y-65014309D01*
X112466858Y-65186611D01*
X112613389Y-65333142D01*
X112785691Y-65448270D01*
X112977143Y-65527572D01*
X113180387Y-65568000D01*
X113387613Y-65568000D01*
X113590857Y-65527572D01*
X113782309Y-65448270D01*
X113954611Y-65333142D01*
X114101142Y-65186611D01*
X114216270Y-65014309D01*
X114295572Y-64822857D01*
X114336000Y-64619613D01*
X114336000Y-64412387D01*
X114295572Y-64209143D01*
X114216270Y-64017691D01*
X114101142Y-63845389D01*
X113954611Y-63698858D01*
X113915912Y-63673000D01*
X115192088Y-63673000D01*
X115153389Y-63698858D01*
X115006858Y-63845389D01*
X114891730Y-64017691D01*
X114812428Y-64209143D01*
X114772000Y-64412387D01*
X114772000Y-64619613D01*
X114812428Y-64822857D01*
X114891730Y-65014309D01*
X115006858Y-65186611D01*
X115153389Y-65333142D01*
X115325691Y-65448270D01*
X115517143Y-65527572D01*
X115720387Y-65568000D01*
X115927613Y-65568000D01*
X116130857Y-65527572D01*
X116322309Y-65448270D01*
X116494611Y-65333142D01*
X116641142Y-65186611D01*
X116756270Y-65014309D01*
X116835572Y-64822857D01*
X116876000Y-64619613D01*
X116876000Y-64412387D01*
X116835572Y-64209143D01*
X116756270Y-64017691D01*
X116641142Y-63845389D01*
X116494611Y-63698858D01*
X116455912Y-63673000D01*
X117732088Y-63673000D01*
X117693389Y-63698858D01*
X117546858Y-63845389D01*
X117431730Y-64017691D01*
X117352428Y-64209143D01*
X117312000Y-64412387D01*
X117312000Y-64619613D01*
X117352428Y-64822857D01*
X117431730Y-65014309D01*
X117546858Y-65186611D01*
X117693389Y-65333142D01*
X117865691Y-65448270D01*
X118057143Y-65527572D01*
X118260387Y-65568000D01*
X118467613Y-65568000D01*
X118670857Y-65527572D01*
X118862309Y-65448270D01*
X119034611Y-65333142D01*
X119181142Y-65186611D01*
X119296270Y-65014309D01*
X119375572Y-64822857D01*
X119416000Y-64619613D01*
X119416000Y-64412387D01*
X119375572Y-64209143D01*
X119296270Y-64017691D01*
X119181142Y-63845389D01*
X119034611Y-63698858D01*
X118995912Y-63673000D01*
X120272088Y-63673000D01*
X120233389Y-63698858D01*
X120086858Y-63845389D01*
X119971730Y-64017691D01*
X119892428Y-64209143D01*
X119852000Y-64412387D01*
X119852000Y-64619613D01*
X119892428Y-64822857D01*
X119971730Y-65014309D01*
X120086858Y-65186611D01*
X120233389Y-65333142D01*
X120405691Y-65448270D01*
X120597143Y-65527572D01*
X120800387Y-65568000D01*
X121007613Y-65568000D01*
X121210857Y-65527572D01*
X121402309Y-65448270D01*
X121574611Y-65333142D01*
X121721142Y-65186611D01*
X121836270Y-65014309D01*
X121915572Y-64822857D01*
X121956000Y-64619613D01*
X121956000Y-64412387D01*
X121915572Y-64209143D01*
X121836270Y-64017691D01*
X121721142Y-63845389D01*
X121574611Y-63698858D01*
X121535912Y-63673000D01*
X122812088Y-63673000D01*
X122773389Y-63698858D01*
X122626858Y-63845389D01*
X122511730Y-64017691D01*
X122432428Y-64209143D01*
X122392000Y-64412387D01*
X122392000Y-64619613D01*
X122432428Y-64822857D01*
X122511730Y-65014309D01*
X122626858Y-65186611D01*
X122773389Y-65333142D01*
X122945691Y-65448270D01*
X123137143Y-65527572D01*
X123340387Y-65568000D01*
X123547613Y-65568000D01*
X123750857Y-65527572D01*
X123942309Y-65448270D01*
X124114611Y-65333142D01*
X124261142Y-65186611D01*
X124376270Y-65014309D01*
X124455572Y-64822857D01*
X124496000Y-64619613D01*
X124496000Y-64412387D01*
X124455572Y-64209143D01*
X124376270Y-64017691D01*
X124261142Y-63845389D01*
X124114611Y-63698858D01*
X124075912Y-63673000D01*
X125352088Y-63673000D01*
X125313389Y-63698858D01*
X125166858Y-63845389D01*
X125051730Y-64017691D01*
X124972428Y-64209143D01*
X124932000Y-64412387D01*
X124932000Y-64619613D01*
X124972428Y-64822857D01*
X125051730Y-65014309D01*
X125166858Y-65186611D01*
X125313389Y-65333142D01*
X125485691Y-65448270D01*
X125677143Y-65527572D01*
X125880387Y-65568000D01*
X126087613Y-65568000D01*
X126290857Y-65527572D01*
X126482309Y-65448270D01*
X126654611Y-65333142D01*
X126801142Y-65186611D01*
X126916270Y-65014309D01*
X126995572Y-64822857D01*
X127036000Y-64619613D01*
X127036000Y-64412387D01*
X126995572Y-64209143D01*
X126916270Y-64017691D01*
X126801142Y-63845389D01*
X126654611Y-63698858D01*
X126615912Y-63673000D01*
X127892088Y-63673000D01*
X127853389Y-63698858D01*
X127706858Y-63845389D01*
X127591730Y-64017691D01*
X127512428Y-64209143D01*
X127472000Y-64412387D01*
X127472000Y-64619613D01*
X127512428Y-64822857D01*
X127591730Y-65014309D01*
X127706858Y-65186611D01*
X127853389Y-65333142D01*
X128025691Y-65448270D01*
X128217143Y-65527572D01*
X128420387Y-65568000D01*
X128627613Y-65568000D01*
X128830857Y-65527572D01*
X129022309Y-65448270D01*
X129194611Y-65333142D01*
X129341142Y-65186611D01*
X129456270Y-65014309D01*
X129535572Y-64822857D01*
X129576000Y-64619613D01*
X129576000Y-64412387D01*
X129535572Y-64209143D01*
X129456270Y-64017691D01*
X129341142Y-63845389D01*
X129194611Y-63698858D01*
X129155912Y-63673000D01*
X130432088Y-63673000D01*
X130393389Y-63698858D01*
X130246858Y-63845389D01*
X130131730Y-64017691D01*
X130052428Y-64209143D01*
X130012000Y-64412387D01*
X130012000Y-64619613D01*
X130052428Y-64822857D01*
X130131730Y-65014309D01*
X130246858Y-65186611D01*
X130393389Y-65333142D01*
X130565691Y-65448270D01*
X130757143Y-65527572D01*
X130960387Y-65568000D01*
X131167613Y-65568000D01*
X131370857Y-65527572D01*
X131562309Y-65448270D01*
X131734611Y-65333142D01*
X131881142Y-65186611D01*
X131996270Y-65014309D01*
X132075572Y-64822857D01*
X132116000Y-64619613D01*
X132116000Y-64412387D01*
X132075572Y-64209143D01*
X131996270Y-64017691D01*
X131881142Y-63845389D01*
X131734611Y-63698858D01*
X131695912Y-63673000D01*
X132972088Y-63673000D01*
X132933389Y-63698858D01*
X132786858Y-63845389D01*
X132671730Y-64017691D01*
X132592428Y-64209143D01*
X132552000Y-64412387D01*
X132552000Y-64619613D01*
X132592428Y-64822857D01*
X132671730Y-65014309D01*
X132786858Y-65186611D01*
X132933389Y-65333142D01*
X133105691Y-65448270D01*
X133297143Y-65527572D01*
X133500387Y-65568000D01*
X133707613Y-65568000D01*
X133910857Y-65527572D01*
X134102309Y-65448270D01*
X134274611Y-65333142D01*
X134421142Y-65186611D01*
X134536270Y-65014309D01*
X134615572Y-64822857D01*
X134656000Y-64619613D01*
X134656000Y-64412387D01*
X134615572Y-64209143D01*
X134536270Y-64017691D01*
X134421142Y-63845389D01*
X134274611Y-63698858D01*
X134235912Y-63673000D01*
X135512088Y-63673000D01*
X135473389Y-63698858D01*
X135326858Y-63845389D01*
X135211730Y-64017691D01*
X135132428Y-64209143D01*
X135092000Y-64412387D01*
X135092000Y-64619613D01*
X135132428Y-64822857D01*
X135211730Y-65014309D01*
X135326858Y-65186611D01*
X135473389Y-65333142D01*
X135645691Y-65448270D01*
X135837143Y-65527572D01*
X136040387Y-65568000D01*
X136247613Y-65568000D01*
X136450857Y-65527572D01*
X136642309Y-65448270D01*
X136814611Y-65333142D01*
X136961142Y-65186611D01*
X137039204Y-65069783D01*
X137822147Y-65852727D01*
X137837079Y-65870921D01*
X137909711Y-65930529D01*
X137992577Y-65974822D01*
X138082492Y-66002097D01*
X138152577Y-66009000D01*
X138152585Y-66009000D01*
X138176000Y-66011306D01*
X138199415Y-66009000D01*
X140593490Y-66009000D01*
X140664079Y-66079589D01*
X140664079Y-66148689D01*
X140690095Y-66279484D01*
X140741129Y-66402690D01*
X140815219Y-66513573D01*
X140909516Y-66607870D01*
X141020399Y-66681960D01*
X141143605Y-66732994D01*
X141274400Y-66759010D01*
X141407758Y-66759010D01*
X141538553Y-66732994D01*
X141661759Y-66681960D01*
X141772642Y-66607870D01*
X141866939Y-66513573D01*
X141941029Y-66402690D01*
X141992063Y-66279484D01*
X142018079Y-66148689D01*
X142018079Y-66015331D01*
X141992063Y-65884536D01*
X141941029Y-65761330D01*
X141866939Y-65650447D01*
X141772642Y-65556150D01*
X141661759Y-65482060D01*
X141651246Y-65477705D01*
X141722309Y-65448270D01*
X141894611Y-65333142D01*
X142041142Y-65186611D01*
X142156270Y-65014309D01*
X142235572Y-64822857D01*
X142276000Y-64619613D01*
X142276000Y-64412387D01*
X142235572Y-64209143D01*
X142156270Y-64017691D01*
X142041142Y-63845389D01*
X141894611Y-63698858D01*
X141855912Y-63673000D01*
X143132088Y-63673000D01*
X143093389Y-63698858D01*
X142946858Y-63845389D01*
X142831730Y-64017691D01*
X142752428Y-64209143D01*
X142712000Y-64412387D01*
X142712000Y-64619613D01*
X142752428Y-64822857D01*
X142831730Y-65014309D01*
X142946858Y-65186611D01*
X143093389Y-65333142D01*
X143265691Y-65448270D01*
X143457143Y-65527572D01*
X143660387Y-65568000D01*
X143867613Y-65568000D01*
X144070857Y-65527572D01*
X144262309Y-65448270D01*
X144434611Y-65333142D01*
X144581142Y-65186611D01*
X144696270Y-65014309D01*
X144775572Y-64822857D01*
X144816000Y-64619613D01*
X144816000Y-64412387D01*
X144775572Y-64209143D01*
X144696270Y-64017691D01*
X144581142Y-63845389D01*
X144434611Y-63698858D01*
X144395912Y-63673000D01*
X145672088Y-63673000D01*
X145633389Y-63698858D01*
X145486858Y-63845389D01*
X145371730Y-64017691D01*
X145292428Y-64209143D01*
X145252000Y-64412387D01*
X145252000Y-64619613D01*
X145292428Y-64822857D01*
X145371730Y-65014309D01*
X145486858Y-65186611D01*
X145633389Y-65333142D01*
X145805691Y-65448270D01*
X145997143Y-65527572D01*
X146200387Y-65568000D01*
X146407613Y-65568000D01*
X146610857Y-65527572D01*
X146632166Y-65518746D01*
X147097006Y-65983586D01*
X147097007Y-68353576D01*
X147048146Y-68402437D01*
X146974056Y-68513320D01*
X146923022Y-68636526D01*
X146897006Y-68767321D01*
X146897006Y-68900679D01*
X146923022Y-69031474D01*
X146974056Y-69154680D01*
X147048146Y-69265563D01*
X147142443Y-69359860D01*
X147253326Y-69433950D01*
X147376532Y-69484984D01*
X147507327Y-69511000D01*
X147640685Y-69511000D01*
X147771480Y-69484984D01*
X147894686Y-69433950D01*
X148005569Y-69359860D01*
X148099866Y-69265563D01*
X148173956Y-69154680D01*
X148224990Y-69031474D01*
X148251006Y-68900679D01*
X148251006Y-68767321D01*
X148224990Y-68636526D01*
X148173956Y-68513320D01*
X148099866Y-68402437D01*
X148051006Y-68353577D01*
X148051006Y-65809421D01*
X148053312Y-65786006D01*
X148051006Y-65762591D01*
X148051006Y-65762583D01*
X148044103Y-65692498D01*
X148016828Y-65602583D01*
X147972535Y-65519717D01*
X147961262Y-65505981D01*
X147927858Y-65465278D01*
X147927856Y-65465276D01*
X147912927Y-65447085D01*
X147894735Y-65432155D01*
X147306746Y-64844166D01*
X147315572Y-64822857D01*
X147356000Y-64619613D01*
X147356000Y-64412387D01*
X147315572Y-64209143D01*
X147236270Y-64017691D01*
X147121142Y-63845389D01*
X146974611Y-63698858D01*
X146935912Y-63673000D01*
X148212088Y-63673000D01*
X148173389Y-63698858D01*
X148026858Y-63845389D01*
X147911730Y-64017691D01*
X147832428Y-64209143D01*
X147792000Y-64412387D01*
X147792000Y-64619613D01*
X147832428Y-64822857D01*
X147911730Y-65014309D01*
X148026858Y-65186611D01*
X148173389Y-65333142D01*
X148345691Y-65448270D01*
X148367000Y-65457097D01*
X148367001Y-67718576D01*
X148318140Y-67767437D01*
X148244050Y-67878320D01*
X148193016Y-68001526D01*
X148167000Y-68132321D01*
X148167000Y-68265679D01*
X148193016Y-68396474D01*
X148244050Y-68519680D01*
X148318140Y-68630563D01*
X148412437Y-68724860D01*
X148523320Y-68798950D01*
X148646526Y-68849984D01*
X148777321Y-68876000D01*
X148910679Y-68876000D01*
X149041474Y-68849984D01*
X149164680Y-68798950D01*
X149275563Y-68724860D01*
X149369860Y-68630563D01*
X149443950Y-68519680D01*
X149494984Y-68396474D01*
X149521000Y-68265679D01*
X149521000Y-68132321D01*
X149494984Y-68001526D01*
X149443950Y-67878320D01*
X149369860Y-67767437D01*
X149321000Y-67718577D01*
X149321000Y-65457096D01*
X149342309Y-65448270D01*
X149514611Y-65333142D01*
X149661142Y-65186611D01*
X149776270Y-65014309D01*
X149855572Y-64822857D01*
X149896000Y-64619613D01*
X149896000Y-64412387D01*
X149855572Y-64209143D01*
X149776270Y-64017691D01*
X149661142Y-63845389D01*
X149514611Y-63698858D01*
X149475912Y-63673000D01*
X150752088Y-63673000D01*
X150713389Y-63698858D01*
X150566858Y-63845389D01*
X150451730Y-64017691D01*
X150372428Y-64209143D01*
X150332000Y-64412387D01*
X150332000Y-64619613D01*
X150372428Y-64822857D01*
X150451730Y-65014309D01*
X150566858Y-65186611D01*
X150713389Y-65333142D01*
X150885691Y-65448270D01*
X150907000Y-65457097D01*
X150907001Y-67337576D01*
X150858140Y-67386437D01*
X150784050Y-67497320D01*
X150733016Y-67620526D01*
X150707000Y-67751321D01*
X150707000Y-67884679D01*
X150733016Y-68015474D01*
X150784050Y-68138680D01*
X150858140Y-68249563D01*
X150952437Y-68343860D01*
X151063320Y-68417950D01*
X151186526Y-68468984D01*
X151317321Y-68495000D01*
X151450679Y-68495000D01*
X151581474Y-68468984D01*
X151704680Y-68417950D01*
X151815563Y-68343860D01*
X151909860Y-68249563D01*
X151983950Y-68138680D01*
X152034984Y-68015474D01*
X152061000Y-67884679D01*
X152061000Y-67751321D01*
X152034984Y-67620526D01*
X151983950Y-67497320D01*
X151909860Y-67386437D01*
X151861000Y-67337577D01*
X151861000Y-65457096D01*
X151882309Y-65448270D01*
X152054611Y-65333142D01*
X152201142Y-65186611D01*
X152316270Y-65014309D01*
X152395572Y-64822857D01*
X152436000Y-64619613D01*
X152436000Y-64412387D01*
X152395572Y-64209143D01*
X152316270Y-64017691D01*
X152201142Y-63845389D01*
X152054611Y-63698858D01*
X152015912Y-63673000D01*
X153292088Y-63673000D01*
X153253389Y-63698858D01*
X153106858Y-63845389D01*
X152991730Y-64017691D01*
X152912428Y-64209143D01*
X152872000Y-64412387D01*
X152872000Y-64619613D01*
X152912428Y-64822857D01*
X152991730Y-65014309D01*
X153106858Y-65186611D01*
X153253389Y-65333142D01*
X153425691Y-65448270D01*
X153447000Y-65457097D01*
X153446999Y-66956577D01*
X153398139Y-67005437D01*
X153324049Y-67116320D01*
X153273015Y-67239526D01*
X153246999Y-67370321D01*
X153246999Y-67503679D01*
X153273015Y-67634474D01*
X153324049Y-67757680D01*
X153398139Y-67868563D01*
X153492436Y-67962860D01*
X153603319Y-68036950D01*
X153726525Y-68087984D01*
X153857320Y-68114000D01*
X153990678Y-68114000D01*
X154121473Y-68087984D01*
X154244679Y-68036950D01*
X154355562Y-67962860D01*
X154449859Y-67868563D01*
X154523949Y-67757680D01*
X154574983Y-67634474D01*
X154600999Y-67503679D01*
X154600999Y-67370321D01*
X154574983Y-67239526D01*
X154523949Y-67116320D01*
X154449859Y-67005437D01*
X154400998Y-66956576D01*
X154400999Y-65457097D01*
X154422309Y-65448270D01*
X154594611Y-65333142D01*
X154741142Y-65186611D01*
X154856270Y-65014309D01*
X154935572Y-64822857D01*
X154976000Y-64619613D01*
X154976000Y-64412387D01*
X154935572Y-64209143D01*
X154856270Y-64017691D01*
X154741142Y-63845389D01*
X154594611Y-63698858D01*
X154555912Y-63673000D01*
X155832088Y-63673000D01*
X155793389Y-63698858D01*
X155646858Y-63845389D01*
X155531730Y-64017691D01*
X155452428Y-64209143D01*
X155412000Y-64412387D01*
X155412000Y-64619613D01*
X155452428Y-64822857D01*
X155531730Y-65014309D01*
X155646858Y-65186611D01*
X155793389Y-65333142D01*
X155965691Y-65448270D01*
X155987000Y-65457097D01*
X155987001Y-66575572D01*
X155938136Y-66624437D01*
X155864046Y-66735320D01*
X155813012Y-66858526D01*
X155786996Y-66989321D01*
X155786996Y-67122679D01*
X155813012Y-67253474D01*
X155864046Y-67376680D01*
X155938136Y-67487563D01*
X156032433Y-67581860D01*
X156143316Y-67655950D01*
X156266522Y-67706984D01*
X156397317Y-67733000D01*
X156530675Y-67733000D01*
X156661470Y-67706984D01*
X156784676Y-67655950D01*
X156895559Y-67581860D01*
X156989856Y-67487563D01*
X157063946Y-67376680D01*
X157114980Y-67253474D01*
X157140996Y-67122679D01*
X157140996Y-66989321D01*
X157114980Y-66858526D01*
X157063946Y-66735320D01*
X156989856Y-66624437D01*
X156941000Y-66575581D01*
X156941000Y-65457096D01*
X156962309Y-65448270D01*
X157134611Y-65333142D01*
X157281142Y-65186611D01*
X157396270Y-65014309D01*
X157475572Y-64822857D01*
X157516000Y-64619613D01*
X157516000Y-64412387D01*
X157475572Y-64209143D01*
X157396270Y-64017691D01*
X157281142Y-63845389D01*
X157134611Y-63698858D01*
X157095912Y-63673000D01*
X158372088Y-63673000D01*
X158333389Y-63698858D01*
X158186858Y-63845389D01*
X158071730Y-64017691D01*
X157992428Y-64209143D01*
X157952000Y-64412387D01*
X157952000Y-64619613D01*
X157992428Y-64822857D01*
X158071730Y-65014309D01*
X158186858Y-65186611D01*
X158333389Y-65333142D01*
X158505691Y-65448270D01*
X158527000Y-65457097D01*
X158527001Y-66321536D01*
X158478136Y-66370401D01*
X158404046Y-66481284D01*
X158353012Y-66604490D01*
X158326996Y-66735285D01*
X158326996Y-66868643D01*
X158353012Y-66999438D01*
X158404046Y-67122644D01*
X158478136Y-67233527D01*
X158572433Y-67327824D01*
X158683316Y-67401914D01*
X158806522Y-67452948D01*
X158937317Y-67478964D01*
X159070675Y-67478964D01*
X159201470Y-67452948D01*
X159324676Y-67401914D01*
X159435559Y-67327824D01*
X159529856Y-67233527D01*
X159603946Y-67122644D01*
X159654980Y-66999438D01*
X159680996Y-66868643D01*
X159680996Y-66735285D01*
X159654980Y-66604490D01*
X159603946Y-66481284D01*
X159529856Y-66370401D01*
X159481000Y-66321545D01*
X159481000Y-65457096D01*
X159502309Y-65448270D01*
X159674611Y-65333142D01*
X159821142Y-65186611D01*
X159936270Y-65014309D01*
X160015572Y-64822857D01*
X160056000Y-64619613D01*
X160056000Y-64412387D01*
X160015572Y-64209143D01*
X159936270Y-64017691D01*
X159821142Y-63845389D01*
X159674611Y-63698858D01*
X159635912Y-63673000D01*
X160912088Y-63673000D01*
X160873389Y-63698858D01*
X160726858Y-63845389D01*
X160611730Y-64017691D01*
X160532428Y-64209143D01*
X160492000Y-64412387D01*
X160492000Y-64619613D01*
X160532428Y-64822857D01*
X160611730Y-65014309D01*
X160726858Y-65186611D01*
X160873389Y-65333142D01*
X161045691Y-65448270D01*
X161067000Y-65457097D01*
X161067001Y-65940576D01*
X161018140Y-65989437D01*
X160944050Y-66100320D01*
X160893016Y-66223526D01*
X160867000Y-66354321D01*
X160867000Y-66487679D01*
X160893016Y-66618474D01*
X160944050Y-66741680D01*
X161018140Y-66852563D01*
X161112437Y-66946860D01*
X161223320Y-67020950D01*
X161346526Y-67071984D01*
X161477321Y-67098000D01*
X161610679Y-67098000D01*
X161741474Y-67071984D01*
X161864680Y-67020950D01*
X161975563Y-66946860D01*
X162069860Y-66852563D01*
X162143950Y-66741680D01*
X162194984Y-66618474D01*
X162221000Y-66487679D01*
X162221000Y-66354321D01*
X162194984Y-66223526D01*
X162143950Y-66100320D01*
X162069860Y-65989437D01*
X162021000Y-65940577D01*
X162021000Y-65457096D01*
X162042309Y-65448270D01*
X162214611Y-65333142D01*
X162361142Y-65186611D01*
X162476270Y-65014309D01*
X162555572Y-64822857D01*
X162596000Y-64619613D01*
X162596000Y-64412387D01*
X162555572Y-64209143D01*
X162476270Y-64017691D01*
X162361142Y-63845389D01*
X162214611Y-63698858D01*
X162175912Y-63673000D01*
X163452088Y-63673000D01*
X163413389Y-63698858D01*
X163266858Y-63845389D01*
X163151730Y-64017691D01*
X163072428Y-64209143D01*
X163032000Y-64412387D01*
X163032000Y-64619613D01*
X163072428Y-64822857D01*
X163151730Y-65014309D01*
X163266858Y-65186611D01*
X163413389Y-65333142D01*
X163585691Y-65448270D01*
X163607001Y-65457097D01*
X163607001Y-65559576D01*
X163558140Y-65608437D01*
X163484050Y-65719320D01*
X163433016Y-65842526D01*
X163407000Y-65973321D01*
X163407000Y-66106679D01*
X163433016Y-66237474D01*
X163484050Y-66360680D01*
X163558140Y-66471563D01*
X163652437Y-66565860D01*
X163763320Y-66639950D01*
X163886526Y-66690984D01*
X164017321Y-66717000D01*
X164150679Y-66717000D01*
X164281474Y-66690984D01*
X164404680Y-66639950D01*
X164515563Y-66565860D01*
X164609860Y-66471563D01*
X164683950Y-66360680D01*
X164734984Y-66237474D01*
X164761000Y-66106679D01*
X164761000Y-65973321D01*
X164734984Y-65842526D01*
X164683950Y-65719320D01*
X164609860Y-65608437D01*
X164561000Y-65559577D01*
X164561000Y-65457096D01*
X164582309Y-65448270D01*
X164754611Y-65333142D01*
X164901142Y-65186611D01*
X165016270Y-65014309D01*
X165095572Y-64822857D01*
X165136000Y-64619613D01*
X165136000Y-64412387D01*
X165095572Y-64209143D01*
X165016270Y-64017691D01*
X164901142Y-63845389D01*
X164754611Y-63698858D01*
X164715912Y-63673000D01*
X165992088Y-63673000D01*
X165953389Y-63698858D01*
X165806858Y-63845389D01*
X165691730Y-64017691D01*
X165612428Y-64209143D01*
X165572000Y-64412387D01*
X165572000Y-64619613D01*
X165612428Y-64822857D01*
X165691730Y-65014309D01*
X165806858Y-65186611D01*
X165953389Y-65333142D01*
X166125691Y-65448270D01*
X166317143Y-65527572D01*
X166520387Y-65568000D01*
X166727613Y-65568000D01*
X166930857Y-65527572D01*
X167122309Y-65448270D01*
X167294611Y-65333142D01*
X167441142Y-65186611D01*
X167556270Y-65014309D01*
X167635572Y-64822857D01*
X167676000Y-64619613D01*
X167676000Y-64412387D01*
X167635572Y-64209143D01*
X167556270Y-64017691D01*
X167441142Y-63845389D01*
X167294611Y-63698858D01*
X167255912Y-63673000D01*
X168532088Y-63673000D01*
X168493389Y-63698858D01*
X168346858Y-63845389D01*
X168231730Y-64017691D01*
X168152428Y-64209143D01*
X168112000Y-64412387D01*
X168112000Y-64619613D01*
X168152428Y-64822857D01*
X168231730Y-65014309D01*
X168346858Y-65186611D01*
X168493389Y-65333142D01*
X168665691Y-65448270D01*
X168857143Y-65527572D01*
X169060387Y-65568000D01*
X169267613Y-65568000D01*
X169470857Y-65527572D01*
X169662309Y-65448270D01*
X169834611Y-65333142D01*
X169981142Y-65186611D01*
X170096270Y-65014309D01*
X170175572Y-64822857D01*
X170216000Y-64619613D01*
X170216000Y-64412387D01*
X170175572Y-64209143D01*
X170096270Y-64017691D01*
X169981142Y-63845389D01*
X169834611Y-63698858D01*
X169795912Y-63673000D01*
X171072088Y-63673000D01*
X171033389Y-63698858D01*
X170886858Y-63845389D01*
X170771730Y-64017691D01*
X170692428Y-64209143D01*
X170652000Y-64412387D01*
X170652000Y-64619613D01*
X170692428Y-64822857D01*
X170771730Y-65014309D01*
X170886858Y-65186611D01*
X171033389Y-65333142D01*
X171205691Y-65448270D01*
X171397143Y-65527572D01*
X171600387Y-65568000D01*
X171807613Y-65568000D01*
X172010857Y-65527572D01*
X172202309Y-65448270D01*
X172374611Y-65333142D01*
X172521142Y-65186611D01*
X172547000Y-65147911D01*
X172547001Y-78757143D01*
X172367629Y-78626527D01*
X172134528Y-78518762D01*
X172033400Y-78488090D01*
X171831000Y-78611776D01*
X171831000Y-79629000D01*
X171851000Y-79629000D01*
X171851000Y-79883000D01*
X171831000Y-79883000D01*
X171831000Y-79903000D01*
X171577000Y-79903000D01*
X171577000Y-79883000D01*
X170558915Y-79883000D01*
X170436085Y-80085401D01*
X170524711Y-80326430D01*
X170658656Y-80545537D01*
X170707970Y-80599000D01*
X169795912Y-80599000D01*
X169834611Y-80573142D01*
X169981142Y-80426611D01*
X170096270Y-80254309D01*
X170175572Y-80062857D01*
X170216000Y-79859613D01*
X170216000Y-79652387D01*
X170175572Y-79449143D01*
X170166234Y-79426599D01*
X170436085Y-79426599D01*
X170558915Y-79629000D01*
X171577000Y-79629000D01*
X171577000Y-78611776D01*
X171374600Y-78488090D01*
X171273472Y-78518762D01*
X171040371Y-78626527D01*
X170832773Y-78777697D01*
X170658656Y-78966463D01*
X170524711Y-79185570D01*
X170436085Y-79426599D01*
X170166234Y-79426599D01*
X170096270Y-79257691D01*
X169981142Y-79085389D01*
X169834611Y-78938858D01*
X169662309Y-78823730D01*
X169470857Y-78744428D01*
X169267613Y-78704000D01*
X169060387Y-78704000D01*
X168857143Y-78744428D01*
X168665691Y-78823730D01*
X168493389Y-78938858D01*
X168346858Y-79085389D01*
X168231730Y-79257691D01*
X168152428Y-79449143D01*
X168112000Y-79652387D01*
X168112000Y-79859613D01*
X168152428Y-80062857D01*
X168231730Y-80254309D01*
X168346858Y-80426611D01*
X168493389Y-80573142D01*
X168532088Y-80599000D01*
X167255912Y-80599000D01*
X167294611Y-80573142D01*
X167441142Y-80426611D01*
X167556270Y-80254309D01*
X167635572Y-80062857D01*
X167676000Y-79859613D01*
X167676000Y-79652387D01*
X167635572Y-79449143D01*
X167556270Y-79257691D01*
X167441142Y-79085389D01*
X167294611Y-78938858D01*
X167122309Y-78823730D01*
X166930857Y-78744428D01*
X166727613Y-78704000D01*
X166520387Y-78704000D01*
X166317143Y-78744428D01*
X166125691Y-78823730D01*
X165953389Y-78938858D01*
X165806858Y-79085389D01*
X165691730Y-79257691D01*
X165612428Y-79449143D01*
X165572000Y-79652387D01*
X165572000Y-79859613D01*
X165612428Y-80062857D01*
X165691730Y-80254309D01*
X165806858Y-80426611D01*
X165953389Y-80573142D01*
X165992088Y-80599000D01*
X164715912Y-80599000D01*
X164754611Y-80573142D01*
X164901142Y-80426611D01*
X165016270Y-80254309D01*
X165095572Y-80062857D01*
X165136000Y-79859613D01*
X165136000Y-79652387D01*
X165095572Y-79449143D01*
X165016270Y-79257691D01*
X164901142Y-79085389D01*
X164754611Y-78938858D01*
X164582309Y-78823730D01*
X164390857Y-78744428D01*
X164187613Y-78704000D01*
X163980387Y-78704000D01*
X163777143Y-78744428D01*
X163585691Y-78823730D01*
X163413389Y-78938858D01*
X163266858Y-79085389D01*
X163151730Y-79257691D01*
X163072428Y-79449143D01*
X163032000Y-79652387D01*
X163032000Y-79859613D01*
X163072428Y-80062857D01*
X163151730Y-80254309D01*
X163266858Y-80426611D01*
X163413389Y-80573142D01*
X163452088Y-80599000D01*
X162175912Y-80599000D01*
X162214611Y-80573142D01*
X162361142Y-80426611D01*
X162476270Y-80254309D01*
X162555572Y-80062857D01*
X162596000Y-79859613D01*
X162596000Y-79652387D01*
X162555572Y-79449143D01*
X162476270Y-79257691D01*
X162361142Y-79085389D01*
X162214611Y-78938858D01*
X162042309Y-78823730D01*
X161850857Y-78744428D01*
X161647613Y-78704000D01*
X161440387Y-78704000D01*
X161237143Y-78744428D01*
X161045691Y-78823730D01*
X160873389Y-78938858D01*
X160726858Y-79085389D01*
X160611730Y-79257691D01*
X160532428Y-79449143D01*
X160492000Y-79652387D01*
X160492000Y-79859613D01*
X160532428Y-80062857D01*
X160611730Y-80254309D01*
X160726858Y-80426611D01*
X160873389Y-80573142D01*
X160912088Y-80599000D01*
X159635912Y-80599000D01*
X159674611Y-80573142D01*
X159821142Y-80426611D01*
X159936270Y-80254309D01*
X160015572Y-80062857D01*
X160056000Y-79859613D01*
X160056000Y-79652387D01*
X160015572Y-79449143D01*
X159936270Y-79257691D01*
X159821142Y-79085389D01*
X159674611Y-78938858D01*
X159502309Y-78823730D01*
X159310857Y-78744428D01*
X159107613Y-78704000D01*
X158900387Y-78704000D01*
X158697143Y-78744428D01*
X158505691Y-78823730D01*
X158333389Y-78938858D01*
X158186858Y-79085389D01*
X158071730Y-79257691D01*
X157992428Y-79449143D01*
X157952000Y-79652387D01*
X157952000Y-79859613D01*
X157992428Y-80062857D01*
X158071730Y-80254309D01*
X158186858Y-80426611D01*
X158333389Y-80573142D01*
X158372088Y-80599000D01*
X157095912Y-80599000D01*
X157134611Y-80573142D01*
X157281142Y-80426611D01*
X157396270Y-80254309D01*
X157475572Y-80062857D01*
X157516000Y-79859613D01*
X157516000Y-79652387D01*
X157475572Y-79449143D01*
X157396270Y-79257691D01*
X157281142Y-79085389D01*
X157134611Y-78938858D01*
X156962309Y-78823730D01*
X156770857Y-78744428D01*
X156567613Y-78704000D01*
X156360387Y-78704000D01*
X156157143Y-78744428D01*
X155965691Y-78823730D01*
X155793389Y-78938858D01*
X155646858Y-79085389D01*
X155531730Y-79257691D01*
X155452428Y-79449143D01*
X155412000Y-79652387D01*
X155412000Y-79859613D01*
X155452428Y-80062857D01*
X155531730Y-80254309D01*
X155646858Y-80426611D01*
X155793389Y-80573142D01*
X155832088Y-80599000D01*
X154555912Y-80599000D01*
X154594611Y-80573142D01*
X154741142Y-80426611D01*
X154856270Y-80254309D01*
X154935572Y-80062857D01*
X154976000Y-79859613D01*
X154976000Y-79652387D01*
X154935572Y-79449143D01*
X154856270Y-79257691D01*
X154741142Y-79085389D01*
X154594611Y-78938858D01*
X154422309Y-78823730D01*
X154230857Y-78744428D01*
X154027613Y-78704000D01*
X153820387Y-78704000D01*
X153617143Y-78744428D01*
X153425691Y-78823730D01*
X153253389Y-78938858D01*
X153106858Y-79085389D01*
X152991730Y-79257691D01*
X152912428Y-79449143D01*
X152872000Y-79652387D01*
X152872000Y-79859613D01*
X152912428Y-80062857D01*
X152991730Y-80254309D01*
X153106858Y-80426611D01*
X153253389Y-80573142D01*
X153292088Y-80599000D01*
X152015912Y-80599000D01*
X152054611Y-80573142D01*
X152201142Y-80426611D01*
X152316270Y-80254309D01*
X152395572Y-80062857D01*
X152436000Y-79859613D01*
X152436000Y-79652387D01*
X152395572Y-79449143D01*
X152316270Y-79257691D01*
X152201142Y-79085389D01*
X152054611Y-78938858D01*
X151882309Y-78823730D01*
X151690857Y-78744428D01*
X151487613Y-78704000D01*
X151280387Y-78704000D01*
X151077143Y-78744428D01*
X150885691Y-78823730D01*
X150713389Y-78938858D01*
X150566858Y-79085389D01*
X150451730Y-79257691D01*
X150372428Y-79449143D01*
X150332000Y-79652387D01*
X150332000Y-79859613D01*
X150372428Y-80062857D01*
X150451730Y-80254309D01*
X150566858Y-80426611D01*
X150713389Y-80573142D01*
X150752088Y-80599000D01*
X149475912Y-80599000D01*
X149514611Y-80573142D01*
X149661142Y-80426611D01*
X149776270Y-80254309D01*
X149855572Y-80062857D01*
X149896000Y-79859613D01*
X149896000Y-79652387D01*
X149855572Y-79449143D01*
X149846745Y-79427834D01*
X153961580Y-75313000D01*
X170207439Y-75313000D01*
X170256299Y-75361860D01*
X170367182Y-75435950D01*
X170490388Y-75486984D01*
X170621183Y-75513000D01*
X170754541Y-75513000D01*
X170885336Y-75486984D01*
X171008542Y-75435950D01*
X171119425Y-75361860D01*
X171213722Y-75267563D01*
X171287812Y-75156680D01*
X171338846Y-75033474D01*
X171364862Y-74902679D01*
X171364862Y-74769321D01*
X171338846Y-74638526D01*
X171287812Y-74515320D01*
X171213722Y-74404437D01*
X171119425Y-74310140D01*
X171008542Y-74236050D01*
X170885336Y-74185016D01*
X170754541Y-74159000D01*
X170621183Y-74159000D01*
X170490388Y-74185016D01*
X170367182Y-74236050D01*
X170256299Y-74310140D01*
X170207439Y-74359000D01*
X153787415Y-74359000D01*
X153764000Y-74356694D01*
X153740585Y-74359000D01*
X153740577Y-74359000D01*
X153670492Y-74365903D01*
X153580577Y-74393178D01*
X153497711Y-74437471D01*
X153454952Y-74472563D01*
X153425079Y-74497079D01*
X153410150Y-74515270D01*
X149172166Y-78753255D01*
X149150857Y-78744428D01*
X148947613Y-78704000D01*
X148740387Y-78704000D01*
X148537143Y-78744428D01*
X148345691Y-78823730D01*
X148173389Y-78938858D01*
X148026858Y-79085389D01*
X147911730Y-79257691D01*
X147832428Y-79449143D01*
X147792000Y-79652387D01*
X147792000Y-79859613D01*
X147832428Y-80062857D01*
X147911730Y-80254309D01*
X148026858Y-80426611D01*
X148173389Y-80573142D01*
X148212088Y-80599000D01*
X146935912Y-80599000D01*
X146974611Y-80573142D01*
X147121142Y-80426611D01*
X147236270Y-80254309D01*
X147315572Y-80062857D01*
X147356000Y-79859613D01*
X147356000Y-79652387D01*
X147315572Y-79449143D01*
X147236270Y-79257691D01*
X147121142Y-79085389D01*
X146974611Y-78938858D01*
X146802309Y-78823730D01*
X146610857Y-78744428D01*
X146407613Y-78704000D01*
X146200387Y-78704000D01*
X145997143Y-78744428D01*
X145805691Y-78823730D01*
X145633389Y-78938858D01*
X145486858Y-79085389D01*
X145371730Y-79257691D01*
X145292428Y-79449143D01*
X145252000Y-79652387D01*
X145252000Y-79859613D01*
X145292428Y-80062857D01*
X145371730Y-80254309D01*
X145486858Y-80426611D01*
X145633389Y-80573142D01*
X145672088Y-80599000D01*
X144395912Y-80599000D01*
X144434611Y-80573142D01*
X144581142Y-80426611D01*
X144696270Y-80254309D01*
X144775572Y-80062857D01*
X144816000Y-79859613D01*
X144816000Y-79652387D01*
X144775572Y-79449143D01*
X144696270Y-79257691D01*
X144581142Y-79085389D01*
X144434611Y-78938858D01*
X144262309Y-78823730D01*
X144070857Y-78744428D01*
X143867613Y-78704000D01*
X143660387Y-78704000D01*
X143457143Y-78744428D01*
X143265691Y-78823730D01*
X143093389Y-78938858D01*
X142946858Y-79085389D01*
X142831730Y-79257691D01*
X142752428Y-79449143D01*
X142712000Y-79652387D01*
X142712000Y-79859613D01*
X142752428Y-80062857D01*
X142831730Y-80254309D01*
X142946858Y-80426611D01*
X143093389Y-80573142D01*
X143132088Y-80599000D01*
X141855912Y-80599000D01*
X141894611Y-80573142D01*
X142041142Y-80426611D01*
X142156270Y-80254309D01*
X142235572Y-80062857D01*
X142276000Y-79859613D01*
X142276000Y-79652387D01*
X142235572Y-79449143D01*
X142156270Y-79257691D01*
X142041142Y-79085389D01*
X141894611Y-78938858D01*
X141722309Y-78823730D01*
X141530857Y-78744428D01*
X141327613Y-78704000D01*
X141120387Y-78704000D01*
X140917143Y-78744428D01*
X140725691Y-78823730D01*
X140553389Y-78938858D01*
X140406858Y-79085389D01*
X140291730Y-79257691D01*
X140212428Y-79449143D01*
X140172000Y-79652387D01*
X140172000Y-79859613D01*
X140212428Y-80062857D01*
X140291730Y-80254309D01*
X140406858Y-80426611D01*
X140553389Y-80573142D01*
X140592088Y-80599000D01*
X139315912Y-80599000D01*
X139354611Y-80573142D01*
X139501142Y-80426611D01*
X139616270Y-80254309D01*
X139695572Y-80062857D01*
X139736000Y-79859613D01*
X139736000Y-79652387D01*
X139695572Y-79449143D01*
X139616270Y-79257691D01*
X139501142Y-79085389D01*
X139354611Y-78938858D01*
X139182309Y-78823730D01*
X138990857Y-78744428D01*
X138787613Y-78704000D01*
X138580387Y-78704000D01*
X138377143Y-78744428D01*
X138185691Y-78823730D01*
X138013389Y-78938858D01*
X137866858Y-79085389D01*
X137751730Y-79257691D01*
X137672428Y-79449143D01*
X137632000Y-79652387D01*
X137632000Y-79859613D01*
X137672428Y-80062857D01*
X137751730Y-80254309D01*
X137866858Y-80426611D01*
X138013389Y-80573142D01*
X138052088Y-80599000D01*
X136775912Y-80599000D01*
X136814611Y-80573142D01*
X136961142Y-80426611D01*
X137076270Y-80254309D01*
X137155572Y-80062857D01*
X137196000Y-79859613D01*
X137196000Y-79652387D01*
X137155572Y-79449143D01*
X137076270Y-79257691D01*
X136961142Y-79085389D01*
X136814611Y-78938858D01*
X136642309Y-78823730D01*
X136450857Y-78744428D01*
X136247613Y-78704000D01*
X136040387Y-78704000D01*
X135837143Y-78744428D01*
X135645691Y-78823730D01*
X135473389Y-78938858D01*
X135326858Y-79085389D01*
X135211730Y-79257691D01*
X135132428Y-79449143D01*
X135092000Y-79652387D01*
X135092000Y-79859613D01*
X135132428Y-80062857D01*
X135211730Y-80254309D01*
X135326858Y-80426611D01*
X135473389Y-80573142D01*
X135512088Y-80599000D01*
X134235912Y-80599000D01*
X134274611Y-80573142D01*
X134421142Y-80426611D01*
X134536270Y-80254309D01*
X134615572Y-80062857D01*
X134656000Y-79859613D01*
X134656000Y-79652387D01*
X134615572Y-79449143D01*
X134536270Y-79257691D01*
X134421142Y-79085389D01*
X134274611Y-78938858D01*
X134102309Y-78823730D01*
X133910857Y-78744428D01*
X133707613Y-78704000D01*
X133500387Y-78704000D01*
X133297143Y-78744428D01*
X133105691Y-78823730D01*
X132933389Y-78938858D01*
X132786858Y-79085389D01*
X132671730Y-79257691D01*
X132592428Y-79449143D01*
X132552000Y-79652387D01*
X132552000Y-79859613D01*
X132592428Y-80062857D01*
X132671730Y-80254309D01*
X132786858Y-80426611D01*
X132933389Y-80573142D01*
X132972088Y-80599000D01*
X131695912Y-80599000D01*
X131734611Y-80573142D01*
X131881142Y-80426611D01*
X131996270Y-80254309D01*
X132075572Y-80062857D01*
X132116000Y-79859613D01*
X132116000Y-79652387D01*
X132075572Y-79449143D01*
X131996270Y-79257691D01*
X131881142Y-79085389D01*
X131734611Y-78938858D01*
X131562309Y-78823730D01*
X131370857Y-78744428D01*
X131167613Y-78704000D01*
X130960387Y-78704000D01*
X130757143Y-78744428D01*
X130565691Y-78823730D01*
X130393389Y-78938858D01*
X130246858Y-79085389D01*
X130131730Y-79257691D01*
X130052428Y-79449143D01*
X130012000Y-79652387D01*
X130012000Y-79859613D01*
X130052428Y-80062857D01*
X130131730Y-80254309D01*
X130246858Y-80426611D01*
X130393389Y-80573142D01*
X130432088Y-80599000D01*
X129155912Y-80599000D01*
X129194611Y-80573142D01*
X129341142Y-80426611D01*
X129456270Y-80254309D01*
X129535572Y-80062857D01*
X129576000Y-79859613D01*
X129576000Y-79652387D01*
X129535572Y-79449143D01*
X129456270Y-79257691D01*
X129341142Y-79085389D01*
X129194611Y-78938858D01*
X129022309Y-78823730D01*
X128830857Y-78744428D01*
X128627613Y-78704000D01*
X128420387Y-78704000D01*
X128217143Y-78744428D01*
X128025691Y-78823730D01*
X127853389Y-78938858D01*
X127706858Y-79085389D01*
X127591730Y-79257691D01*
X127512428Y-79449143D01*
X127472000Y-79652387D01*
X127472000Y-79859613D01*
X127512428Y-80062857D01*
X127591730Y-80254309D01*
X127706858Y-80426611D01*
X127853389Y-80573142D01*
X127892088Y-80599000D01*
X126615912Y-80599000D01*
X126654611Y-80573142D01*
X126801142Y-80426611D01*
X126916270Y-80254309D01*
X126995572Y-80062857D01*
X127036000Y-79859613D01*
X127036000Y-79652387D01*
X126995572Y-79449143D01*
X126916270Y-79257691D01*
X126801142Y-79085389D01*
X126654611Y-78938858D01*
X126482309Y-78823730D01*
X126290857Y-78744428D01*
X126087613Y-78704000D01*
X125880387Y-78704000D01*
X125677143Y-78744428D01*
X125485691Y-78823730D01*
X125313389Y-78938858D01*
X125166858Y-79085389D01*
X125051730Y-79257691D01*
X124972428Y-79449143D01*
X124932000Y-79652387D01*
X124932000Y-79859613D01*
X124972428Y-80062857D01*
X125051730Y-80254309D01*
X125166858Y-80426611D01*
X125313389Y-80573142D01*
X125352088Y-80599000D01*
X124075912Y-80599000D01*
X124114611Y-80573142D01*
X124261142Y-80426611D01*
X124376270Y-80254309D01*
X124455572Y-80062857D01*
X124496000Y-79859613D01*
X124496000Y-79652387D01*
X124455572Y-79449143D01*
X124376270Y-79257691D01*
X124261142Y-79085389D01*
X124114611Y-78938858D01*
X123942309Y-78823730D01*
X123750857Y-78744428D01*
X123547613Y-78704000D01*
X123340387Y-78704000D01*
X123137143Y-78744428D01*
X122945691Y-78823730D01*
X122773389Y-78938858D01*
X122626858Y-79085389D01*
X122511730Y-79257691D01*
X122432428Y-79449143D01*
X122392000Y-79652387D01*
X122392000Y-79859613D01*
X122432428Y-80062857D01*
X122511730Y-80254309D01*
X122626858Y-80426611D01*
X122773389Y-80573142D01*
X122812088Y-80599000D01*
X121535912Y-80599000D01*
X121574611Y-80573142D01*
X121721142Y-80426611D01*
X121836270Y-80254309D01*
X121915572Y-80062857D01*
X121956000Y-79859613D01*
X121956000Y-79652387D01*
X121915572Y-79449143D01*
X121836270Y-79257691D01*
X121721142Y-79085389D01*
X121574611Y-78938858D01*
X121402309Y-78823730D01*
X121210857Y-78744428D01*
X121007613Y-78704000D01*
X120800387Y-78704000D01*
X120597143Y-78744428D01*
X120405691Y-78823730D01*
X120233389Y-78938858D01*
X120086858Y-79085389D01*
X119971730Y-79257691D01*
X119892428Y-79449143D01*
X119852000Y-79652387D01*
X119852000Y-79859613D01*
X119892428Y-80062857D01*
X119971730Y-80254309D01*
X120086858Y-80426611D01*
X120233389Y-80573142D01*
X120272088Y-80599000D01*
X118995912Y-80599000D01*
X119034611Y-80573142D01*
X119181142Y-80426611D01*
X119296270Y-80254309D01*
X119375572Y-80062857D01*
X119416000Y-79859613D01*
X119416000Y-79652387D01*
X119375572Y-79449143D01*
X119366745Y-79427834D01*
X120243570Y-78551010D01*
X132316166Y-78551008D01*
X132339591Y-78553315D01*
X132433098Y-78544106D01*
X132523013Y-78516831D01*
X132561586Y-78496213D01*
X132605880Y-78472537D01*
X132640892Y-78443803D01*
X132660318Y-78427861D01*
X132660321Y-78427858D01*
X132678512Y-78412929D01*
X132693441Y-78394738D01*
X134604940Y-76483240D01*
X134623132Y-76468310D01*
X134682740Y-76395678D01*
X134727033Y-76312812D01*
X134754308Y-76222897D01*
X134761211Y-76152812D01*
X134761211Y-76152804D01*
X134763517Y-76129389D01*
X134761211Y-76105974D01*
X134761211Y-74795425D01*
X134763517Y-74772010D01*
X134761211Y-74748595D01*
X134761211Y-74748588D01*
X134754308Y-74678503D01*
X134727033Y-74588588D01*
X134682740Y-74505722D01*
X134623132Y-74433090D01*
X134604940Y-74418160D01*
X133485326Y-73298546D01*
X133509594Y-73239958D01*
X133535610Y-73109163D01*
X133535610Y-72975805D01*
X133509594Y-72845010D01*
X133458560Y-72721804D01*
X133387195Y-72614999D01*
X133391150Y-72609080D01*
X133442184Y-72485874D01*
X133468200Y-72355079D01*
X133468200Y-72221721D01*
X133442184Y-72090926D01*
X133414462Y-72024000D01*
X133426528Y-72024000D01*
X133576643Y-71994141D01*
X133718048Y-71935569D01*
X133845309Y-71850536D01*
X133953536Y-71742309D01*
X134038569Y-71615048D01*
X134097141Y-71473643D01*
X134127000Y-71323528D01*
X134127000Y-71170472D01*
X134097141Y-71020357D01*
X134041079Y-70885012D01*
X137977725Y-70885012D01*
X142688265Y-75595554D01*
X142688266Y-76699911D01*
X142615315Y-76809089D01*
X142564281Y-76932295D01*
X142538265Y-77063090D01*
X142538265Y-77196448D01*
X142564281Y-77327243D01*
X142615315Y-77450449D01*
X142689405Y-77561332D01*
X142783702Y-77655629D01*
X142894585Y-77729719D01*
X143017791Y-77780753D01*
X143148586Y-77806769D01*
X143281944Y-77806769D01*
X143412739Y-77780753D01*
X143535945Y-77729719D01*
X143646828Y-77655629D01*
X143647694Y-77654763D01*
X143978558Y-77654763D01*
X143978558Y-77788121D01*
X144004574Y-77918916D01*
X144055608Y-78042122D01*
X144129698Y-78153005D01*
X144223995Y-78247302D01*
X144334878Y-78321392D01*
X144458084Y-78372426D01*
X144588879Y-78398442D01*
X144722237Y-78398442D01*
X144853032Y-78372426D01*
X144976238Y-78321392D01*
X145087121Y-78247302D01*
X145181418Y-78153005D01*
X145255508Y-78042122D01*
X145306542Y-77918916D01*
X145332558Y-77788121D01*
X145332558Y-77719021D01*
X145772370Y-77279209D01*
X145823134Y-77401764D01*
X145897224Y-77512647D01*
X145991521Y-77606944D01*
X146102404Y-77681034D01*
X146225610Y-77732068D01*
X146356405Y-77758084D01*
X146489763Y-77758084D01*
X146620558Y-77732068D01*
X146743764Y-77681034D01*
X146854647Y-77606944D01*
X146948944Y-77512647D01*
X147023034Y-77401764D01*
X147074068Y-77278558D01*
X147100084Y-77147763D01*
X147100084Y-77014405D01*
X147074068Y-76883610D01*
X147023034Y-76760404D01*
X146948944Y-76649521D01*
X146922995Y-76623572D01*
X150298568Y-73248000D01*
X151220832Y-73248000D01*
X151241016Y-73349474D01*
X151292050Y-73472680D01*
X151366140Y-73583563D01*
X151460437Y-73677860D01*
X151571320Y-73751950D01*
X151694526Y-73802984D01*
X151825321Y-73829000D01*
X151958679Y-73829000D01*
X152089474Y-73802984D01*
X152212680Y-73751950D01*
X152323563Y-73677860D01*
X152417860Y-73583563D01*
X152491950Y-73472680D01*
X152542984Y-73349474D01*
X152569000Y-73218679D01*
X152569000Y-73085321D01*
X152542984Y-72954526D01*
X152491950Y-72831320D01*
X152417860Y-72720437D01*
X152323563Y-72626140D01*
X152212680Y-72552050D01*
X152089474Y-72501016D01*
X151958679Y-72475000D01*
X151889579Y-72475000D01*
X151864855Y-72450276D01*
X151849921Y-72432079D01*
X151777289Y-72372471D01*
X151694423Y-72328178D01*
X151604508Y-72300903D01*
X151534423Y-72294000D01*
X151534415Y-72294000D01*
X151511000Y-72291694D01*
X151487585Y-72294000D01*
X150337000Y-72294000D01*
X150337000Y-71651415D01*
X150339306Y-71628000D01*
X150337000Y-71604585D01*
X150337000Y-71604577D01*
X150330097Y-71534492D01*
X150302822Y-71444577D01*
X150258529Y-71361711D01*
X150198921Y-71289079D01*
X150180729Y-71274149D01*
X149775000Y-70868421D01*
X149775000Y-70799321D01*
X149748984Y-70668526D01*
X149697950Y-70545320D01*
X149623860Y-70434437D01*
X149529563Y-70340140D01*
X149418680Y-70266050D01*
X149295474Y-70215016D01*
X149164679Y-70189000D01*
X149031321Y-70189000D01*
X148900526Y-70215016D01*
X148777320Y-70266050D01*
X148666437Y-70340140D01*
X148572140Y-70434437D01*
X148498050Y-70545320D01*
X148447016Y-70668526D01*
X148421000Y-70799321D01*
X148421000Y-70932679D01*
X148447016Y-71063474D01*
X148498050Y-71186680D01*
X148572140Y-71297563D01*
X148666437Y-71391860D01*
X148777320Y-71465950D01*
X148900526Y-71516984D01*
X149031321Y-71543000D01*
X149100421Y-71543000D01*
X149383000Y-71825580D01*
X149383001Y-72319419D01*
X144657979Y-77044442D01*
X144588879Y-77044442D01*
X144458084Y-77070458D01*
X144334878Y-77121492D01*
X144223995Y-77195582D01*
X144129698Y-77289879D01*
X144055608Y-77400762D01*
X144004574Y-77523968D01*
X143978558Y-77654763D01*
X143647694Y-77654763D01*
X143741125Y-77561332D01*
X143815215Y-77450449D01*
X143866249Y-77327243D01*
X143892265Y-77196448D01*
X143892265Y-77063090D01*
X143866249Y-76932295D01*
X143815215Y-76809089D01*
X143742265Y-76699912D01*
X143742265Y-75403144D01*
X143744814Y-75377263D01*
X143734639Y-75273953D01*
X143722680Y-75234529D01*
X143704504Y-75174613D01*
X143655569Y-75083061D01*
X143589713Y-75002815D01*
X143569610Y-74986317D01*
X138586969Y-70003678D01*
X138570462Y-69983564D01*
X138490216Y-69917708D01*
X138398664Y-69868773D01*
X138299324Y-69838638D01*
X138221895Y-69831012D01*
X138196014Y-69828463D01*
X138170133Y-69831012D01*
X133375893Y-69831012D01*
X133350012Y-69828463D01*
X133324131Y-69831012D01*
X130619851Y-69831012D01*
X130575000Y-69786161D01*
X130575000Y-69560281D01*
X132529690Y-67605592D01*
X132658474Y-67579976D01*
X132781680Y-67528942D01*
X132892563Y-67454852D01*
X132986860Y-67360555D01*
X133060950Y-67249672D01*
X133111984Y-67126466D01*
X133138000Y-66995671D01*
X133138000Y-66862313D01*
X133111984Y-66731518D01*
X133060950Y-66608312D01*
X132986860Y-66497429D01*
X132892563Y-66403132D01*
X132781680Y-66329042D01*
X132658474Y-66278008D01*
X132527679Y-66251992D01*
X132394321Y-66251992D01*
X132263526Y-66278008D01*
X132140320Y-66329042D01*
X132029437Y-66403132D01*
X131935140Y-66497429D01*
X131861050Y-66608312D01*
X131810016Y-66731518D01*
X131784400Y-66860302D01*
X129693662Y-68951041D01*
X129673553Y-68967544D01*
X129621087Y-69031474D01*
X129607696Y-69047791D01*
X129558761Y-69139343D01*
X129528626Y-69238683D01*
X129518451Y-69341992D01*
X129521001Y-69367882D01*
X129521001Y-69786160D01*
X129476161Y-69831000D01*
X117971000Y-69831000D01*
X117971000Y-68877076D01*
X117975243Y-68833999D01*
X117970013Y-68780900D01*
X117958310Y-68662078D01*
X117908162Y-68496763D01*
X117826727Y-68344408D01*
X117717133Y-68210867D01*
X117683669Y-68183404D01*
X117617597Y-68117332D01*
X117590133Y-68083867D01*
X117456592Y-67974273D01*
X117304237Y-67892838D01*
X117138922Y-67842690D01*
X117010079Y-67830000D01*
X116967000Y-67825757D01*
X116923921Y-67830000D01*
X110188263Y-67830000D01*
X109081000Y-66722737D01*
X109081000Y-65510505D01*
X109089463Y-65505981D01*
X109146869Y-65458869D01*
X109193981Y-65401463D01*
X109228988Y-65335970D01*
X109250545Y-65264905D01*
X109257824Y-65191000D01*
X109257824Y-63841000D01*
X109250545Y-63767095D01*
X109228988Y-63696030D01*
X109216678Y-63673000D01*
X110112088Y-63673000D01*
X110073389Y-63698858D01*
%TA.AperFunction,Conductor*%
D18*
G36*
X110073389Y-63698858D02*
G01*
X109926858Y-63845389D01*
X109811730Y-64017691D01*
X109732428Y-64209143D01*
X109692000Y-64412387D01*
X109692000Y-64619613D01*
X109732428Y-64822857D01*
X109811730Y-65014309D01*
X109926858Y-65186611D01*
X110073389Y-65333142D01*
X110245691Y-65448270D01*
X110437143Y-65527572D01*
X110640387Y-65568000D01*
X110847613Y-65568000D01*
X111050857Y-65527572D01*
X111242309Y-65448270D01*
X111414611Y-65333142D01*
X111561142Y-65186611D01*
X111676270Y-65014309D01*
X111755572Y-64822857D01*
X111796000Y-64619613D01*
X111796000Y-64412387D01*
X111755572Y-64209143D01*
X111676270Y-64017691D01*
X111561142Y-63845389D01*
X111414611Y-63698858D01*
X111375912Y-63673000D01*
X112652088Y-63673000D01*
X112613389Y-63698858D01*
X112466858Y-63845389D01*
X112351730Y-64017691D01*
X112272428Y-64209143D01*
X112232000Y-64412387D01*
X112232000Y-64619613D01*
X112272428Y-64822857D01*
X112351730Y-65014309D01*
X112466858Y-65186611D01*
X112613389Y-65333142D01*
X112785691Y-65448270D01*
X112977143Y-65527572D01*
X113180387Y-65568000D01*
X113387613Y-65568000D01*
X113590857Y-65527572D01*
X113782309Y-65448270D01*
X113954611Y-65333142D01*
X114101142Y-65186611D01*
X114216270Y-65014309D01*
X114295572Y-64822857D01*
X114336000Y-64619613D01*
X114336000Y-64412387D01*
X114295572Y-64209143D01*
X114216270Y-64017691D01*
X114101142Y-63845389D01*
X113954611Y-63698858D01*
X113915912Y-63673000D01*
X115192088Y-63673000D01*
X115153389Y-63698858D01*
X115006858Y-63845389D01*
X114891730Y-64017691D01*
X114812428Y-64209143D01*
X114772000Y-64412387D01*
X114772000Y-64619613D01*
X114812428Y-64822857D01*
X114891730Y-65014309D01*
X115006858Y-65186611D01*
X115153389Y-65333142D01*
X115325691Y-65448270D01*
X115517143Y-65527572D01*
X115720387Y-65568000D01*
X115927613Y-65568000D01*
X116130857Y-65527572D01*
X116322309Y-65448270D01*
X116494611Y-65333142D01*
X116641142Y-65186611D01*
X116756270Y-65014309D01*
X116835572Y-64822857D01*
X116876000Y-64619613D01*
X116876000Y-64412387D01*
X116835572Y-64209143D01*
X116756270Y-64017691D01*
X116641142Y-63845389D01*
X116494611Y-63698858D01*
X116455912Y-63673000D01*
X117732088Y-63673000D01*
X117693389Y-63698858D01*
X117546858Y-63845389D01*
X117431730Y-64017691D01*
X117352428Y-64209143D01*
X117312000Y-64412387D01*
X117312000Y-64619613D01*
X117352428Y-64822857D01*
X117431730Y-65014309D01*
X117546858Y-65186611D01*
X117693389Y-65333142D01*
X117865691Y-65448270D01*
X118057143Y-65527572D01*
X118260387Y-65568000D01*
X118467613Y-65568000D01*
X118670857Y-65527572D01*
X118862309Y-65448270D01*
X119034611Y-65333142D01*
X119181142Y-65186611D01*
X119296270Y-65014309D01*
X119375572Y-64822857D01*
X119416000Y-64619613D01*
X119416000Y-64412387D01*
X119375572Y-64209143D01*
X119296270Y-64017691D01*
X119181142Y-63845389D01*
X119034611Y-63698858D01*
X118995912Y-63673000D01*
X120272088Y-63673000D01*
X120233389Y-63698858D01*
X120086858Y-63845389D01*
X119971730Y-64017691D01*
X119892428Y-64209143D01*
X119852000Y-64412387D01*
X119852000Y-64619613D01*
X119892428Y-64822857D01*
X119971730Y-65014309D01*
X120086858Y-65186611D01*
X120233389Y-65333142D01*
X120405691Y-65448270D01*
X120597143Y-65527572D01*
X120800387Y-65568000D01*
X121007613Y-65568000D01*
X121210857Y-65527572D01*
X121402309Y-65448270D01*
X121574611Y-65333142D01*
X121721142Y-65186611D01*
X121836270Y-65014309D01*
X121915572Y-64822857D01*
X121956000Y-64619613D01*
X121956000Y-64412387D01*
X121915572Y-64209143D01*
X121836270Y-64017691D01*
X121721142Y-63845389D01*
X121574611Y-63698858D01*
X121535912Y-63673000D01*
X122812088Y-63673000D01*
X122773389Y-63698858D01*
X122626858Y-63845389D01*
X122511730Y-64017691D01*
X122432428Y-64209143D01*
X122392000Y-64412387D01*
X122392000Y-64619613D01*
X122432428Y-64822857D01*
X122511730Y-65014309D01*
X122626858Y-65186611D01*
X122773389Y-65333142D01*
X122945691Y-65448270D01*
X123137143Y-65527572D01*
X123340387Y-65568000D01*
X123547613Y-65568000D01*
X123750857Y-65527572D01*
X123942309Y-65448270D01*
X124114611Y-65333142D01*
X124261142Y-65186611D01*
X124376270Y-65014309D01*
X124455572Y-64822857D01*
X124496000Y-64619613D01*
X124496000Y-64412387D01*
X124455572Y-64209143D01*
X124376270Y-64017691D01*
X124261142Y-63845389D01*
X124114611Y-63698858D01*
X124075912Y-63673000D01*
X125352088Y-63673000D01*
X125313389Y-63698858D01*
X125166858Y-63845389D01*
X125051730Y-64017691D01*
X124972428Y-64209143D01*
X124932000Y-64412387D01*
X124932000Y-64619613D01*
X124972428Y-64822857D01*
X125051730Y-65014309D01*
X125166858Y-65186611D01*
X125313389Y-65333142D01*
X125485691Y-65448270D01*
X125677143Y-65527572D01*
X125880387Y-65568000D01*
X126087613Y-65568000D01*
X126290857Y-65527572D01*
X126482309Y-65448270D01*
X126654611Y-65333142D01*
X126801142Y-65186611D01*
X126916270Y-65014309D01*
X126995572Y-64822857D01*
X127036000Y-64619613D01*
X127036000Y-64412387D01*
X126995572Y-64209143D01*
X126916270Y-64017691D01*
X126801142Y-63845389D01*
X126654611Y-63698858D01*
X126615912Y-63673000D01*
X127892088Y-63673000D01*
X127853389Y-63698858D01*
X127706858Y-63845389D01*
X127591730Y-64017691D01*
X127512428Y-64209143D01*
X127472000Y-64412387D01*
X127472000Y-64619613D01*
X127512428Y-64822857D01*
X127591730Y-65014309D01*
X127706858Y-65186611D01*
X127853389Y-65333142D01*
X128025691Y-65448270D01*
X128217143Y-65527572D01*
X128420387Y-65568000D01*
X128627613Y-65568000D01*
X128830857Y-65527572D01*
X129022309Y-65448270D01*
X129194611Y-65333142D01*
X129341142Y-65186611D01*
X129456270Y-65014309D01*
X129535572Y-64822857D01*
X129576000Y-64619613D01*
X129576000Y-64412387D01*
X129535572Y-64209143D01*
X129456270Y-64017691D01*
X129341142Y-63845389D01*
X129194611Y-63698858D01*
X129155912Y-63673000D01*
X130432088Y-63673000D01*
X130393389Y-63698858D01*
X130246858Y-63845389D01*
X130131730Y-64017691D01*
X130052428Y-64209143D01*
X130012000Y-64412387D01*
X130012000Y-64619613D01*
X130052428Y-64822857D01*
X130131730Y-65014309D01*
X130246858Y-65186611D01*
X130393389Y-65333142D01*
X130565691Y-65448270D01*
X130757143Y-65527572D01*
X130960387Y-65568000D01*
X131167613Y-65568000D01*
X131370857Y-65527572D01*
X131562309Y-65448270D01*
X131734611Y-65333142D01*
X131881142Y-65186611D01*
X131996270Y-65014309D01*
X132075572Y-64822857D01*
X132116000Y-64619613D01*
X132116000Y-64412387D01*
X132075572Y-64209143D01*
X131996270Y-64017691D01*
X131881142Y-63845389D01*
X131734611Y-63698858D01*
X131695912Y-63673000D01*
X132972088Y-63673000D01*
X132933389Y-63698858D01*
X132786858Y-63845389D01*
X132671730Y-64017691D01*
X132592428Y-64209143D01*
X132552000Y-64412387D01*
X132552000Y-64619613D01*
X132592428Y-64822857D01*
X132671730Y-65014309D01*
X132786858Y-65186611D01*
X132933389Y-65333142D01*
X133105691Y-65448270D01*
X133297143Y-65527572D01*
X133500387Y-65568000D01*
X133707613Y-65568000D01*
X133910857Y-65527572D01*
X134102309Y-65448270D01*
X134274611Y-65333142D01*
X134421142Y-65186611D01*
X134536270Y-65014309D01*
X134615572Y-64822857D01*
X134656000Y-64619613D01*
X134656000Y-64412387D01*
X134615572Y-64209143D01*
X134536270Y-64017691D01*
X134421142Y-63845389D01*
X134274611Y-63698858D01*
X134235912Y-63673000D01*
X135512088Y-63673000D01*
X135473389Y-63698858D01*
X135326858Y-63845389D01*
X135211730Y-64017691D01*
X135132428Y-64209143D01*
X135092000Y-64412387D01*
X135092000Y-64619613D01*
X135132428Y-64822857D01*
X135211730Y-65014309D01*
X135326858Y-65186611D01*
X135473389Y-65333142D01*
X135645691Y-65448270D01*
X135837143Y-65527572D01*
X136040387Y-65568000D01*
X136247613Y-65568000D01*
X136450857Y-65527572D01*
X136642309Y-65448270D01*
X136814611Y-65333142D01*
X136961142Y-65186611D01*
X137039204Y-65069783D01*
X137822147Y-65852727D01*
X137837079Y-65870921D01*
X137909711Y-65930529D01*
X137992577Y-65974822D01*
X138082492Y-66002097D01*
X138152577Y-66009000D01*
X138152585Y-66009000D01*
X138176000Y-66011306D01*
X138199415Y-66009000D01*
X140593490Y-66009000D01*
X140664079Y-66079589D01*
X140664079Y-66148689D01*
X140690095Y-66279484D01*
X140741129Y-66402690D01*
X140815219Y-66513573D01*
X140909516Y-66607870D01*
X141020399Y-66681960D01*
X141143605Y-66732994D01*
X141274400Y-66759010D01*
X141407758Y-66759010D01*
X141538553Y-66732994D01*
X141661759Y-66681960D01*
X141772642Y-66607870D01*
X141866939Y-66513573D01*
X141941029Y-66402690D01*
X141992063Y-66279484D01*
X142018079Y-66148689D01*
X142018079Y-66015331D01*
X141992063Y-65884536D01*
X141941029Y-65761330D01*
X141866939Y-65650447D01*
X141772642Y-65556150D01*
X141661759Y-65482060D01*
X141651246Y-65477705D01*
X141722309Y-65448270D01*
X141894611Y-65333142D01*
X142041142Y-65186611D01*
X142156270Y-65014309D01*
X142235572Y-64822857D01*
X142276000Y-64619613D01*
X142276000Y-64412387D01*
X142235572Y-64209143D01*
X142156270Y-64017691D01*
X142041142Y-63845389D01*
X141894611Y-63698858D01*
X141855912Y-63673000D01*
X143132088Y-63673000D01*
X143093389Y-63698858D01*
X142946858Y-63845389D01*
X142831730Y-64017691D01*
X142752428Y-64209143D01*
X142712000Y-64412387D01*
X142712000Y-64619613D01*
X142752428Y-64822857D01*
X142831730Y-65014309D01*
X142946858Y-65186611D01*
X143093389Y-65333142D01*
X143265691Y-65448270D01*
X143457143Y-65527572D01*
X143660387Y-65568000D01*
X143867613Y-65568000D01*
X144070857Y-65527572D01*
X144262309Y-65448270D01*
X144434611Y-65333142D01*
X144581142Y-65186611D01*
X144696270Y-65014309D01*
X144775572Y-64822857D01*
X144816000Y-64619613D01*
X144816000Y-64412387D01*
X144775572Y-64209143D01*
X144696270Y-64017691D01*
X144581142Y-63845389D01*
X144434611Y-63698858D01*
X144395912Y-63673000D01*
X145672088Y-63673000D01*
X145633389Y-63698858D01*
X145486858Y-63845389D01*
X145371730Y-64017691D01*
X145292428Y-64209143D01*
X145252000Y-64412387D01*
X145252000Y-64619613D01*
X145292428Y-64822857D01*
X145371730Y-65014309D01*
X145486858Y-65186611D01*
X145633389Y-65333142D01*
X145805691Y-65448270D01*
X145997143Y-65527572D01*
X146200387Y-65568000D01*
X146407613Y-65568000D01*
X146610857Y-65527572D01*
X146632166Y-65518746D01*
X147097006Y-65983586D01*
X147097007Y-68353576D01*
X147048146Y-68402437D01*
X146974056Y-68513320D01*
X146923022Y-68636526D01*
X146897006Y-68767321D01*
X146897006Y-68900679D01*
X146923022Y-69031474D01*
X146974056Y-69154680D01*
X147048146Y-69265563D01*
X147142443Y-69359860D01*
X147253326Y-69433950D01*
X147376532Y-69484984D01*
X147507327Y-69511000D01*
X147640685Y-69511000D01*
X147771480Y-69484984D01*
X147894686Y-69433950D01*
X148005569Y-69359860D01*
X148099866Y-69265563D01*
X148173956Y-69154680D01*
X148224990Y-69031474D01*
X148251006Y-68900679D01*
X148251006Y-68767321D01*
X148224990Y-68636526D01*
X148173956Y-68513320D01*
X148099866Y-68402437D01*
X148051006Y-68353577D01*
X148051006Y-65809421D01*
X148053312Y-65786006D01*
X148051006Y-65762591D01*
X148051006Y-65762583D01*
X148044103Y-65692498D01*
X148016828Y-65602583D01*
X147972535Y-65519717D01*
X147961262Y-65505981D01*
X147927858Y-65465278D01*
X147927856Y-65465276D01*
X147912927Y-65447085D01*
X147894735Y-65432155D01*
X147306746Y-64844166D01*
X147315572Y-64822857D01*
X147356000Y-64619613D01*
X147356000Y-64412387D01*
X147315572Y-64209143D01*
X147236270Y-64017691D01*
X147121142Y-63845389D01*
X146974611Y-63698858D01*
X146935912Y-63673000D01*
X148212088Y-63673000D01*
X148173389Y-63698858D01*
X148026858Y-63845389D01*
X147911730Y-64017691D01*
X147832428Y-64209143D01*
X147792000Y-64412387D01*
X147792000Y-64619613D01*
X147832428Y-64822857D01*
X147911730Y-65014309D01*
X148026858Y-65186611D01*
X148173389Y-65333142D01*
X148345691Y-65448270D01*
X148367000Y-65457097D01*
X148367001Y-67718576D01*
X148318140Y-67767437D01*
X148244050Y-67878320D01*
X148193016Y-68001526D01*
X148167000Y-68132321D01*
X148167000Y-68265679D01*
X148193016Y-68396474D01*
X148244050Y-68519680D01*
X148318140Y-68630563D01*
X148412437Y-68724860D01*
X148523320Y-68798950D01*
X148646526Y-68849984D01*
X148777321Y-68876000D01*
X148910679Y-68876000D01*
X149041474Y-68849984D01*
X149164680Y-68798950D01*
X149275563Y-68724860D01*
X149369860Y-68630563D01*
X149443950Y-68519680D01*
X149494984Y-68396474D01*
X149521000Y-68265679D01*
X149521000Y-68132321D01*
X149494984Y-68001526D01*
X149443950Y-67878320D01*
X149369860Y-67767437D01*
X149321000Y-67718577D01*
X149321000Y-65457096D01*
X149342309Y-65448270D01*
X149514611Y-65333142D01*
X149661142Y-65186611D01*
X149776270Y-65014309D01*
X149855572Y-64822857D01*
X149896000Y-64619613D01*
X149896000Y-64412387D01*
X149855572Y-64209143D01*
X149776270Y-64017691D01*
X149661142Y-63845389D01*
X149514611Y-63698858D01*
X149475912Y-63673000D01*
X150752088Y-63673000D01*
X150713389Y-63698858D01*
X150566858Y-63845389D01*
X150451730Y-64017691D01*
X150372428Y-64209143D01*
X150332000Y-64412387D01*
X150332000Y-64619613D01*
X150372428Y-64822857D01*
X150451730Y-65014309D01*
X150566858Y-65186611D01*
X150713389Y-65333142D01*
X150885691Y-65448270D01*
X150907000Y-65457097D01*
X150907001Y-67337576D01*
X150858140Y-67386437D01*
X150784050Y-67497320D01*
X150733016Y-67620526D01*
X150707000Y-67751321D01*
X150707000Y-67884679D01*
X150733016Y-68015474D01*
X150784050Y-68138680D01*
X150858140Y-68249563D01*
X150952437Y-68343860D01*
X151063320Y-68417950D01*
X151186526Y-68468984D01*
X151317321Y-68495000D01*
X151450679Y-68495000D01*
X151581474Y-68468984D01*
X151704680Y-68417950D01*
X151815563Y-68343860D01*
X151909860Y-68249563D01*
X151983950Y-68138680D01*
X152034984Y-68015474D01*
X152061000Y-67884679D01*
X152061000Y-67751321D01*
X152034984Y-67620526D01*
X151983950Y-67497320D01*
X151909860Y-67386437D01*
X151861000Y-67337577D01*
X151861000Y-65457096D01*
X151882309Y-65448270D01*
X152054611Y-65333142D01*
X152201142Y-65186611D01*
X152316270Y-65014309D01*
X152395572Y-64822857D01*
X152436000Y-64619613D01*
X152436000Y-64412387D01*
X152395572Y-64209143D01*
X152316270Y-64017691D01*
X152201142Y-63845389D01*
X152054611Y-63698858D01*
X152015912Y-63673000D01*
X153292088Y-63673000D01*
X153253389Y-63698858D01*
X153106858Y-63845389D01*
X152991730Y-64017691D01*
X152912428Y-64209143D01*
X152872000Y-64412387D01*
X152872000Y-64619613D01*
X152912428Y-64822857D01*
X152991730Y-65014309D01*
X153106858Y-65186611D01*
X153253389Y-65333142D01*
X153425691Y-65448270D01*
X153447000Y-65457097D01*
X153446999Y-66956577D01*
X153398139Y-67005437D01*
X153324049Y-67116320D01*
X153273015Y-67239526D01*
X153246999Y-67370321D01*
X153246999Y-67503679D01*
X153273015Y-67634474D01*
X153324049Y-67757680D01*
X153398139Y-67868563D01*
X153492436Y-67962860D01*
X153603319Y-68036950D01*
X153726525Y-68087984D01*
X153857320Y-68114000D01*
X153990678Y-68114000D01*
X154121473Y-68087984D01*
X154244679Y-68036950D01*
X154355562Y-67962860D01*
X154449859Y-67868563D01*
X154523949Y-67757680D01*
X154574983Y-67634474D01*
X154600999Y-67503679D01*
X154600999Y-67370321D01*
X154574983Y-67239526D01*
X154523949Y-67116320D01*
X154449859Y-67005437D01*
X154400998Y-66956576D01*
X154400999Y-65457097D01*
X154422309Y-65448270D01*
X154594611Y-65333142D01*
X154741142Y-65186611D01*
X154856270Y-65014309D01*
X154935572Y-64822857D01*
X154976000Y-64619613D01*
X154976000Y-64412387D01*
X154935572Y-64209143D01*
X154856270Y-64017691D01*
X154741142Y-63845389D01*
X154594611Y-63698858D01*
X154555912Y-63673000D01*
X155832088Y-63673000D01*
X155793389Y-63698858D01*
X155646858Y-63845389D01*
X155531730Y-64017691D01*
X155452428Y-64209143D01*
X155412000Y-64412387D01*
X155412000Y-64619613D01*
X155452428Y-64822857D01*
X155531730Y-65014309D01*
X155646858Y-65186611D01*
X155793389Y-65333142D01*
X155965691Y-65448270D01*
X155987000Y-65457097D01*
X155987001Y-66575572D01*
X155938136Y-66624437D01*
X155864046Y-66735320D01*
X155813012Y-66858526D01*
X155786996Y-66989321D01*
X155786996Y-67122679D01*
X155813012Y-67253474D01*
X155864046Y-67376680D01*
X155938136Y-67487563D01*
X156032433Y-67581860D01*
X156143316Y-67655950D01*
X156266522Y-67706984D01*
X156397317Y-67733000D01*
X156530675Y-67733000D01*
X156661470Y-67706984D01*
X156784676Y-67655950D01*
X156895559Y-67581860D01*
X156989856Y-67487563D01*
X157063946Y-67376680D01*
X157114980Y-67253474D01*
X157140996Y-67122679D01*
X157140996Y-66989321D01*
X157114980Y-66858526D01*
X157063946Y-66735320D01*
X156989856Y-66624437D01*
X156941000Y-66575581D01*
X156941000Y-65457096D01*
X156962309Y-65448270D01*
X157134611Y-65333142D01*
X157281142Y-65186611D01*
X157396270Y-65014309D01*
X157475572Y-64822857D01*
X157516000Y-64619613D01*
X157516000Y-64412387D01*
X157475572Y-64209143D01*
X157396270Y-64017691D01*
X157281142Y-63845389D01*
X157134611Y-63698858D01*
X157095912Y-63673000D01*
X158372088Y-63673000D01*
X158333389Y-63698858D01*
X158186858Y-63845389D01*
X158071730Y-64017691D01*
X157992428Y-64209143D01*
X157952000Y-64412387D01*
X157952000Y-64619613D01*
X157992428Y-64822857D01*
X158071730Y-65014309D01*
X158186858Y-65186611D01*
X158333389Y-65333142D01*
X158505691Y-65448270D01*
X158527000Y-65457097D01*
X158527001Y-66321536D01*
X158478136Y-66370401D01*
X158404046Y-66481284D01*
X158353012Y-66604490D01*
X158326996Y-66735285D01*
X158326996Y-66868643D01*
X158353012Y-66999438D01*
X158404046Y-67122644D01*
X158478136Y-67233527D01*
X158572433Y-67327824D01*
X158683316Y-67401914D01*
X158806522Y-67452948D01*
X158937317Y-67478964D01*
X159070675Y-67478964D01*
X159201470Y-67452948D01*
X159324676Y-67401914D01*
X159435559Y-67327824D01*
X159529856Y-67233527D01*
X159603946Y-67122644D01*
X159654980Y-66999438D01*
X159680996Y-66868643D01*
X159680996Y-66735285D01*
X159654980Y-66604490D01*
X159603946Y-66481284D01*
X159529856Y-66370401D01*
X159481000Y-66321545D01*
X159481000Y-65457096D01*
X159502309Y-65448270D01*
X159674611Y-65333142D01*
X159821142Y-65186611D01*
X159936270Y-65014309D01*
X160015572Y-64822857D01*
X160056000Y-64619613D01*
X160056000Y-64412387D01*
X160015572Y-64209143D01*
X159936270Y-64017691D01*
X159821142Y-63845389D01*
X159674611Y-63698858D01*
X159635912Y-63673000D01*
X160912088Y-63673000D01*
X160873389Y-63698858D01*
X160726858Y-63845389D01*
X160611730Y-64017691D01*
X160532428Y-64209143D01*
X160492000Y-64412387D01*
X160492000Y-64619613D01*
X160532428Y-64822857D01*
X160611730Y-65014309D01*
X160726858Y-65186611D01*
X160873389Y-65333142D01*
X161045691Y-65448270D01*
X161067000Y-65457097D01*
X161067001Y-65940576D01*
X161018140Y-65989437D01*
X160944050Y-66100320D01*
X160893016Y-66223526D01*
X160867000Y-66354321D01*
X160867000Y-66487679D01*
X160893016Y-66618474D01*
X160944050Y-66741680D01*
X161018140Y-66852563D01*
X161112437Y-66946860D01*
X161223320Y-67020950D01*
X161346526Y-67071984D01*
X161477321Y-67098000D01*
X161610679Y-67098000D01*
X161741474Y-67071984D01*
X161864680Y-67020950D01*
X161975563Y-66946860D01*
X162069860Y-66852563D01*
X162143950Y-66741680D01*
X162194984Y-66618474D01*
X162221000Y-66487679D01*
X162221000Y-66354321D01*
X162194984Y-66223526D01*
X162143950Y-66100320D01*
X162069860Y-65989437D01*
X162021000Y-65940577D01*
X162021000Y-65457096D01*
X162042309Y-65448270D01*
X162214611Y-65333142D01*
X162361142Y-65186611D01*
X162476270Y-65014309D01*
X162555572Y-64822857D01*
X162596000Y-64619613D01*
X162596000Y-64412387D01*
X162555572Y-64209143D01*
X162476270Y-64017691D01*
X162361142Y-63845389D01*
X162214611Y-63698858D01*
X162175912Y-63673000D01*
X163452088Y-63673000D01*
X163413389Y-63698858D01*
X163266858Y-63845389D01*
X163151730Y-64017691D01*
X163072428Y-64209143D01*
X163032000Y-64412387D01*
X163032000Y-64619613D01*
X163072428Y-64822857D01*
X163151730Y-65014309D01*
X163266858Y-65186611D01*
X163413389Y-65333142D01*
X163585691Y-65448270D01*
X163607001Y-65457097D01*
X163607001Y-65559576D01*
X163558140Y-65608437D01*
X163484050Y-65719320D01*
X163433016Y-65842526D01*
X163407000Y-65973321D01*
X163407000Y-66106679D01*
X163433016Y-66237474D01*
X163484050Y-66360680D01*
X163558140Y-66471563D01*
X163652437Y-66565860D01*
X163763320Y-66639950D01*
X163886526Y-66690984D01*
X164017321Y-66717000D01*
X164150679Y-66717000D01*
X164281474Y-66690984D01*
X164404680Y-66639950D01*
X164515563Y-66565860D01*
X164609860Y-66471563D01*
X164683950Y-66360680D01*
X164734984Y-66237474D01*
X164761000Y-66106679D01*
X164761000Y-65973321D01*
X164734984Y-65842526D01*
X164683950Y-65719320D01*
X164609860Y-65608437D01*
X164561000Y-65559577D01*
X164561000Y-65457096D01*
X164582309Y-65448270D01*
X164754611Y-65333142D01*
X164901142Y-65186611D01*
X165016270Y-65014309D01*
X165095572Y-64822857D01*
X165136000Y-64619613D01*
X165136000Y-64412387D01*
X165095572Y-64209143D01*
X165016270Y-64017691D01*
X164901142Y-63845389D01*
X164754611Y-63698858D01*
X164715912Y-63673000D01*
X165992088Y-63673000D01*
X165953389Y-63698858D01*
X165806858Y-63845389D01*
X165691730Y-64017691D01*
X165612428Y-64209143D01*
X165572000Y-64412387D01*
X165572000Y-64619613D01*
X165612428Y-64822857D01*
X165691730Y-65014309D01*
X165806858Y-65186611D01*
X165953389Y-65333142D01*
X166125691Y-65448270D01*
X166317143Y-65527572D01*
X166520387Y-65568000D01*
X166727613Y-65568000D01*
X166930857Y-65527572D01*
X167122309Y-65448270D01*
X167294611Y-65333142D01*
X167441142Y-65186611D01*
X167556270Y-65014309D01*
X167635572Y-64822857D01*
X167676000Y-64619613D01*
X167676000Y-64412387D01*
X167635572Y-64209143D01*
X167556270Y-64017691D01*
X167441142Y-63845389D01*
X167294611Y-63698858D01*
X167255912Y-63673000D01*
X168532088Y-63673000D01*
X168493389Y-63698858D01*
X168346858Y-63845389D01*
X168231730Y-64017691D01*
X168152428Y-64209143D01*
X168112000Y-64412387D01*
X168112000Y-64619613D01*
X168152428Y-64822857D01*
X168231730Y-65014309D01*
X168346858Y-65186611D01*
X168493389Y-65333142D01*
X168665691Y-65448270D01*
X168857143Y-65527572D01*
X169060387Y-65568000D01*
X169267613Y-65568000D01*
X169470857Y-65527572D01*
X169662309Y-65448270D01*
X169834611Y-65333142D01*
X169981142Y-65186611D01*
X170096270Y-65014309D01*
X170175572Y-64822857D01*
X170216000Y-64619613D01*
X170216000Y-64412387D01*
X170175572Y-64209143D01*
X170096270Y-64017691D01*
X169981142Y-63845389D01*
X169834611Y-63698858D01*
X169795912Y-63673000D01*
X171072088Y-63673000D01*
X171033389Y-63698858D01*
X170886858Y-63845389D01*
X170771730Y-64017691D01*
X170692428Y-64209143D01*
X170652000Y-64412387D01*
X170652000Y-64619613D01*
X170692428Y-64822857D01*
X170771730Y-65014309D01*
X170886858Y-65186611D01*
X171033389Y-65333142D01*
X171205691Y-65448270D01*
X171397143Y-65527572D01*
X171600387Y-65568000D01*
X171807613Y-65568000D01*
X172010857Y-65527572D01*
X172202309Y-65448270D01*
X172374611Y-65333142D01*
X172521142Y-65186611D01*
X172547000Y-65147911D01*
X172547001Y-78757143D01*
X172367629Y-78626527D01*
X172134528Y-78518762D01*
X172033400Y-78488090D01*
X171831000Y-78611776D01*
X171831000Y-79629000D01*
X171851000Y-79629000D01*
X171851000Y-79883000D01*
X171831000Y-79883000D01*
X171831000Y-79903000D01*
X171577000Y-79903000D01*
X171577000Y-79883000D01*
X170558915Y-79883000D01*
X170436085Y-80085401D01*
X170524711Y-80326430D01*
X170658656Y-80545537D01*
X170707970Y-80599000D01*
X169795912Y-80599000D01*
X169834611Y-80573142D01*
X169981142Y-80426611D01*
X170096270Y-80254309D01*
X170175572Y-80062857D01*
X170216000Y-79859613D01*
X170216000Y-79652387D01*
X170175572Y-79449143D01*
X170166234Y-79426599D01*
X170436085Y-79426599D01*
X170558915Y-79629000D01*
X171577000Y-79629000D01*
X171577000Y-78611776D01*
X171374600Y-78488090D01*
X171273472Y-78518762D01*
X171040371Y-78626527D01*
X170832773Y-78777697D01*
X170658656Y-78966463D01*
X170524711Y-79185570D01*
X170436085Y-79426599D01*
X170166234Y-79426599D01*
X170096270Y-79257691D01*
X169981142Y-79085389D01*
X169834611Y-78938858D01*
X169662309Y-78823730D01*
X169470857Y-78744428D01*
X169267613Y-78704000D01*
X169060387Y-78704000D01*
X168857143Y-78744428D01*
X168665691Y-78823730D01*
X168493389Y-78938858D01*
X168346858Y-79085389D01*
X168231730Y-79257691D01*
X168152428Y-79449143D01*
X168112000Y-79652387D01*
X168112000Y-79859613D01*
X168152428Y-80062857D01*
X168231730Y-80254309D01*
X168346858Y-80426611D01*
X168493389Y-80573142D01*
X168532088Y-80599000D01*
X167255912Y-80599000D01*
X167294611Y-80573142D01*
X167441142Y-80426611D01*
X167556270Y-80254309D01*
X167635572Y-80062857D01*
X167676000Y-79859613D01*
X167676000Y-79652387D01*
X167635572Y-79449143D01*
X167556270Y-79257691D01*
X167441142Y-79085389D01*
X167294611Y-78938858D01*
X167122309Y-78823730D01*
X166930857Y-78744428D01*
X166727613Y-78704000D01*
X166520387Y-78704000D01*
X166317143Y-78744428D01*
X166125691Y-78823730D01*
X165953389Y-78938858D01*
X165806858Y-79085389D01*
X165691730Y-79257691D01*
X165612428Y-79449143D01*
X165572000Y-79652387D01*
X165572000Y-79859613D01*
X165612428Y-80062857D01*
X165691730Y-80254309D01*
X165806858Y-80426611D01*
X165953389Y-80573142D01*
X165992088Y-80599000D01*
X164715912Y-80599000D01*
X164754611Y-80573142D01*
X164901142Y-80426611D01*
X165016270Y-80254309D01*
X165095572Y-80062857D01*
X165136000Y-79859613D01*
X165136000Y-79652387D01*
X165095572Y-79449143D01*
X165016270Y-79257691D01*
X164901142Y-79085389D01*
X164754611Y-78938858D01*
X164582309Y-78823730D01*
X164390857Y-78744428D01*
X164187613Y-78704000D01*
X163980387Y-78704000D01*
X163777143Y-78744428D01*
X163585691Y-78823730D01*
X163413389Y-78938858D01*
X163266858Y-79085389D01*
X163151730Y-79257691D01*
X163072428Y-79449143D01*
X163032000Y-79652387D01*
X163032000Y-79859613D01*
X163072428Y-80062857D01*
X163151730Y-80254309D01*
X163266858Y-80426611D01*
X163413389Y-80573142D01*
X163452088Y-80599000D01*
X162175912Y-80599000D01*
X162214611Y-80573142D01*
X162361142Y-80426611D01*
X162476270Y-80254309D01*
X162555572Y-80062857D01*
X162596000Y-79859613D01*
X162596000Y-79652387D01*
X162555572Y-79449143D01*
X162476270Y-79257691D01*
X162361142Y-79085389D01*
X162214611Y-78938858D01*
X162042309Y-78823730D01*
X161850857Y-78744428D01*
X161647613Y-78704000D01*
X161440387Y-78704000D01*
X161237143Y-78744428D01*
X161045691Y-78823730D01*
X160873389Y-78938858D01*
X160726858Y-79085389D01*
X160611730Y-79257691D01*
X160532428Y-79449143D01*
X160492000Y-79652387D01*
X160492000Y-79859613D01*
X160532428Y-80062857D01*
X160611730Y-80254309D01*
X160726858Y-80426611D01*
X160873389Y-80573142D01*
X160912088Y-80599000D01*
X159635912Y-80599000D01*
X159674611Y-80573142D01*
X159821142Y-80426611D01*
X159936270Y-80254309D01*
X160015572Y-80062857D01*
X160056000Y-79859613D01*
X160056000Y-79652387D01*
X160015572Y-79449143D01*
X159936270Y-79257691D01*
X159821142Y-79085389D01*
X159674611Y-78938858D01*
X159502309Y-78823730D01*
X159310857Y-78744428D01*
X159107613Y-78704000D01*
X158900387Y-78704000D01*
X158697143Y-78744428D01*
X158505691Y-78823730D01*
X158333389Y-78938858D01*
X158186858Y-79085389D01*
X158071730Y-79257691D01*
X157992428Y-79449143D01*
X157952000Y-79652387D01*
X157952000Y-79859613D01*
X157992428Y-80062857D01*
X158071730Y-80254309D01*
X158186858Y-80426611D01*
X158333389Y-80573142D01*
X158372088Y-80599000D01*
X157095912Y-80599000D01*
X157134611Y-80573142D01*
X157281142Y-80426611D01*
X157396270Y-80254309D01*
X157475572Y-80062857D01*
X157516000Y-79859613D01*
X157516000Y-79652387D01*
X157475572Y-79449143D01*
X157396270Y-79257691D01*
X157281142Y-79085389D01*
X157134611Y-78938858D01*
X156962309Y-78823730D01*
X156770857Y-78744428D01*
X156567613Y-78704000D01*
X156360387Y-78704000D01*
X156157143Y-78744428D01*
X155965691Y-78823730D01*
X155793389Y-78938858D01*
X155646858Y-79085389D01*
X155531730Y-79257691D01*
X155452428Y-79449143D01*
X155412000Y-79652387D01*
X155412000Y-79859613D01*
X155452428Y-80062857D01*
X155531730Y-80254309D01*
X155646858Y-80426611D01*
X155793389Y-80573142D01*
X155832088Y-80599000D01*
X154555912Y-80599000D01*
X154594611Y-80573142D01*
X154741142Y-80426611D01*
X154856270Y-80254309D01*
X154935572Y-80062857D01*
X154976000Y-79859613D01*
X154976000Y-79652387D01*
X154935572Y-79449143D01*
X154856270Y-79257691D01*
X154741142Y-79085389D01*
X154594611Y-78938858D01*
X154422309Y-78823730D01*
X154230857Y-78744428D01*
X154027613Y-78704000D01*
X153820387Y-78704000D01*
X153617143Y-78744428D01*
X153425691Y-78823730D01*
X153253389Y-78938858D01*
X153106858Y-79085389D01*
X152991730Y-79257691D01*
X152912428Y-79449143D01*
X152872000Y-79652387D01*
X152872000Y-79859613D01*
X152912428Y-80062857D01*
X152991730Y-80254309D01*
X153106858Y-80426611D01*
X153253389Y-80573142D01*
X153292088Y-80599000D01*
X152015912Y-80599000D01*
X152054611Y-80573142D01*
X152201142Y-80426611D01*
X152316270Y-80254309D01*
X152395572Y-80062857D01*
X152436000Y-79859613D01*
X152436000Y-79652387D01*
X152395572Y-79449143D01*
X152316270Y-79257691D01*
X152201142Y-79085389D01*
X152054611Y-78938858D01*
X151882309Y-78823730D01*
X151690857Y-78744428D01*
X151487613Y-78704000D01*
X151280387Y-78704000D01*
X151077143Y-78744428D01*
X150885691Y-78823730D01*
X150713389Y-78938858D01*
X150566858Y-79085389D01*
X150451730Y-79257691D01*
X150372428Y-79449143D01*
X150332000Y-79652387D01*
X150332000Y-79859613D01*
X150372428Y-80062857D01*
X150451730Y-80254309D01*
X150566858Y-80426611D01*
X150713389Y-80573142D01*
X150752088Y-80599000D01*
X149475912Y-80599000D01*
X149514611Y-80573142D01*
X149661142Y-80426611D01*
X149776270Y-80254309D01*
X149855572Y-80062857D01*
X149896000Y-79859613D01*
X149896000Y-79652387D01*
X149855572Y-79449143D01*
X149846745Y-79427834D01*
X153961580Y-75313000D01*
X170207439Y-75313000D01*
X170256299Y-75361860D01*
X170367182Y-75435950D01*
X170490388Y-75486984D01*
X170621183Y-75513000D01*
X170754541Y-75513000D01*
X170885336Y-75486984D01*
X171008542Y-75435950D01*
X171119425Y-75361860D01*
X171213722Y-75267563D01*
X171287812Y-75156680D01*
X171338846Y-75033474D01*
X171364862Y-74902679D01*
X171364862Y-74769321D01*
X171338846Y-74638526D01*
X171287812Y-74515320D01*
X171213722Y-74404437D01*
X171119425Y-74310140D01*
X171008542Y-74236050D01*
X170885336Y-74185016D01*
X170754541Y-74159000D01*
X170621183Y-74159000D01*
X170490388Y-74185016D01*
X170367182Y-74236050D01*
X170256299Y-74310140D01*
X170207439Y-74359000D01*
X153787415Y-74359000D01*
X153764000Y-74356694D01*
X153740585Y-74359000D01*
X153740577Y-74359000D01*
X153670492Y-74365903D01*
X153580577Y-74393178D01*
X153497711Y-74437471D01*
X153454952Y-74472563D01*
X153425079Y-74497079D01*
X153410150Y-74515270D01*
X149172166Y-78753255D01*
X149150857Y-78744428D01*
X148947613Y-78704000D01*
X148740387Y-78704000D01*
X148537143Y-78744428D01*
X148345691Y-78823730D01*
X148173389Y-78938858D01*
X148026858Y-79085389D01*
X147911730Y-79257691D01*
X147832428Y-79449143D01*
X147792000Y-79652387D01*
X147792000Y-79859613D01*
X147832428Y-80062857D01*
X147911730Y-80254309D01*
X148026858Y-80426611D01*
X148173389Y-80573142D01*
X148212088Y-80599000D01*
X146935912Y-80599000D01*
X146974611Y-80573142D01*
X147121142Y-80426611D01*
X147236270Y-80254309D01*
X147315572Y-80062857D01*
X147356000Y-79859613D01*
X147356000Y-79652387D01*
X147315572Y-79449143D01*
X147236270Y-79257691D01*
X147121142Y-79085389D01*
X146974611Y-78938858D01*
X146802309Y-78823730D01*
X146610857Y-78744428D01*
X146407613Y-78704000D01*
X146200387Y-78704000D01*
X145997143Y-78744428D01*
X145805691Y-78823730D01*
X145633389Y-78938858D01*
X145486858Y-79085389D01*
X145371730Y-79257691D01*
X145292428Y-79449143D01*
X145252000Y-79652387D01*
X145252000Y-79859613D01*
X145292428Y-80062857D01*
X145371730Y-80254309D01*
X145486858Y-80426611D01*
X145633389Y-80573142D01*
X145672088Y-80599000D01*
X144395912Y-80599000D01*
X144434611Y-80573142D01*
X144581142Y-80426611D01*
X144696270Y-80254309D01*
X144775572Y-80062857D01*
X144816000Y-79859613D01*
X144816000Y-79652387D01*
X144775572Y-79449143D01*
X144696270Y-79257691D01*
X144581142Y-79085389D01*
X144434611Y-78938858D01*
X144262309Y-78823730D01*
X144070857Y-78744428D01*
X143867613Y-78704000D01*
X143660387Y-78704000D01*
X143457143Y-78744428D01*
X143265691Y-78823730D01*
X143093389Y-78938858D01*
X142946858Y-79085389D01*
X142831730Y-79257691D01*
X142752428Y-79449143D01*
X142712000Y-79652387D01*
X142712000Y-79859613D01*
X142752428Y-80062857D01*
X142831730Y-80254309D01*
X142946858Y-80426611D01*
X143093389Y-80573142D01*
X143132088Y-80599000D01*
X141855912Y-80599000D01*
X141894611Y-80573142D01*
X142041142Y-80426611D01*
X142156270Y-80254309D01*
X142235572Y-80062857D01*
X142276000Y-79859613D01*
X142276000Y-79652387D01*
X142235572Y-79449143D01*
X142156270Y-79257691D01*
X142041142Y-79085389D01*
X141894611Y-78938858D01*
X141722309Y-78823730D01*
X141530857Y-78744428D01*
X141327613Y-78704000D01*
X141120387Y-78704000D01*
X140917143Y-78744428D01*
X140725691Y-78823730D01*
X140553389Y-78938858D01*
X140406858Y-79085389D01*
X140291730Y-79257691D01*
X140212428Y-79449143D01*
X140172000Y-79652387D01*
X140172000Y-79859613D01*
X140212428Y-80062857D01*
X140291730Y-80254309D01*
X140406858Y-80426611D01*
X140553389Y-80573142D01*
X140592088Y-80599000D01*
X139315912Y-80599000D01*
X139354611Y-80573142D01*
X139501142Y-80426611D01*
X139616270Y-80254309D01*
X139695572Y-80062857D01*
X139736000Y-79859613D01*
X139736000Y-79652387D01*
X139695572Y-79449143D01*
X139616270Y-79257691D01*
X139501142Y-79085389D01*
X139354611Y-78938858D01*
X139182309Y-78823730D01*
X138990857Y-78744428D01*
X138787613Y-78704000D01*
X138580387Y-78704000D01*
X138377143Y-78744428D01*
X138185691Y-78823730D01*
X138013389Y-78938858D01*
X137866858Y-79085389D01*
X137751730Y-79257691D01*
X137672428Y-79449143D01*
X137632000Y-79652387D01*
X137632000Y-79859613D01*
X137672428Y-80062857D01*
X137751730Y-80254309D01*
X137866858Y-80426611D01*
X138013389Y-80573142D01*
X138052088Y-80599000D01*
X136775912Y-80599000D01*
X136814611Y-80573142D01*
X136961142Y-80426611D01*
X137076270Y-80254309D01*
X137155572Y-80062857D01*
X137196000Y-79859613D01*
X137196000Y-79652387D01*
X137155572Y-79449143D01*
X137076270Y-79257691D01*
X136961142Y-79085389D01*
X136814611Y-78938858D01*
X136642309Y-78823730D01*
X136450857Y-78744428D01*
X136247613Y-78704000D01*
X136040387Y-78704000D01*
X135837143Y-78744428D01*
X135645691Y-78823730D01*
X135473389Y-78938858D01*
X135326858Y-79085389D01*
X135211730Y-79257691D01*
X135132428Y-79449143D01*
X135092000Y-79652387D01*
X135092000Y-79859613D01*
X135132428Y-80062857D01*
X135211730Y-80254309D01*
X135326858Y-80426611D01*
X135473389Y-80573142D01*
X135512088Y-80599000D01*
X134235912Y-80599000D01*
X134274611Y-80573142D01*
X134421142Y-80426611D01*
X134536270Y-80254309D01*
X134615572Y-80062857D01*
X134656000Y-79859613D01*
X134656000Y-79652387D01*
X134615572Y-79449143D01*
X134536270Y-79257691D01*
X134421142Y-79085389D01*
X134274611Y-78938858D01*
X134102309Y-78823730D01*
X133910857Y-78744428D01*
X133707613Y-78704000D01*
X133500387Y-78704000D01*
X133297143Y-78744428D01*
X133105691Y-78823730D01*
X132933389Y-78938858D01*
X132786858Y-79085389D01*
X132671730Y-79257691D01*
X132592428Y-79449143D01*
X132552000Y-79652387D01*
X132552000Y-79859613D01*
X132592428Y-80062857D01*
X132671730Y-80254309D01*
X132786858Y-80426611D01*
X132933389Y-80573142D01*
X132972088Y-80599000D01*
X131695912Y-80599000D01*
X131734611Y-80573142D01*
X131881142Y-80426611D01*
X131996270Y-80254309D01*
X132075572Y-80062857D01*
X132116000Y-79859613D01*
X132116000Y-79652387D01*
X132075572Y-79449143D01*
X131996270Y-79257691D01*
X131881142Y-79085389D01*
X131734611Y-78938858D01*
X131562309Y-78823730D01*
X131370857Y-78744428D01*
X131167613Y-78704000D01*
X130960387Y-78704000D01*
X130757143Y-78744428D01*
X130565691Y-78823730D01*
X130393389Y-78938858D01*
X130246858Y-79085389D01*
X130131730Y-79257691D01*
X130052428Y-79449143D01*
X130012000Y-79652387D01*
X130012000Y-79859613D01*
X130052428Y-80062857D01*
X130131730Y-80254309D01*
X130246858Y-80426611D01*
X130393389Y-80573142D01*
X130432088Y-80599000D01*
X129155912Y-80599000D01*
X129194611Y-80573142D01*
X129341142Y-80426611D01*
X129456270Y-80254309D01*
X129535572Y-80062857D01*
X129576000Y-79859613D01*
X129576000Y-79652387D01*
X129535572Y-79449143D01*
X129456270Y-79257691D01*
X129341142Y-79085389D01*
X129194611Y-78938858D01*
X129022309Y-78823730D01*
X128830857Y-78744428D01*
X128627613Y-78704000D01*
X128420387Y-78704000D01*
X128217143Y-78744428D01*
X128025691Y-78823730D01*
X127853389Y-78938858D01*
X127706858Y-79085389D01*
X127591730Y-79257691D01*
X127512428Y-79449143D01*
X127472000Y-79652387D01*
X127472000Y-79859613D01*
X127512428Y-80062857D01*
X127591730Y-80254309D01*
X127706858Y-80426611D01*
X127853389Y-80573142D01*
X127892088Y-80599000D01*
X126615912Y-80599000D01*
X126654611Y-80573142D01*
X126801142Y-80426611D01*
X126916270Y-80254309D01*
X126995572Y-80062857D01*
X127036000Y-79859613D01*
X127036000Y-79652387D01*
X126995572Y-79449143D01*
X126916270Y-79257691D01*
X126801142Y-79085389D01*
X126654611Y-78938858D01*
X126482309Y-78823730D01*
X126290857Y-78744428D01*
X126087613Y-78704000D01*
X125880387Y-78704000D01*
X125677143Y-78744428D01*
X125485691Y-78823730D01*
X125313389Y-78938858D01*
X125166858Y-79085389D01*
X125051730Y-79257691D01*
X124972428Y-79449143D01*
X124932000Y-79652387D01*
X124932000Y-79859613D01*
X124972428Y-80062857D01*
X125051730Y-80254309D01*
X125166858Y-80426611D01*
X125313389Y-80573142D01*
X125352088Y-80599000D01*
X124075912Y-80599000D01*
X124114611Y-80573142D01*
X124261142Y-80426611D01*
X124376270Y-80254309D01*
X124455572Y-80062857D01*
X124496000Y-79859613D01*
X124496000Y-79652387D01*
X124455572Y-79449143D01*
X124376270Y-79257691D01*
X124261142Y-79085389D01*
X124114611Y-78938858D01*
X123942309Y-78823730D01*
X123750857Y-78744428D01*
X123547613Y-78704000D01*
X123340387Y-78704000D01*
X123137143Y-78744428D01*
X122945691Y-78823730D01*
X122773389Y-78938858D01*
X122626858Y-79085389D01*
X122511730Y-79257691D01*
X122432428Y-79449143D01*
X122392000Y-79652387D01*
X122392000Y-79859613D01*
X122432428Y-80062857D01*
X122511730Y-80254309D01*
X122626858Y-80426611D01*
X122773389Y-80573142D01*
X122812088Y-80599000D01*
X121535912Y-80599000D01*
X121574611Y-80573142D01*
X121721142Y-80426611D01*
X121836270Y-80254309D01*
X121915572Y-80062857D01*
X121956000Y-79859613D01*
X121956000Y-79652387D01*
X121915572Y-79449143D01*
X121836270Y-79257691D01*
X121721142Y-79085389D01*
X121574611Y-78938858D01*
X121402309Y-78823730D01*
X121210857Y-78744428D01*
X121007613Y-78704000D01*
X120800387Y-78704000D01*
X120597143Y-78744428D01*
X120405691Y-78823730D01*
X120233389Y-78938858D01*
X120086858Y-79085389D01*
X119971730Y-79257691D01*
X119892428Y-79449143D01*
X119852000Y-79652387D01*
X119852000Y-79859613D01*
X119892428Y-80062857D01*
X119971730Y-80254309D01*
X120086858Y-80426611D01*
X120233389Y-80573142D01*
X120272088Y-80599000D01*
X118995912Y-80599000D01*
X119034611Y-80573142D01*
X119181142Y-80426611D01*
X119296270Y-80254309D01*
X119375572Y-80062857D01*
X119416000Y-79859613D01*
X119416000Y-79652387D01*
X119375572Y-79449143D01*
X119366745Y-79427834D01*
X120243570Y-78551010D01*
X132316166Y-78551008D01*
X132339591Y-78553315D01*
X132433098Y-78544106D01*
X132523013Y-78516831D01*
X132561586Y-78496213D01*
X132605880Y-78472537D01*
X132640892Y-78443803D01*
X132660318Y-78427861D01*
X132660321Y-78427858D01*
X132678512Y-78412929D01*
X132693441Y-78394738D01*
X134604940Y-76483240D01*
X134623132Y-76468310D01*
X134682740Y-76395678D01*
X134727033Y-76312812D01*
X134754308Y-76222897D01*
X134761211Y-76152812D01*
X134761211Y-76152804D01*
X134763517Y-76129389D01*
X134761211Y-76105974D01*
X134761211Y-74795425D01*
X134763517Y-74772010D01*
X134761211Y-74748595D01*
X134761211Y-74748588D01*
X134754308Y-74678503D01*
X134727033Y-74588588D01*
X134682740Y-74505722D01*
X134623132Y-74433090D01*
X134604940Y-74418160D01*
X133485326Y-73298546D01*
X133509594Y-73239958D01*
X133535610Y-73109163D01*
X133535610Y-72975805D01*
X133509594Y-72845010D01*
X133458560Y-72721804D01*
X133387195Y-72614999D01*
X133391150Y-72609080D01*
X133442184Y-72485874D01*
X133468200Y-72355079D01*
X133468200Y-72221721D01*
X133442184Y-72090926D01*
X133414462Y-72024000D01*
X133426528Y-72024000D01*
X133576643Y-71994141D01*
X133718048Y-71935569D01*
X133845309Y-71850536D01*
X133953536Y-71742309D01*
X134038569Y-71615048D01*
X134097141Y-71473643D01*
X134127000Y-71323528D01*
X134127000Y-71170472D01*
X134097141Y-71020357D01*
X134041079Y-70885012D01*
X137977725Y-70885012D01*
X142688265Y-75595554D01*
X142688266Y-76699911D01*
X142615315Y-76809089D01*
X142564281Y-76932295D01*
X142538265Y-77063090D01*
X142538265Y-77196448D01*
X142564281Y-77327243D01*
X142615315Y-77450449D01*
X142689405Y-77561332D01*
X142783702Y-77655629D01*
X142894585Y-77729719D01*
X143017791Y-77780753D01*
X143148586Y-77806769D01*
X143281944Y-77806769D01*
X143412739Y-77780753D01*
X143535945Y-77729719D01*
X143646828Y-77655629D01*
X143647694Y-77654763D01*
X143978558Y-77654763D01*
X143978558Y-77788121D01*
X144004574Y-77918916D01*
X144055608Y-78042122D01*
X144129698Y-78153005D01*
X144223995Y-78247302D01*
X144334878Y-78321392D01*
X144458084Y-78372426D01*
X144588879Y-78398442D01*
X144722237Y-78398442D01*
X144853032Y-78372426D01*
X144976238Y-78321392D01*
X145087121Y-78247302D01*
X145181418Y-78153005D01*
X145255508Y-78042122D01*
X145306542Y-77918916D01*
X145332558Y-77788121D01*
X145332558Y-77719021D01*
X145772370Y-77279209D01*
X145823134Y-77401764D01*
X145897224Y-77512647D01*
X145991521Y-77606944D01*
X146102404Y-77681034D01*
X146225610Y-77732068D01*
X146356405Y-77758084D01*
X146489763Y-77758084D01*
X146620558Y-77732068D01*
X146743764Y-77681034D01*
X146854647Y-77606944D01*
X146948944Y-77512647D01*
X147023034Y-77401764D01*
X147074068Y-77278558D01*
X147100084Y-77147763D01*
X147100084Y-77014405D01*
X147074068Y-76883610D01*
X147023034Y-76760404D01*
X146948944Y-76649521D01*
X146922995Y-76623572D01*
X150298568Y-73248000D01*
X151220832Y-73248000D01*
X151241016Y-73349474D01*
X151292050Y-73472680D01*
X151366140Y-73583563D01*
X151460437Y-73677860D01*
X151571320Y-73751950D01*
X151694526Y-73802984D01*
X151825321Y-73829000D01*
X151958679Y-73829000D01*
X152089474Y-73802984D01*
X152212680Y-73751950D01*
X152323563Y-73677860D01*
X152417860Y-73583563D01*
X152491950Y-73472680D01*
X152542984Y-73349474D01*
X152569000Y-73218679D01*
X152569000Y-73085321D01*
X152542984Y-72954526D01*
X152491950Y-72831320D01*
X152417860Y-72720437D01*
X152323563Y-72626140D01*
X152212680Y-72552050D01*
X152089474Y-72501016D01*
X151958679Y-72475000D01*
X151889579Y-72475000D01*
X151864855Y-72450276D01*
X151849921Y-72432079D01*
X151777289Y-72372471D01*
X151694423Y-72328178D01*
X151604508Y-72300903D01*
X151534423Y-72294000D01*
X151534415Y-72294000D01*
X151511000Y-72291694D01*
X151487585Y-72294000D01*
X150337000Y-72294000D01*
X150337000Y-71651415D01*
X150339306Y-71628000D01*
X150337000Y-71604585D01*
X150337000Y-71604577D01*
X150330097Y-71534492D01*
X150302822Y-71444577D01*
X150258529Y-71361711D01*
X150198921Y-71289079D01*
X150180729Y-71274149D01*
X149775000Y-70868421D01*
X149775000Y-70799321D01*
X149748984Y-70668526D01*
X149697950Y-70545320D01*
X149623860Y-70434437D01*
X149529563Y-70340140D01*
X149418680Y-70266050D01*
X149295474Y-70215016D01*
X149164679Y-70189000D01*
X149031321Y-70189000D01*
X148900526Y-70215016D01*
X148777320Y-70266050D01*
X148666437Y-70340140D01*
X148572140Y-70434437D01*
X148498050Y-70545320D01*
X148447016Y-70668526D01*
X148421000Y-70799321D01*
X148421000Y-70932679D01*
X148447016Y-71063474D01*
X148498050Y-71186680D01*
X148572140Y-71297563D01*
X148666437Y-71391860D01*
X148777320Y-71465950D01*
X148900526Y-71516984D01*
X149031321Y-71543000D01*
X149100421Y-71543000D01*
X149383000Y-71825580D01*
X149383001Y-72319419D01*
X144657979Y-77044442D01*
X144588879Y-77044442D01*
X144458084Y-77070458D01*
X144334878Y-77121492D01*
X144223995Y-77195582D01*
X144129698Y-77289879D01*
X144055608Y-77400762D01*
X144004574Y-77523968D01*
X143978558Y-77654763D01*
X143647694Y-77654763D01*
X143741125Y-77561332D01*
X143815215Y-77450449D01*
X143866249Y-77327243D01*
X143892265Y-77196448D01*
X143892265Y-77063090D01*
X143866249Y-76932295D01*
X143815215Y-76809089D01*
X143742265Y-76699912D01*
X143742265Y-75403144D01*
X143744814Y-75377263D01*
X143734639Y-75273953D01*
X143722680Y-75234529D01*
X143704504Y-75174613D01*
X143655569Y-75083061D01*
X143589713Y-75002815D01*
X143569610Y-74986317D01*
X138586969Y-70003678D01*
X138570462Y-69983564D01*
X138490216Y-69917708D01*
X138398664Y-69868773D01*
X138299324Y-69838638D01*
X138221895Y-69831012D01*
X138196014Y-69828463D01*
X138170133Y-69831012D01*
X133375893Y-69831012D01*
X133350012Y-69828463D01*
X133324131Y-69831012D01*
X130619851Y-69831012D01*
X130575000Y-69786161D01*
X130575000Y-69560281D01*
X132529690Y-67605592D01*
X132658474Y-67579976D01*
X132781680Y-67528942D01*
X132892563Y-67454852D01*
X132986860Y-67360555D01*
X133060950Y-67249672D01*
X133111984Y-67126466D01*
X133138000Y-66995671D01*
X133138000Y-66862313D01*
X133111984Y-66731518D01*
X133060950Y-66608312D01*
X132986860Y-66497429D01*
X132892563Y-66403132D01*
X132781680Y-66329042D01*
X132658474Y-66278008D01*
X132527679Y-66251992D01*
X132394321Y-66251992D01*
X132263526Y-66278008D01*
X132140320Y-66329042D01*
X132029437Y-66403132D01*
X131935140Y-66497429D01*
X131861050Y-66608312D01*
X131810016Y-66731518D01*
X131784400Y-66860302D01*
X129693662Y-68951041D01*
X129673553Y-68967544D01*
X129621087Y-69031474D01*
X129607696Y-69047791D01*
X129558761Y-69139343D01*
X129528626Y-69238683D01*
X129518451Y-69341992D01*
X129521001Y-69367882D01*
X129521001Y-69786160D01*
X129476161Y-69831000D01*
X117971000Y-69831000D01*
X117971000Y-68877076D01*
X117975243Y-68833999D01*
X117970013Y-68780900D01*
X117958310Y-68662078D01*
X117908162Y-68496763D01*
X117826727Y-68344408D01*
X117717133Y-68210867D01*
X117683669Y-68183404D01*
X117617597Y-68117332D01*
X117590133Y-68083867D01*
X117456592Y-67974273D01*
X117304237Y-67892838D01*
X117138922Y-67842690D01*
X117010079Y-67830000D01*
X116967000Y-67825757D01*
X116923921Y-67830000D01*
X110188263Y-67830000D01*
X109081000Y-66722737D01*
X109081000Y-65510505D01*
X109089463Y-65505981D01*
X109146869Y-65458869D01*
X109193981Y-65401463D01*
X109228988Y-65335970D01*
X109250545Y-65264905D01*
X109257824Y-65191000D01*
X109257824Y-63841000D01*
X109250545Y-63767095D01*
X109228988Y-63696030D01*
X109216678Y-63673000D01*
X110112088Y-63673000D01*
X110073389Y-63698858D01*
G37*
%TD.AperFunction*%
D17*
X120608000Y-73974321D02*
X120608000Y-74107679D01*
X120634016Y-74238474D01*
X120685050Y-74361680D01*
X120759140Y-74472563D01*
X120853437Y-74566860D01*
X120964320Y-74640950D01*
X121087526Y-74691984D01*
X121218321Y-74718000D01*
X121287421Y-74718000D01*
X123215595Y-76646175D01*
X123202051Y-76714270D01*
X123202051Y-76847628D01*
X123228067Y-76978423D01*
X123279101Y-77101629D01*
X123353191Y-77212512D01*
X123387678Y-77246999D01*
X117879415Y-77246999D01*
X117856000Y-77244693D01*
X117832585Y-77246999D01*
X117832578Y-77246999D01*
X117771339Y-77253031D01*
X117762492Y-77253902D01*
X117745924Y-77258928D01*
X117672578Y-77281177D01*
X117589712Y-77325470D01*
X117517080Y-77385078D01*
X117502150Y-77403270D01*
X116152166Y-78753255D01*
X116130857Y-78744428D01*
X115927613Y-78704000D01*
X115720387Y-78704000D01*
X115517143Y-78744428D01*
X115325691Y-78823730D01*
X115153389Y-78938858D01*
X115006858Y-79085389D01*
X114891730Y-79257691D01*
X114812428Y-79449143D01*
X114772000Y-79652387D01*
X114772000Y-79859613D01*
X114812428Y-80062857D01*
X114891730Y-80254309D01*
X115006858Y-80426611D01*
X115153389Y-80573142D01*
X115192088Y-80599000D01*
X113915912Y-80599000D01*
X113954611Y-80573142D01*
X114101142Y-80426611D01*
X114216270Y-80254309D01*
X114295572Y-80062857D01*
X114336000Y-79859613D01*
X114336000Y-79652387D01*
X114295572Y-79449143D01*
X114216270Y-79257691D01*
X114101142Y-79085389D01*
X113954611Y-78938858D01*
X113782309Y-78823730D01*
X113590857Y-78744428D01*
X113387613Y-78704000D01*
X113180387Y-78704000D01*
X112977143Y-78744428D01*
X112785691Y-78823730D01*
X112613389Y-78938858D01*
X112466858Y-79085389D01*
X112351730Y-79257691D01*
X112272428Y-79449143D01*
X112232000Y-79652387D01*
X112232000Y-79859613D01*
X112272428Y-80062857D01*
X112351730Y-80254309D01*
X112466858Y-80426611D01*
X112613389Y-80573142D01*
X112652088Y-80599000D01*
X111375912Y-80599000D01*
X111414611Y-80573142D01*
X111561142Y-80426611D01*
X111676270Y-80254309D01*
X111755572Y-80062857D01*
X111796000Y-79859613D01*
X111796000Y-79652387D01*
X111755572Y-79449143D01*
X111676270Y-79257691D01*
X111561142Y-79085389D01*
X111414611Y-78938858D01*
X111242309Y-78823730D01*
X111050857Y-78744428D01*
X110847613Y-78704000D01*
X110640387Y-78704000D01*
X110437143Y-78744428D01*
X110245691Y-78823730D01*
X110073389Y-78938858D01*
X109926858Y-79085389D01*
X109811730Y-79257691D01*
X109732428Y-79449143D01*
X109692000Y-79652387D01*
X109692000Y-79859613D01*
X109732428Y-80062857D01*
X109811730Y-80254309D01*
X109926858Y-80426611D01*
X110073389Y-80573142D01*
X110112088Y-80599000D01*
X109216678Y-80599000D01*
X109228988Y-80575970D01*
X109250545Y-80504905D01*
X109257824Y-80431000D01*
X109257824Y-79081000D01*
X109250545Y-79007095D01*
X109228988Y-78936030D01*
X109193981Y-78870537D01*
X109146869Y-78813131D01*
X109089463Y-78766019D01*
X109023970Y-78731012D01*
X108952905Y-78709455D01*
X108879000Y-78702176D01*
X108681000Y-78702176D01*
X108681000Y-77057979D01*
X111209320Y-74529660D01*
X111218782Y-74577227D01*
X111281123Y-74727731D01*
X111371628Y-74863181D01*
X111486819Y-74978372D01*
X111622269Y-75068877D01*
X111772773Y-75131218D01*
X111932548Y-75163000D01*
X112095452Y-75163000D01*
X112255227Y-75131218D01*
X112405731Y-75068877D01*
X112541181Y-74978372D01*
X112656372Y-74863181D01*
X112746877Y-74727731D01*
X112809218Y-74577227D01*
X112841000Y-74417452D01*
X112841000Y-74254548D01*
X112809218Y-74094773D01*
X112746877Y-73944269D01*
X112713302Y-73894021D01*
X120623972Y-73894021D01*
X120608000Y-73974321D01*
%TA.AperFunction,Conductor*%
D18*
G36*
X120608000Y-73974321D02*
G01*
X120608000Y-74107679D01*
X120634016Y-74238474D01*
X120685050Y-74361680D01*
X120759140Y-74472563D01*
X120853437Y-74566860D01*
X120964320Y-74640950D01*
X121087526Y-74691984D01*
X121218321Y-74718000D01*
X121287421Y-74718000D01*
X123215595Y-76646175D01*
X123202051Y-76714270D01*
X123202051Y-76847628D01*
X123228067Y-76978423D01*
X123279101Y-77101629D01*
X123353191Y-77212512D01*
X123387678Y-77246999D01*
X117879415Y-77246999D01*
X117856000Y-77244693D01*
X117832585Y-77246999D01*
X117832578Y-77246999D01*
X117771339Y-77253031D01*
X117762492Y-77253902D01*
X117745924Y-77258928D01*
X117672578Y-77281177D01*
X117589712Y-77325470D01*
X117517080Y-77385078D01*
X117502150Y-77403270D01*
X116152166Y-78753255D01*
X116130857Y-78744428D01*
X115927613Y-78704000D01*
X115720387Y-78704000D01*
X115517143Y-78744428D01*
X115325691Y-78823730D01*
X115153389Y-78938858D01*
X115006858Y-79085389D01*
X114891730Y-79257691D01*
X114812428Y-79449143D01*
X114772000Y-79652387D01*
X114772000Y-79859613D01*
X114812428Y-80062857D01*
X114891730Y-80254309D01*
X115006858Y-80426611D01*
X115153389Y-80573142D01*
X115192088Y-80599000D01*
X113915912Y-80599000D01*
X113954611Y-80573142D01*
X114101142Y-80426611D01*
X114216270Y-80254309D01*
X114295572Y-80062857D01*
X114336000Y-79859613D01*
X114336000Y-79652387D01*
X114295572Y-79449143D01*
X114216270Y-79257691D01*
X114101142Y-79085389D01*
X113954611Y-78938858D01*
X113782309Y-78823730D01*
X113590857Y-78744428D01*
X113387613Y-78704000D01*
X113180387Y-78704000D01*
X112977143Y-78744428D01*
X112785691Y-78823730D01*
X112613389Y-78938858D01*
X112466858Y-79085389D01*
X112351730Y-79257691D01*
X112272428Y-79449143D01*
X112232000Y-79652387D01*
X112232000Y-79859613D01*
X112272428Y-80062857D01*
X112351730Y-80254309D01*
X112466858Y-80426611D01*
X112613389Y-80573142D01*
X112652088Y-80599000D01*
X111375912Y-80599000D01*
X111414611Y-80573142D01*
X111561142Y-80426611D01*
X111676270Y-80254309D01*
X111755572Y-80062857D01*
X111796000Y-79859613D01*
X111796000Y-79652387D01*
X111755572Y-79449143D01*
X111676270Y-79257691D01*
X111561142Y-79085389D01*
X111414611Y-78938858D01*
X111242309Y-78823730D01*
X111050857Y-78744428D01*
X110847613Y-78704000D01*
X110640387Y-78704000D01*
X110437143Y-78744428D01*
X110245691Y-78823730D01*
X110073389Y-78938858D01*
X109926858Y-79085389D01*
X109811730Y-79257691D01*
X109732428Y-79449143D01*
X109692000Y-79652387D01*
X109692000Y-79859613D01*
X109732428Y-80062857D01*
X109811730Y-80254309D01*
X109926858Y-80426611D01*
X110073389Y-80573142D01*
X110112088Y-80599000D01*
X109216678Y-80599000D01*
X109228988Y-80575970D01*
X109250545Y-80504905D01*
X109257824Y-80431000D01*
X109257824Y-79081000D01*
X109250545Y-79007095D01*
X109228988Y-78936030D01*
X109193981Y-78870537D01*
X109146869Y-78813131D01*
X109089463Y-78766019D01*
X109023970Y-78731012D01*
X108952905Y-78709455D01*
X108879000Y-78702176D01*
X108681000Y-78702176D01*
X108681000Y-77057979D01*
X111209320Y-74529660D01*
X111218782Y-74577227D01*
X111281123Y-74727731D01*
X111371628Y-74863181D01*
X111486819Y-74978372D01*
X111622269Y-75068877D01*
X111772773Y-75131218D01*
X111932548Y-75163000D01*
X112095452Y-75163000D01*
X112255227Y-75131218D01*
X112405731Y-75068877D01*
X112541181Y-74978372D01*
X112656372Y-74863181D01*
X112746877Y-74727731D01*
X112809218Y-74577227D01*
X112841000Y-74417452D01*
X112841000Y-74254548D01*
X112809218Y-74094773D01*
X112746877Y-73944269D01*
X112713302Y-73894021D01*
X120623972Y-73894021D01*
X120608000Y-73974321D01*
G37*
%TD.AperFunction*%
D17*
X107389838Y-67423238D02*
X107471273Y-67575593D01*
X107580867Y-67709135D01*
X107614332Y-67736599D01*
X109174401Y-69296668D01*
X109201865Y-69330133D01*
X109335406Y-69439727D01*
X109487761Y-69521162D01*
X109653076Y-69571310D01*
X109781919Y-69584000D01*
X109781928Y-69584000D01*
X109824997Y-69588242D01*
X109868067Y-69584000D01*
X111264666Y-69584000D01*
X111218782Y-69694773D01*
X111187000Y-69854548D01*
X111187000Y-70017452D01*
X111218782Y-70177227D01*
X111281123Y-70327731D01*
X111371628Y-70463181D01*
X111486819Y-70578372D01*
X111622269Y-70668877D01*
X111772773Y-70731218D01*
X111932548Y-70763000D01*
X112095452Y-70763000D01*
X112255227Y-70731218D01*
X112405731Y-70668877D01*
X112541181Y-70578372D01*
X112656372Y-70463181D01*
X112746877Y-70327731D01*
X112809218Y-70177227D01*
X112841000Y-70017452D01*
X112841000Y-69854548D01*
X112809218Y-69694773D01*
X112763334Y-69584000D01*
X116217001Y-69584000D01*
X116217001Y-70324879D01*
X116229691Y-70453722D01*
X116279839Y-70619037D01*
X116361274Y-70771392D01*
X116470868Y-70904933D01*
X116604409Y-71014527D01*
X116756764Y-71095962D01*
X116922079Y-71146110D01*
X117094000Y-71163043D01*
X117265922Y-71146110D01*
X117431237Y-71095962D01*
X117583592Y-71014527D01*
X117717133Y-70904933D01*
X117733492Y-70885000D01*
X129476149Y-70885000D01*
X129521001Y-70929852D01*
X129521000Y-73977155D01*
X129444464Y-74053691D01*
X129359431Y-74180952D01*
X129300859Y-74322357D01*
X129271000Y-74472472D01*
X129271000Y-74625528D01*
X129300859Y-74775643D01*
X129359431Y-74917048D01*
X129444464Y-75044309D01*
X129552691Y-75152536D01*
X129679952Y-75237569D01*
X129821357Y-75296141D01*
X129971472Y-75326000D01*
X130124528Y-75326000D01*
X130274643Y-75296141D01*
X130416048Y-75237569D01*
X130543309Y-75152536D01*
X130651536Y-75044309D01*
X130736569Y-74917048D01*
X130795141Y-74775643D01*
X130825000Y-74625528D01*
X130825000Y-74472472D01*
X130795141Y-74322357D01*
X130736569Y-74180952D01*
X130651536Y-74053691D01*
X130575000Y-73977155D01*
X130575000Y-70929851D01*
X130619839Y-70885012D01*
X132658921Y-70885012D01*
X132602859Y-71020357D01*
X132573000Y-71170472D01*
X132573000Y-71323528D01*
X132602859Y-71473643D01*
X132661431Y-71615048D01*
X132666681Y-71622905D01*
X132593726Y-71637416D01*
X132470520Y-71688450D01*
X132359637Y-71762540D01*
X132265340Y-71856837D01*
X132191250Y-71967720D01*
X132140216Y-72090926D01*
X132114200Y-72221721D01*
X132114200Y-72290821D01*
X131987873Y-72417148D01*
X131969680Y-72432079D01*
X131954751Y-72450270D01*
X131954748Y-72450273D01*
X131951272Y-72454509D01*
X131910072Y-72504711D01*
X131888846Y-72544422D01*
X131865778Y-72587578D01*
X131838503Y-72677493D01*
X131829294Y-72771000D01*
X131831601Y-72794424D01*
X131831600Y-73267974D01*
X131829294Y-73291390D01*
X131831600Y-73314805D01*
X131831600Y-73314812D01*
X131838503Y-73384897D01*
X131865778Y-73474812D01*
X131910071Y-73557679D01*
X131969679Y-73630311D01*
X131987876Y-73645245D01*
X132252268Y-73909637D01*
X132159546Y-73847682D01*
X132036340Y-73796648D01*
X131905545Y-73770632D01*
X131772187Y-73770632D01*
X131641392Y-73796648D01*
X131518186Y-73847682D01*
X131407303Y-73921772D01*
X131313006Y-74016069D01*
X131238916Y-74126952D01*
X131187882Y-74250158D01*
X131161866Y-74380953D01*
X131161866Y-74514311D01*
X131187882Y-74645106D01*
X131197509Y-74668347D01*
X130240856Y-75625000D01*
X128687780Y-75625000D01*
X124653055Y-71590276D01*
X124638121Y-71572079D01*
X124565489Y-71512471D01*
X124482623Y-71468178D01*
X124392708Y-71440903D01*
X124322623Y-71434000D01*
X124322615Y-71434000D01*
X124299200Y-71431694D01*
X124275785Y-71434000D01*
X123535736Y-71434000D01*
X123461860Y-71323437D01*
X123367563Y-71229140D01*
X123256680Y-71155050D01*
X123133474Y-71104016D01*
X123002679Y-71078000D01*
X122869321Y-71078000D01*
X122738526Y-71104016D01*
X122615320Y-71155050D01*
X122504437Y-71229140D01*
X122410140Y-71323437D01*
X122336050Y-71434320D01*
X122285016Y-71557526D01*
X122259000Y-71688321D01*
X122259000Y-71821679D01*
X122285016Y-71952474D01*
X122336050Y-72075680D01*
X122376355Y-72136000D01*
X122336050Y-72196320D01*
X122285016Y-72319526D01*
X122259000Y-72450321D01*
X122259000Y-72583679D01*
X122285016Y-72714474D01*
X122336050Y-72837680D01*
X122404432Y-72940021D01*
X111670793Y-72940021D01*
X111647378Y-72937715D01*
X111623963Y-72940021D01*
X111623956Y-72940021D01*
X111562717Y-72946053D01*
X111553870Y-72946924D01*
X111547106Y-72948976D01*
X111463956Y-72974199D01*
X111381090Y-73018492D01*
X111308458Y-73078100D01*
X111293528Y-73096292D01*
X107883271Y-76506550D01*
X107865080Y-76521479D01*
X107850151Y-76539670D01*
X107850148Y-76539673D01*
X107840033Y-76551999D01*
X107805472Y-76594111D01*
X107785046Y-76632326D01*
X107761178Y-76676978D01*
X107733903Y-76766893D01*
X107724694Y-76860400D01*
X107727001Y-76883825D01*
X107727000Y-78702176D01*
X107529000Y-78702176D01*
X107455095Y-78709455D01*
X107384030Y-78731012D01*
X107361000Y-78743322D01*
X107361000Y-67328172D01*
X107389838Y-67423238D01*
%TA.AperFunction,Conductor*%
D18*
G36*
X107389838Y-67423238D02*
G01*
X107471273Y-67575593D01*
X107580867Y-67709135D01*
X107614332Y-67736599D01*
X109174401Y-69296668D01*
X109201865Y-69330133D01*
X109335406Y-69439727D01*
X109487761Y-69521162D01*
X109653076Y-69571310D01*
X109781919Y-69584000D01*
X109781928Y-69584000D01*
X109824997Y-69588242D01*
X109868067Y-69584000D01*
X111264666Y-69584000D01*
X111218782Y-69694773D01*
X111187000Y-69854548D01*
X111187000Y-70017452D01*
X111218782Y-70177227D01*
X111281123Y-70327731D01*
X111371628Y-70463181D01*
X111486819Y-70578372D01*
X111622269Y-70668877D01*
X111772773Y-70731218D01*
X111932548Y-70763000D01*
X112095452Y-70763000D01*
X112255227Y-70731218D01*
X112405731Y-70668877D01*
X112541181Y-70578372D01*
X112656372Y-70463181D01*
X112746877Y-70327731D01*
X112809218Y-70177227D01*
X112841000Y-70017452D01*
X112841000Y-69854548D01*
X112809218Y-69694773D01*
X112763334Y-69584000D01*
X116217001Y-69584000D01*
X116217001Y-70324879D01*
X116229691Y-70453722D01*
X116279839Y-70619037D01*
X116361274Y-70771392D01*
X116470868Y-70904933D01*
X116604409Y-71014527D01*
X116756764Y-71095962D01*
X116922079Y-71146110D01*
X117094000Y-71163043D01*
X117265922Y-71146110D01*
X117431237Y-71095962D01*
X117583592Y-71014527D01*
X117717133Y-70904933D01*
X117733492Y-70885000D01*
X129476149Y-70885000D01*
X129521001Y-70929852D01*
X129521000Y-73977155D01*
X129444464Y-74053691D01*
X129359431Y-74180952D01*
X129300859Y-74322357D01*
X129271000Y-74472472D01*
X129271000Y-74625528D01*
X129300859Y-74775643D01*
X129359431Y-74917048D01*
X129444464Y-75044309D01*
X129552691Y-75152536D01*
X129679952Y-75237569D01*
X129821357Y-75296141D01*
X129971472Y-75326000D01*
X130124528Y-75326000D01*
X130274643Y-75296141D01*
X130416048Y-75237569D01*
X130543309Y-75152536D01*
X130651536Y-75044309D01*
X130736569Y-74917048D01*
X130795141Y-74775643D01*
X130825000Y-74625528D01*
X130825000Y-74472472D01*
X130795141Y-74322357D01*
X130736569Y-74180952D01*
X130651536Y-74053691D01*
X130575000Y-73977155D01*
X130575000Y-70929851D01*
X130619839Y-70885012D01*
X132658921Y-70885012D01*
X132602859Y-71020357D01*
X132573000Y-71170472D01*
X132573000Y-71323528D01*
X132602859Y-71473643D01*
X132661431Y-71615048D01*
X132666681Y-71622905D01*
X132593726Y-71637416D01*
X132470520Y-71688450D01*
X132359637Y-71762540D01*
X132265340Y-71856837D01*
X132191250Y-71967720D01*
X132140216Y-72090926D01*
X132114200Y-72221721D01*
X132114200Y-72290821D01*
X131987873Y-72417148D01*
X131969680Y-72432079D01*
X131954751Y-72450270D01*
X131954748Y-72450273D01*
X131951272Y-72454509D01*
X131910072Y-72504711D01*
X131888846Y-72544422D01*
X131865778Y-72587578D01*
X131838503Y-72677493D01*
X131829294Y-72771000D01*
X131831601Y-72794424D01*
X131831600Y-73267974D01*
X131829294Y-73291390D01*
X131831600Y-73314805D01*
X131831600Y-73314812D01*
X131838503Y-73384897D01*
X131865778Y-73474812D01*
X131910071Y-73557679D01*
X131969679Y-73630311D01*
X131987876Y-73645245D01*
X132252268Y-73909637D01*
X132159546Y-73847682D01*
X132036340Y-73796648D01*
X131905545Y-73770632D01*
X131772187Y-73770632D01*
X131641392Y-73796648D01*
X131518186Y-73847682D01*
X131407303Y-73921772D01*
X131313006Y-74016069D01*
X131238916Y-74126952D01*
X131187882Y-74250158D01*
X131161866Y-74380953D01*
X131161866Y-74514311D01*
X131187882Y-74645106D01*
X131197509Y-74668347D01*
X130240856Y-75625000D01*
X128687780Y-75625000D01*
X124653055Y-71590276D01*
X124638121Y-71572079D01*
X124565489Y-71512471D01*
X124482623Y-71468178D01*
X124392708Y-71440903D01*
X124322623Y-71434000D01*
X124322615Y-71434000D01*
X124299200Y-71431694D01*
X124275785Y-71434000D01*
X123535736Y-71434000D01*
X123461860Y-71323437D01*
X123367563Y-71229140D01*
X123256680Y-71155050D01*
X123133474Y-71104016D01*
X123002679Y-71078000D01*
X122869321Y-71078000D01*
X122738526Y-71104016D01*
X122615320Y-71155050D01*
X122504437Y-71229140D01*
X122410140Y-71323437D01*
X122336050Y-71434320D01*
X122285016Y-71557526D01*
X122259000Y-71688321D01*
X122259000Y-71821679D01*
X122285016Y-71952474D01*
X122336050Y-72075680D01*
X122376355Y-72136000D01*
X122336050Y-72196320D01*
X122285016Y-72319526D01*
X122259000Y-72450321D01*
X122259000Y-72583679D01*
X122285016Y-72714474D01*
X122336050Y-72837680D01*
X122404432Y-72940021D01*
X111670793Y-72940021D01*
X111647378Y-72937715D01*
X111623963Y-72940021D01*
X111623956Y-72940021D01*
X111562717Y-72946053D01*
X111553870Y-72946924D01*
X111547106Y-72948976D01*
X111463956Y-72974199D01*
X111381090Y-73018492D01*
X111308458Y-73078100D01*
X111293528Y-73096292D01*
X107883271Y-76506550D01*
X107865080Y-76521479D01*
X107850151Y-76539670D01*
X107850148Y-76539673D01*
X107840033Y-76551999D01*
X107805472Y-76594111D01*
X107785046Y-76632326D01*
X107761178Y-76676978D01*
X107733903Y-76766893D01*
X107724694Y-76860400D01*
X107727001Y-76883825D01*
X107727000Y-78702176D01*
X107529000Y-78702176D01*
X107455095Y-78709455D01*
X107384030Y-78731012D01*
X107361000Y-78743322D01*
X107361000Y-67328172D01*
X107389838Y-67423238D01*
G37*
%TD.AperFunction*%
D17*
X127949950Y-76872729D02*
X127964879Y-76890921D01*
X128037511Y-76950529D01*
X128120377Y-76994822D01*
X128210292Y-77022097D01*
X128280377Y-77029000D01*
X128280384Y-77029000D01*
X128303799Y-77031306D01*
X128327214Y-77029000D01*
X130601418Y-77029000D01*
X130624833Y-77031306D01*
X130648248Y-77029000D01*
X130648256Y-77029000D01*
X130718341Y-77022097D01*
X130808256Y-76994822D01*
X130891122Y-76950529D01*
X130963754Y-76890921D01*
X130978688Y-76872724D01*
X132186492Y-75664921D01*
X132200569Y-75670752D01*
X132331364Y-75696768D01*
X132464722Y-75696768D01*
X132595517Y-75670752D01*
X132718723Y-75619718D01*
X132829606Y-75545628D01*
X132923903Y-75451331D01*
X132997993Y-75340448D01*
X133049027Y-75217242D01*
X133075043Y-75086447D01*
X133075043Y-74953089D01*
X133049027Y-74822294D01*
X132997993Y-74699088D01*
X132923903Y-74588205D01*
X132829606Y-74493908D01*
X132718723Y-74419818D01*
X132595517Y-74368784D01*
X132510065Y-74351787D01*
X132489850Y-74250158D01*
X132438816Y-74126952D01*
X132376861Y-74034230D01*
X133457201Y-75114571D01*
X133457200Y-75786830D01*
X131997032Y-77246999D01*
X124370424Y-77246999D01*
X124404911Y-77212512D01*
X124479001Y-77101629D01*
X124530035Y-76978423D01*
X124556051Y-76847628D01*
X124556051Y-76714270D01*
X124530035Y-76583475D01*
X124479001Y-76460269D01*
X124404911Y-76349386D01*
X124310614Y-76255089D01*
X124199731Y-76180999D01*
X124076525Y-76129965D01*
X124041598Y-76123018D01*
X121962000Y-74043421D01*
X121962000Y-73974321D01*
X121946028Y-73894021D01*
X123881572Y-73894021D01*
X123930432Y-73942881D01*
X124041315Y-74016971D01*
X124164521Y-74068005D01*
X124295316Y-74094021D01*
X124428674Y-74094021D01*
X124559469Y-74068005D01*
X124682675Y-74016971D01*
X124793558Y-73942881D01*
X124887855Y-73848584D01*
X124903056Y-73825835D01*
X127949950Y-76872729D01*
%TA.AperFunction,Conductor*%
D18*
G36*
X127949950Y-76872729D02*
G01*
X127964879Y-76890921D01*
X128037511Y-76950529D01*
X128120377Y-76994822D01*
X128210292Y-77022097D01*
X128280377Y-77029000D01*
X128280384Y-77029000D01*
X128303799Y-77031306D01*
X128327214Y-77029000D01*
X130601418Y-77029000D01*
X130624833Y-77031306D01*
X130648248Y-77029000D01*
X130648256Y-77029000D01*
X130718341Y-77022097D01*
X130808256Y-76994822D01*
X130891122Y-76950529D01*
X130963754Y-76890921D01*
X130978688Y-76872724D01*
X132186492Y-75664921D01*
X132200569Y-75670752D01*
X132331364Y-75696768D01*
X132464722Y-75696768D01*
X132595517Y-75670752D01*
X132718723Y-75619718D01*
X132829606Y-75545628D01*
X132923903Y-75451331D01*
X132997993Y-75340448D01*
X133049027Y-75217242D01*
X133075043Y-75086447D01*
X133075043Y-74953089D01*
X133049027Y-74822294D01*
X132997993Y-74699088D01*
X132923903Y-74588205D01*
X132829606Y-74493908D01*
X132718723Y-74419818D01*
X132595517Y-74368784D01*
X132510065Y-74351787D01*
X132489850Y-74250158D01*
X132438816Y-74126952D01*
X132376861Y-74034230D01*
X133457201Y-75114571D01*
X133457200Y-75786830D01*
X131997032Y-77246999D01*
X124370424Y-77246999D01*
X124404911Y-77212512D01*
X124479001Y-77101629D01*
X124530035Y-76978423D01*
X124556051Y-76847628D01*
X124556051Y-76714270D01*
X124530035Y-76583475D01*
X124479001Y-76460269D01*
X124404911Y-76349386D01*
X124310614Y-76255089D01*
X124199731Y-76180999D01*
X124076525Y-76129965D01*
X124041598Y-76123018D01*
X121962000Y-74043421D01*
X121962000Y-73974321D01*
X121946028Y-73894021D01*
X123881572Y-73894021D01*
X123930432Y-73942881D01*
X124041315Y-74016971D01*
X124164521Y-74068005D01*
X124295316Y-74094021D01*
X124428674Y-74094021D01*
X124559469Y-74068005D01*
X124682675Y-74016971D01*
X124793558Y-73942881D01*
X124887855Y-73848584D01*
X124903056Y-73825835D01*
X127949950Y-76872729D01*
G37*
%TD.AperFunction*%
%TD*%
M02*
